<?xml version="1.0" encoding="UTF-8" standalone="no"?>
<!DOCTYPE svg PUBLIC "-//W3C//DTD SVG 1.1//EN"
 "http://www.w3.org/Graphics/SVG/1.1/DTD/svg11.dtd">
<!-- Generated by graphviz version 2.47.3 (20210619.1520)
 -->
<!-- Title: dependencies Pages: 1 -->
<svg width="198pt" height="247pt"
 viewBox="0.00 0.00 198.00 246.80" xmlns="http://www.w3.org/2000/svg" xmlns:xlink="http://www.w3.org/1999/xlink">
<g id="graph0" class="graph" transform="scale(1 1) rotate(0) translate(4 242.8)">
<title>dependencies</title>
<polygon fill="white" stroke="transparent" points="-4,4 -4,-242.8 194,-242.8 194,4 -4,4"/>
<text text-anchor="middle" x="95" y="-8.2" font-family="sans-serif" font-size="14.00">dependencies</text>
<g id="clust1" class="cluster">
<title>cluster_UiClipboardModule</title>
<polygon fill="none" stroke="black" stroke-dasharray="1,5" points="8,-32.8 8,-230.8 182,-230.8 182,-32.8 8,-32.8"/>
</g>
<g id="clust2" class="cluster">
<title>cluster_UiClipboardModule_declarations</title>
<polygon fill="none" stroke="black" points="18,-40.8 18,-92.8 172,-92.8 172,-40.8 18,-40.8"/>
</g>
<g id="clust5" class="cluster">
<title>cluster_UiClipboardModule_exports</title>
<polygon fill="none" stroke="black" points="16,-170.8 16,-222.8 174,-222.8 174,-170.8 16,-170.8"/>
</g>
<!-- UiClipboardDirective -->
<g id="node1" class="node">
<title>UiClipboardDirective</title>
<polygon fill="#ffffb3" stroke="black" points="164.07,-84.8 25.93,-84.8 25.93,-48.8 164.07,-48.8 164.07,-84.8"/>
<text text-anchor="middle" x="95" y="-62.6" font-family="Times,serif" font-size="14.00">UiClipboardDirective</text>
</g>
<!-- UiClipboardModule -->
<g id="node2" class="node">
<title>UiClipboardModule</title>
<polygon fill="#8dd3c7" stroke="black" points="159.54,-149.8 156.54,-153.8 135.54,-153.8 132.54,-149.8 30.46,-149.8 30.46,-113.8 159.54,-113.8 159.54,-149.8"/>
<text text-anchor="middle" x="95" y="-127.6" font-family="Times,serif" font-size="14.00">UiClipboardModule</text>
</g>
<!-- UiClipboardDirective&#45;&gt;UiClipboardModule -->
<g id="edge1" class="edge">
<title>UiClipboardDirective&#45;&gt;UiClipboardModule</title>
<path fill="none" stroke="black" d="M95,-84.91C95,-84.91 95,-103.79 95,-103.79"/>
<polygon fill="black" stroke="black" points="91.5,-103.79 95,-113.79 98.5,-103.79 91.5,-103.79"/>
</g>
<!-- UiClipboardDirective  -->
<g id="node3" class="node">
<title>UiClipboardDirective </title>
<polygon fill="#fb8072" stroke="black" points="165.57,-214.8 24.43,-214.8 24.43,-178.8 165.57,-178.8 165.57,-214.8"/>
<text text-anchor="middle" x="95" y="-192.6" font-family="Times,serif" font-size="14.00">UiClipboardDirective </text>
</g>
<!-- UiClipboardModule&#45;&gt;UiClipboardDirective  -->
<g id="edge2" class="edge">
<title>UiClipboardModule&#45;&gt;UiClipboardDirective </title>
<path fill="none" stroke="black" stroke-dasharray="5,2" d="M95,-149.91C95,-149.91 95,-168.79 95,-168.79"/>
<polygon fill="black" stroke="black" points="91.5,-168.79 95,-178.79 98.5,-168.79 91.5,-168.79"/>
</g>
</g>
</svg>
