<?xml version="1.0" encoding="UTF-8" standalone="no"?>
<!DOCTYPE svg PUBLIC "-//W3C//DTD SVG 1.1//EN"
 "http://www.w3.org/Graphics/SVG/1.1/DTD/svg11.dtd">
<!-- Generated by graphviz version 2.40.1 (20161225.0304)
 -->
<!-- Title: dependencies Pages: 1 -->
<svg width="504pt" height="284pt"
 viewBox="0.00 0.00 504.00 284.00" xmlns="http://www.w3.org/2000/svg" xmlns:xlink="http://www.w3.org/1999/xlink">
<g id="graph0" class="graph" transform="scale(1 1) rotate(0) translate(4 280)">
<title>dependencies</title>
<polygon fill="#ffffff" stroke="transparent" points="-4,4 -4,-280 500,-280 500,4 -4,4"/>
<text text-anchor="start" x="227.0091" y="-42.4" font-family="sans-serif" font-weight="bold" font-size="14.00" fill="#000000">Legend</text>
<polygon fill="#ffffb3" stroke="transparent" points="14,-10 14,-30 34,-30 34,-10 14,-10"/>
<text text-anchor="start" x="37.629" y="-15.4" font-family="sans-serif" font-size="14.00" fill="#000000"> &#160;Declarations</text>
<polygon fill="#8dd3c7" stroke="transparent" points="127,-10 127,-30 147,-30 147,-10 127,-10"/>
<text text-anchor="start" x="150.7251" y="-15.4" font-family="sans-serif" font-size="14.00" fill="#000000"> &#160;Module</text>
<polygon fill="#80b1d3" stroke="transparent" points="213,-10 213,-30 233,-30 233,-10 213,-10"/>
<text text-anchor="start" x="236.7812" y="-15.4" font-family="sans-serif" font-size="14.00" fill="#000000"> &#160;Bootstrap</text>
<polygon fill="#fdb462" stroke="transparent" points="310,-10 310,-30 330,-30 330,-10 310,-10"/>
<text text-anchor="start" x="333.6732" y="-15.4" font-family="sans-serif" font-size="14.00" fill="#000000"> &#160;Providers</text>
<polygon fill="#fb8072" stroke="transparent" points="406,-10 406,-30 426,-30 426,-10 406,-10"/>
<text text-anchor="start" x="429.7258" y="-15.4" font-family="sans-serif" font-size="14.00" fill="#000000"> &#160;Exports</text>
<g id="clust1" class="cluster">
<title>cluster_UiClipboardModule</title>
<polygon fill="none" stroke="#000000" stroke-dasharray="1,5" points="161,-70 161,-268 335,-268 335,-70 161,-70"/>
</g>
<g id="clust2" class="cluster">
<title>cluster_UiClipboardModule_declarations</title>
<polygon fill="none" stroke="#000000" points="171,-78 171,-130 325,-130 325,-78 171,-78"/>
</g>
<g id="clust5" class="cluster">
<title>cluster_UiClipboardModule_exports</title>
<polygon fill="none" stroke="#000000" points="169,-208 169,-260 327,-260 327,-208 169,-208"/>
</g>
<!-- UiClipboardDirective -->
<g id="node1" class="node">
<title>UiClipboardDirective</title>
<polygon fill="#ffffb3" stroke="#000000" points="317.073,-122 178.927,-122 178.927,-86 317.073,-86 317.073,-122"/>
<text text-anchor="middle" x="248" y="-99.8" font-family="Times,serif" font-size="14.00" fill="#000000">UiClipboardDirective</text>
</g>
<!-- UiClipboardModule -->
<g id="node2" class="node">
<title>UiClipboardModule</title>
<polygon fill="#8dd3c7" stroke="#000000" points="312.5408,-187 309.5408,-191 288.5408,-191 285.5408,-187 183.4592,-187 183.4592,-151 312.5408,-151 312.5408,-187"/>
<text text-anchor="middle" x="248" y="-164.8" font-family="Times,serif" font-size="14.00" fill="#000000">UiClipboardModule</text>
</g>
<!-- UiClipboardDirective&#45;&gt;UiClipboardModule -->
<g id="edge1" class="edge">
<title>UiClipboardDirective&#45;&gt;UiClipboardModule</title>
<path fill="none" stroke="#000000" d="M248,-122.1061C248,-122.1061 248,-140.991 248,-140.991"/>
<polygon fill="#000000" stroke="#000000" points="244.5001,-140.9909 248,-150.991 251.5001,-140.991 244.5001,-140.9909"/>
</g>
<!-- UiClipboardDirective  -->
<g id="node3" class="node">
<title>UiClipboardDirective </title>
<polygon fill="#fb8072" stroke="#000000" points="318.5736,-252 177.4264,-252 177.4264,-216 318.5736,-216 318.5736,-252"/>
<text text-anchor="middle" x="248" y="-229.8" font-family="Times,serif" font-size="14.00" fill="#000000">UiClipboardDirective </text>
</g>
<!-- UiClipboardModule&#45;&gt;UiClipboardDirective  -->
<g id="edge2" class="edge">
<title>UiClipboardModule&#45;&gt;UiClipboardDirective </title>
<path fill="none" stroke="#000000" stroke-dasharray="5,2" d="M248,-187.1061C248,-187.1061 248,-205.991 248,-205.991"/>
<polygon fill="#000000" stroke="#000000" points="244.5001,-205.9909 248,-215.991 251.5001,-205.991 244.5001,-205.9909"/>
</g>
</g>
</svg>
