<?xml version="1.0" encoding="UTF-8" standalone="no"?>
<!DOCTYPE svg PUBLIC "-//W3C//DTD SVG 1.1//EN"
 "http://www.w3.org/Graphics/SVG/1.1/DTD/svg11.dtd">
<!-- Generated by graphviz version 2.40.1 (20161225.0304)
 -->
<!-- Title: dependencies Pages: 1 -->
<svg width="504pt" height="284pt"
 viewBox="0.00 0.00 504.00 284.00" xmlns="http://www.w3.org/2000/svg" xmlns:xlink="http://www.w3.org/1999/xlink">
<g id="graph0" class="graph" transform="scale(1 1) rotate(0) translate(4 280)">
<title>dependencies</title>
<polygon fill="#ffffff" stroke="transparent" points="-4,4 -4,-280 500,-280 500,4 -4,4"/>
<text text-anchor="start" x="227.0091" y="-42.4" font-family="sans-serif" font-weight="bold" font-size="14.00" fill="#000000">Legend</text>
<polygon fill="#ffffb3" stroke="transparent" points="14,-10 14,-30 34,-30 34,-10 14,-10"/>
<text text-anchor="start" x="37.629" y="-15.4" font-family="sans-serif" font-size="14.00" fill="#000000"> &#160;Declarations</text>
<polygon fill="#8dd3c7" stroke="transparent" points="127,-10 127,-30 147,-30 147,-10 127,-10"/>
<text text-anchor="start" x="150.7251" y="-15.4" font-family="sans-serif" font-size="14.00" fill="#000000"> &#160;Module</text>
<polygon fill="#80b1d3" stroke="transparent" points="213,-10 213,-30 233,-30 233,-10 213,-10"/>
<text text-anchor="start" x="236.7812" y="-15.4" font-family="sans-serif" font-size="14.00" fill="#000000"> &#160;Bootstrap</text>
<polygon fill="#fdb462" stroke="transparent" points="310,-10 310,-30 330,-30 330,-10 310,-10"/>
<text text-anchor="start" x="333.6732" y="-15.4" font-family="sans-serif" font-size="14.00" fill="#000000"> &#160;Providers</text>
<polygon fill="#fb8072" stroke="transparent" points="406,-10 406,-30 426,-30 426,-10 406,-10"/>
<text text-anchor="start" x="429.7258" y="-15.4" font-family="sans-serif" font-size="14.00" fill="#000000"> &#160;Exports</text>
<g id="clust1" class="cluster">
<title>cluster_UiVirtualScrollRangeLoaderModule</title>
<polygon fill="none" stroke="#000000" stroke-dasharray="1,5" points="115,-70 115,-268 381,-268 381,-70 115,-70"/>
</g>
<g id="clust2" class="cluster">
<title>cluster_UiVirtualScrollRangeLoaderModule_declarations</title>
<polygon fill="none" stroke="#000000" points="125,-78 125,-130 371,-130 371,-78 125,-78"/>
</g>
<g id="clust5" class="cluster">
<title>cluster_UiVirtualScrollRangeLoaderModule_exports</title>
<polygon fill="none" stroke="#000000" points="123,-208 123,-260 373,-260 373,-208 123,-208"/>
</g>
<!-- UiVirtualScrollRangeLoaderDirective -->
<g id="node1" class="node">
<title>UiVirtualScrollRangeLoaderDirective</title>
<polygon fill="#ffffb3" stroke="#000000" points="363.0812,-122 132.9188,-122 132.9188,-86 363.0812,-86 363.0812,-122"/>
<text text-anchor="middle" x="248" y="-99.8" font-family="Times,serif" font-size="14.00" fill="#000000">UiVirtualScrollRangeLoaderDirective</text>
</g>
<!-- UiVirtualScrollRangeLoaderModule -->
<g id="node2" class="node">
<title>UiVirtualScrollRangeLoaderModule</title>
<polygon fill="#8dd3c7" stroke="#000000" points="359.0478,-187 356.0478,-191 335.0478,-191 332.0478,-187 136.9522,-187 136.9522,-151 359.0478,-151 359.0478,-187"/>
<text text-anchor="middle" x="248" y="-164.8" font-family="Times,serif" font-size="14.00" fill="#000000">UiVirtualScrollRangeLoaderModule</text>
</g>
<!-- UiVirtualScrollRangeLoaderDirective&#45;&gt;UiVirtualScrollRangeLoaderModule -->
<g id="edge1" class="edge">
<title>UiVirtualScrollRangeLoaderDirective&#45;&gt;UiVirtualScrollRangeLoaderModule</title>
<path fill="none" stroke="#000000" d="M248,-122.1061C248,-122.1061 248,-140.991 248,-140.991"/>
<polygon fill="#000000" stroke="#000000" points="244.5001,-140.9909 248,-150.991 251.5001,-140.991 244.5001,-140.9909"/>
</g>
<!-- UiVirtualScrollRangeLoaderDirective  -->
<g id="node3" class="node">
<title>UiVirtualScrollRangeLoaderDirective </title>
<polygon fill="#fb8072" stroke="#000000" points="365.0808,-252 130.9192,-252 130.9192,-216 365.0808,-216 365.0808,-252"/>
<text text-anchor="middle" x="248" y="-229.8" font-family="Times,serif" font-size="14.00" fill="#000000">UiVirtualScrollRangeLoaderDirective </text>
</g>
<!-- UiVirtualScrollRangeLoaderModule&#45;&gt;UiVirtualScrollRangeLoaderDirective  -->
<g id="edge2" class="edge">
<title>UiVirtualScrollRangeLoaderModule&#45;&gt;UiVirtualScrollRangeLoaderDirective </title>
<path fill="none" stroke="#000000" stroke-dasharray="5,2" d="M248,-187.1061C248,-187.1061 248,-205.991 248,-205.991"/>
<polygon fill="#000000" stroke="#000000" points="244.5001,-205.9909 248,-215.991 251.5001,-205.991 244.5001,-205.9909"/>
</g>
</g>
</svg>
