<?xml version="1.0" encoding="UTF-8" standalone="no"?>
<!DOCTYPE svg PUBLIC "-//W3C//DTD SVG 1.1//EN"
 "http://www.w3.org/Graphics/SVG/1.1/DTD/svg11.dtd">
<!-- Generated by graphviz version 2.47.3 (20210619.1520)
 -->
<!-- Title: dependencies Pages: 1 -->
<svg width="290pt" height="247pt"
 viewBox="0.00 0.00 290.00 246.80" xmlns="http://www.w3.org/2000/svg" xmlns:xlink="http://www.w3.org/1999/xlink">
<g id="graph0" class="graph" transform="scale(1 1) rotate(0) translate(4 242.8)">
<title>dependencies</title>
<polygon fill="white" stroke="transparent" points="-4,4 -4,-242.8 286,-242.8 286,4 -4,4"/>
<text text-anchor="middle" x="141" y="-8.2" font-family="sans-serif" font-size="14.00">dependencies</text>
<g id="clust1" class="cluster">
<title>cluster_UiVirtualScrollRangeLoaderModule</title>
<polygon fill="none" stroke="black" stroke-dasharray="1,5" points="8,-32.8 8,-230.8 274,-230.8 274,-32.8 8,-32.8"/>
</g>
<g id="clust2" class="cluster">
<title>cluster_UiVirtualScrollRangeLoaderModule_declarations</title>
<polygon fill="none" stroke="black" points="18,-40.8 18,-92.8 264,-92.8 264,-40.8 18,-40.8"/>
</g>
<g id="clust5" class="cluster">
<title>cluster_UiVirtualScrollRangeLoaderModule_exports</title>
<polygon fill="none" stroke="black" points="16,-170.8 16,-222.8 266,-222.8 266,-170.8 16,-170.8"/>
</g>
<!-- UiVirtualScrollRangeLoaderDirective -->
<g id="node1" class="node">
<title>UiVirtualScrollRangeLoaderDirective</title>
<polygon fill="#ffffb3" stroke="black" points="256.08,-84.8 25.92,-84.8 25.92,-48.8 256.08,-48.8 256.08,-84.8"/>
<text text-anchor="middle" x="141" y="-62.6" font-family="Times,serif" font-size="14.00">UiVirtualScrollRangeLoaderDirective</text>
</g>
<!-- UiVirtualScrollRangeLoaderModule -->
<g id="node2" class="node">
<title>UiVirtualScrollRangeLoaderModule</title>
<polygon fill="#8dd3c7" stroke="black" points="252.05,-149.8 249.05,-153.8 228.05,-153.8 225.05,-149.8 29.95,-149.8 29.95,-113.8 252.05,-113.8 252.05,-149.8"/>
<text text-anchor="middle" x="141" y="-127.6" font-family="Times,serif" font-size="14.00">UiVirtualScrollRangeLoaderModule</text>
</g>
<!-- UiVirtualScrollRangeLoaderDirective&#45;&gt;UiVirtualScrollRangeLoaderModule -->
<g id="edge1" class="edge">
<title>UiVirtualScrollRangeLoaderDirective&#45;&gt;UiVirtualScrollRangeLoaderModule</title>
<path fill="none" stroke="black" d="M141,-84.91C141,-84.91 141,-103.79 141,-103.79"/>
<polygon fill="black" stroke="black" points="137.5,-103.79 141,-113.79 144.5,-103.79 137.5,-103.79"/>
</g>
<!-- UiVirtualScrollRangeLoaderDirective  -->
<g id="node3" class="node">
<title>UiVirtualScrollRangeLoaderDirective </title>
<polygon fill="#fb8072" stroke="black" points="258.08,-214.8 23.92,-214.8 23.92,-178.8 258.08,-178.8 258.08,-214.8"/>
<text text-anchor="middle" x="141" y="-192.6" font-family="Times,serif" font-size="14.00">UiVirtualScrollRangeLoaderDirective </text>
</g>
<!-- UiVirtualScrollRangeLoaderModule&#45;&gt;UiVirtualScrollRangeLoaderDirective  -->
<g id="edge2" class="edge">
<title>UiVirtualScrollRangeLoaderModule&#45;&gt;UiVirtualScrollRangeLoaderDirective </title>
<path fill="none" stroke="black" stroke-dasharray="5,2" d="M141,-149.91C141,-149.91 141,-168.79 141,-168.79"/>
<polygon fill="black" stroke="black" points="137.5,-168.79 141,-178.79 144.5,-168.79 137.5,-168.79"/>
</g>
</g>
</svg>
