<?xml version="1.0" encoding="UTF-8" standalone="no"?>
<!DOCTYPE svg PUBLIC "-//W3C//DTD SVG 1.1//EN"
 "http://www.w3.org/Graphics/SVG/1.1/DTD/svg11.dtd">
<!-- Generated by graphviz version 2.47.3 (20210619.1520)
 -->
<!-- Title: dependencies Pages: 1 -->
<svg width="228pt" height="247pt"
 viewBox="0.00 0.00 228.00 246.80" xmlns="http://www.w3.org/2000/svg" xmlns:xlink="http://www.w3.org/1999/xlink">
<g id="graph0" class="graph" transform="scale(1 1) rotate(0) translate(4 242.8)">
<title>dependencies</title>
<polygon fill="white" stroke="transparent" points="-4,4 -4,-242.8 224,-242.8 224,4 -4,4"/>
<text text-anchor="middle" x="110" y="-8.2" font-family="sans-serif" font-size="14.00">dependencies</text>
<g id="clust1" class="cluster">
<title>cluster_UiScrollIntoViewModule</title>
<polygon fill="none" stroke="black" stroke-dasharray="1,5" points="8,-32.8 8,-230.8 212,-230.8 212,-32.8 8,-32.8"/>
</g>
<g id="clust2" class="cluster">
<title>cluster_UiScrollIntoViewModule_declarations</title>
<polygon fill="none" stroke="black" points="18,-40.8 18,-92.8 202,-92.8 202,-40.8 18,-40.8"/>
</g>
<g id="clust5" class="cluster">
<title>cluster_UiScrollIntoViewModule_exports</title>
<polygon fill="none" stroke="black" points="16,-170.8 16,-222.8 204,-222.8 204,-170.8 16,-170.8"/>
</g>
<!-- UiScrollIntoViewDirective -->
<g id="node1" class="node">
<title>UiScrollIntoViewDirective</title>
<polygon fill="#ffffb3" stroke="black" points="194.39,-84.8 25.61,-84.8 25.61,-48.8 194.39,-48.8 194.39,-84.8"/>
<text text-anchor="middle" x="110" y="-62.6" font-family="Times,serif" font-size="14.00">UiScrollIntoViewDirective</text>
</g>
<!-- UiScrollIntoViewModule -->
<g id="node2" class="node">
<title>UiScrollIntoViewModule</title>
<polygon fill="#8dd3c7" stroke="black" points="189.86,-149.8 186.86,-153.8 165.86,-153.8 162.86,-149.8 30.14,-149.8 30.14,-113.8 189.86,-113.8 189.86,-149.8"/>
<text text-anchor="middle" x="110" y="-127.6" font-family="Times,serif" font-size="14.00">UiScrollIntoViewModule</text>
</g>
<!-- UiScrollIntoViewDirective&#45;&gt;UiScrollIntoViewModule -->
<g id="edge1" class="edge">
<title>UiScrollIntoViewDirective&#45;&gt;UiScrollIntoViewModule</title>
<path fill="none" stroke="black" d="M110,-84.91C110,-84.91 110,-103.79 110,-103.79"/>
<polygon fill="black" stroke="black" points="106.5,-103.79 110,-113.79 113.5,-103.79 106.5,-103.79"/>
</g>
<!-- UiScrollIntoViewDirective  -->
<g id="node3" class="node">
<title>UiScrollIntoViewDirective </title>
<polygon fill="#fb8072" stroke="black" points="195.89,-214.8 24.11,-214.8 24.11,-178.8 195.89,-178.8 195.89,-214.8"/>
<text text-anchor="middle" x="110" y="-192.6" font-family="Times,serif" font-size="14.00">UiScrollIntoViewDirective </text>
</g>
<!-- UiScrollIntoViewModule&#45;&gt;UiScrollIntoViewDirective  -->
<g id="edge2" class="edge">
<title>UiScrollIntoViewModule&#45;&gt;UiScrollIntoViewDirective </title>
<path fill="none" stroke="black" stroke-dasharray="5,2" d="M110,-149.91C110,-149.91 110,-168.79 110,-168.79"/>
<polygon fill="black" stroke="black" points="106.5,-168.79 110,-178.79 113.5,-168.79 106.5,-168.79"/>
</g>
</g>
</svg>
