<?xml version="1.0" encoding="UTF-8" standalone="no"?>
<!DOCTYPE svg PUBLIC "-//W3C//DTD SVG 1.1//EN"
 "http://www.w3.org/Graphics/SVG/1.1/DTD/svg11.dtd">
<!-- Generated by graphviz version 2.47.3 (20210619.1520)
 -->
<!-- Title: dependencies Pages: 1 -->
<svg width="304pt" height="247pt"
 viewBox="0.00 0.00 304.00 246.80" xmlns="http://www.w3.org/2000/svg" xmlns:xlink="http://www.w3.org/1999/xlink">
<g id="graph0" class="graph" transform="scale(1 1) rotate(0) translate(4 242.8)">
<title>dependencies</title>
<polygon fill="white" stroke="transparent" points="-4,4 -4,-242.8 300,-242.8 300,4 -4,4"/>
<text text-anchor="middle" x="148" y="-8.2" font-family="sans-serif" font-size="14.00">dependencies</text>
<g id="clust1" class="cluster">
<title>cluster_UiVirtualScrollViewportResizeModule</title>
<polygon fill="none" stroke="black" stroke-dasharray="1,5" points="8,-32.8 8,-230.8 288,-230.8 288,-32.8 8,-32.8"/>
</g>
<g id="clust5" class="cluster">
<title>cluster_UiVirtualScrollViewportResizeModule_exports</title>
<polygon fill="none" stroke="black" points="16,-170.8 16,-222.8 280,-222.8 280,-170.8 16,-170.8"/>
</g>
<g id="clust2" class="cluster">
<title>cluster_UiVirtualScrollViewportResizeModule_declarations</title>
<polygon fill="none" stroke="black" points="17,-40.8 17,-92.8 279,-92.8 279,-40.8 17,-40.8"/>
</g>
<!-- UiVirtualScrollViewportResizeDirective -->
<g id="node1" class="node">
<title>UiVirtualScrollViewportResizeDirective</title>
<polygon fill="#ffffb3" stroke="black" points="270.86,-84.8 25.14,-84.8 25.14,-48.8 270.86,-48.8 270.86,-84.8"/>
<text text-anchor="middle" x="148" y="-62.6" font-family="Times,serif" font-size="14.00">UiVirtualScrollViewportResizeDirective</text>
</g>
<!-- UiVirtualScrollViewportResizeModule -->
<g id="node2" class="node">
<title>UiVirtualScrollViewportResizeModule</title>
<polygon fill="#8dd3c7" stroke="black" points="266.32,-149.8 263.32,-153.8 242.32,-153.8 239.32,-149.8 29.68,-149.8 29.68,-113.8 266.32,-113.8 266.32,-149.8"/>
<text text-anchor="middle" x="148" y="-127.6" font-family="Times,serif" font-size="14.00">UiVirtualScrollViewportResizeModule</text>
</g>
<!-- UiVirtualScrollViewportResizeDirective&#45;&gt;UiVirtualScrollViewportResizeModule -->
<g id="edge1" class="edge">
<title>UiVirtualScrollViewportResizeDirective&#45;&gt;UiVirtualScrollViewportResizeModule</title>
<path fill="none" stroke="black" d="M148,-84.91C148,-84.91 148,-103.79 148,-103.79"/>
<polygon fill="black" stroke="black" points="144.5,-103.79 148,-113.79 151.5,-103.79 144.5,-103.79"/>
</g>
<!-- UiVirtualScrollViewportResizeDirective  -->
<g id="node3" class="node">
<title>UiVirtualScrollViewportResizeDirective </title>
<polygon fill="#fb8072" stroke="black" points="272.36,-214.8 23.64,-214.8 23.64,-178.8 272.36,-178.8 272.36,-214.8"/>
<text text-anchor="middle" x="148" y="-192.6" font-family="Times,serif" font-size="14.00">UiVirtualScrollViewportResizeDirective </text>
</g>
<!-- UiVirtualScrollViewportResizeModule&#45;&gt;UiVirtualScrollViewportResizeDirective  -->
<g id="edge2" class="edge">
<title>UiVirtualScrollViewportResizeModule&#45;&gt;UiVirtualScrollViewportResizeDirective </title>
<path fill="none" stroke="black" stroke-dasharray="5,2" d="M148,-149.91C148,-149.91 148,-168.79 148,-168.79"/>
<polygon fill="black" stroke="black" points="144.5,-168.79 148,-178.79 151.5,-168.79 144.5,-168.79"/>
</g>
</g>
</svg>
