<?xml version="1.0" encoding="UTF-8" standalone="no"?>
<!DOCTYPE svg PUBLIC "-//W3C//DTD SVG 1.1//EN"
 "http://www.w3.org/Graphics/SVG/1.1/DTD/svg11.dtd">
<!-- Generated by graphviz version 2.47.3 (20210619.1520)
 -->
<!-- Title: dependencies Pages: 1 -->
<svg width="3551pt" height="247pt"
 viewBox="0.00 0.00 3551.00 246.80" xmlns="http://www.w3.org/2000/svg" xmlns:xlink="http://www.w3.org/1999/xlink">
<g id="graph0" class="graph" transform="scale(1 1) rotate(0) translate(4 242.8)">
<title>dependencies</title>
<polygon fill="white" stroke="transparent" points="-4,4 -4,-242.8 3547,-242.8 3547,4 -4,4"/>
<text text-anchor="middle" x="1771.5" y="-8.2" font-family="sans-serif" font-size="14.00">dependencies</text>
<g id="clust1" class="cluster">
<title>cluster_UiGridModule</title>
<polygon fill="none" stroke="black" stroke-dasharray="1,5" points="8,-32.8 8,-230.8 3535,-230.8 3535,-32.8 8,-32.8"/>
</g>
<g id="clust15" class="cluster">
<title>cluster_UiGridModule_imports</title>
<polygon fill="none" stroke="black" points="2223,-40.8 2223,-92.8 3527,-92.8 3527,-40.8 2223,-40.8"/>
</g>
<g id="clust16" class="cluster">
<title>cluster_UiGridModule_exports</title>
<polygon fill="none" stroke="black" points="669,-170.8 669,-222.8 2911,-222.8 2911,-170.8 669,-170.8"/>
</g>
<g id="clust2" class="cluster">
<title>cluster_UiGridModule_declarations</title>
<polygon fill="none" stroke="black" points="16,-40.8 16,-92.8 2215,-92.8 2215,-40.8 16,-40.8"/>
</g>
<!-- UiGridColumnDirective -->
<g id="node1" class="node">
<title>UiGridColumnDirective</title>
<polygon fill="#ffffb3" stroke="black" points="2207.36,-84.8 2054.64,-84.8 2054.64,-48.8 2207.36,-48.8 2207.36,-84.8"/>
<text text-anchor="middle" x="2131" y="-62.6" font-family="Times,serif" font-size="14.00">UiGridColumnDirective</text>
</g>
<!-- UiGridModule -->
<g id="node13" class="node">
<title>UiGridModule</title>
<polygon fill="#8dd3c7" stroke="black" points="1848.71,-149.8 1845.71,-153.8 1824.71,-153.8 1821.71,-149.8 1749.29,-149.8 1749.29,-113.8 1848.71,-113.8 1848.71,-149.8"/>
<text text-anchor="middle" x="1799" y="-127.6" font-family="Times,serif" font-size="14.00">UiGridModule</text>
</g>
<!-- UiGridColumnDirective&#45;&gt;UiGridModule -->
<g id="edge1" class="edge">
<title>UiGridColumnDirective&#45;&gt;UiGridModule</title>
<path fill="none" stroke="black" d="M2104.73,-84.99C2104.73,-99.98 2104.73,-118.8 2104.73,-118.8 2104.73,-118.8 1858.8,-118.8 1858.8,-118.8"/>
<polygon fill="black" stroke="black" points="1858.8,-115.3 1848.8,-118.8 1858.8,-122.3 1858.8,-115.3"/>
</g>
<!-- UiGridComponent -->
<g id="node2" class="node">
<title>UiGridComponent</title>
<polygon fill="#ffffb3" stroke="black" points="2036.49,-84.8 1915.51,-84.8 1915.51,-48.8 2036.49,-48.8 2036.49,-84.8"/>
<text text-anchor="middle" x="1976" y="-62.6" font-family="Times,serif" font-size="14.00">UiGridComponent</text>
</g>
<!-- UiGridComponent&#45;&gt;UiGridModule -->
<g id="edge2" class="edge">
<title>UiGridComponent&#45;&gt;UiGridModule</title>
<path fill="none" stroke="black" d="M1952.19,-84.85C1952.19,-99.17 1952.19,-116.8 1952.19,-116.8 1952.19,-116.8 1858.74,-116.8 1858.74,-116.8"/>
<polygon fill="black" stroke="black" points="1858.74,-113.3 1848.74,-116.8 1858.74,-120.3 1858.74,-113.3"/>
</g>
<!-- UiGridDropdownFilterDirective -->
<g id="node3" class="node">
<title>UiGridDropdownFilterDirective</title>
<polygon fill="#ffffb3" stroke="black" points="1897.94,-84.8 1700.06,-84.8 1700.06,-48.8 1897.94,-48.8 1897.94,-84.8"/>
<text text-anchor="middle" x="1799" y="-62.6" font-family="Times,serif" font-size="14.00">UiGridDropdownFilterDirective</text>
</g>
<!-- UiGridDropdownFilterDirective&#45;&gt;UiGridModule -->
<g id="edge3" class="edge">
<title>UiGridDropdownFilterDirective&#45;&gt;UiGridModule</title>
<path fill="none" stroke="black" d="M1799,-84.91C1799,-84.91 1799,-103.79 1799,-103.79"/>
<polygon fill="black" stroke="black" points="1795.5,-103.79 1799,-113.79 1802.5,-103.79 1795.5,-103.79"/>
</g>
<!-- UiGridExpandedRowDirective -->
<g id="node4" class="node">
<title>UiGridExpandedRowDirective</title>
<polygon fill="#ffffb3" stroke="black" points="1682.16,-84.8 1491.84,-84.8 1491.84,-48.8 1682.16,-48.8 1682.16,-84.8"/>
<text text-anchor="middle" x="1587" y="-62.6" font-family="Times,serif" font-size="14.00">UiGridExpandedRowDirective</text>
</g>
<!-- UiGridExpandedRowDirective&#45;&gt;UiGridModule -->
<g id="edge4" class="edge">
<title>UiGridExpandedRowDirective&#45;&gt;UiGridModule</title>
<path fill="none" stroke="black" d="M1655.63,-84.85C1655.63,-99.17 1655.63,-116.8 1655.63,-116.8 1655.63,-116.8 1739.26,-116.8 1739.26,-116.8"/>
<polygon fill="black" stroke="black" points="1739.26,-120.3 1749.26,-116.8 1739.26,-113.3 1739.26,-120.3"/>
</g>
<!-- UiGridFooterDirective -->
<g id="node5" class="node">
<title>UiGridFooterDirective</title>
<polygon fill="#ffffb3" stroke="black" points="1474.29,-84.8 1329.71,-84.8 1329.71,-48.8 1474.29,-48.8 1474.29,-84.8"/>
<text text-anchor="middle" x="1402" y="-62.6" font-family="Times,serif" font-size="14.00">UiGridFooterDirective</text>
</g>
<!-- UiGridFooterDirective&#45;&gt;UiGridModule -->
<g id="edge5" class="edge">
<title>UiGridFooterDirective&#45;&gt;UiGridModule</title>
<path fill="none" stroke="black" d="M1463.6,-84.99C1463.6,-99.98 1463.6,-118.8 1463.6,-118.8 1463.6,-118.8 1739.15,-118.8 1739.15,-118.8"/>
<polygon fill="black" stroke="black" points="1739.15,-122.3 1749.15,-118.8 1739.15,-115.3 1739.15,-122.3"/>
</g>
<!-- UiGridHeaderButtonDirective -->
<g id="node6" class="node">
<title>UiGridHeaderButtonDirective</title>
<polygon fill="#ffffb3" stroke="black" points="1312.27,-84.8 1125.73,-84.8 1125.73,-48.8 1312.27,-48.8 1312.27,-84.8"/>
<text text-anchor="middle" x="1219" y="-62.6" font-family="Times,serif" font-size="14.00">UiGridHeaderButtonDirective</text>
</g>
<!-- UiGridHeaderButtonDirective&#45;&gt;UiGridModule -->
<g id="edge6" class="edge">
<title>UiGridHeaderButtonDirective&#45;&gt;UiGridModule</title>
<path fill="none" stroke="black" d="M1287.4,-84.81C1287.4,-100.85 1287.4,-121.8 1287.4,-121.8 1287.4,-121.8 1739.01,-121.8 1739.01,-121.8"/>
<polygon fill="black" stroke="black" points="1739.01,-125.3 1749.01,-121.8 1739.01,-118.3 1739.01,-125.3"/>
</g>
<!-- UiGridHeaderDirective -->
<g id="node7" class="node">
<title>UiGridHeaderDirective</title>
<polygon fill="#ffffb3" stroke="black" points="1108.15,-84.8 959.85,-84.8 959.85,-48.8 1108.15,-48.8 1108.15,-84.8"/>
<text text-anchor="middle" x="1034" y="-62.6" font-family="Times,serif" font-size="14.00">UiGridHeaderDirective</text>
</g>
<!-- UiGridHeaderDirective&#45;&gt;UiGridModule -->
<g id="edge7" class="edge">
<title>UiGridHeaderDirective&#45;&gt;UiGridModule</title>
<path fill="none" stroke="black" d="M1088.59,-84.84C1088.59,-101.53 1088.59,-123.8 1088.59,-123.8 1088.59,-123.8 1739.33,-123.8 1739.33,-123.8"/>
<polygon fill="black" stroke="black" points="1739.33,-127.3 1749.33,-123.8 1739.33,-120.3 1739.33,-127.3"/>
</g>
<!-- UiGridLoadingDirective -->
<g id="node8" class="node">
<title>UiGridLoadingDirective</title>
<polygon fill="#ffffb3" stroke="black" points="942.4,-84.8 787.6,-84.8 787.6,-48.8 942.4,-48.8 942.4,-84.8"/>
<text text-anchor="middle" x="865" y="-62.6" font-family="Times,serif" font-size="14.00">UiGridLoadingDirective</text>
</g>
<!-- UiGridLoadingDirective&#45;&gt;UiGridModule -->
<g id="edge8" class="edge">
<title>UiGridLoadingDirective&#45;&gt;UiGridModule</title>
<path fill="none" stroke="black" d="M908.46,-84.82C908.46,-102.17 908.46,-125.8 908.46,-125.8 908.46,-125.8 1739.21,-125.8 1739.21,-125.8"/>
<polygon fill="black" stroke="black" points="1739.21,-129.3 1749.21,-125.8 1739.21,-122.3 1739.21,-129.3"/>
</g>
<!-- UiGridNoContentDirective -->
<g id="node9" class="node">
<title>UiGridNoContentDirective</title>
<polygon fill="#ffffb3" stroke="black" points="769.68,-84.8 600.32,-84.8 600.32,-48.8 769.68,-48.8 769.68,-84.8"/>
<text text-anchor="middle" x="685" y="-62.6" font-family="Times,serif" font-size="14.00">UiGridNoContentDirective</text>
</g>
<!-- UiGridNoContentDirective&#45;&gt;UiGridModule -->
<g id="edge9" class="edge">
<title>UiGridNoContentDirective&#45;&gt;UiGridModule</title>
<path fill="none" stroke="black" d="M723.38,-85.07C723.38,-103.36 723.38,-128.8 723.38,-128.8 723.38,-128.8 1739.28,-128.8 1739.28,-128.8"/>
<polygon fill="black" stroke="black" points="1739.28,-132.3 1749.28,-128.8 1739.28,-125.3 1739.28,-132.3"/>
</g>
<!-- UiGridRowActionDirective -->
<g id="node10" class="node">
<title>UiGridRowActionDirective</title>
<polygon fill="#ffffb3" stroke="black" points="582.28,-84.8 409.72,-84.8 409.72,-48.8 582.28,-48.8 582.28,-84.8"/>
<text text-anchor="middle" x="496" y="-62.6" font-family="Times,serif" font-size="14.00">UiGridRowActionDirective</text>
</g>
<!-- UiGridRowActionDirective&#45;&gt;UiGridModule -->
<g id="edge10" class="edge">
<title>UiGridRowActionDirective&#45;&gt;UiGridModule</title>
<path fill="none" stroke="black" d="M496,-84.97C496,-103.89 496,-130.8 496,-130.8 496,-130.8 1739.12,-130.8 1739.12,-130.8"/>
<polygon fill="black" stroke="black" points="1739.12,-134.3 1749.12,-130.8 1739.12,-127.3 1739.12,-134.3"/>
</g>
<!-- UiGridRowConfigDirective -->
<g id="node11" class="node">
<title>UiGridRowConfigDirective</title>
<polygon fill="#ffffb3" stroke="black" points="391.57,-84.8 218.43,-84.8 218.43,-48.8 391.57,-48.8 391.57,-84.8"/>
<text text-anchor="middle" x="305" y="-62.6" font-family="Times,serif" font-size="14.00">UiGridRowConfigDirective</text>
</g>
<!-- UiGridRowConfigDirective&#45;&gt;UiGridModule -->
<g id="edge11" class="edge">
<title>UiGridRowConfigDirective&#45;&gt;UiGridModule</title>
<path fill="none" stroke="black" d="M305,-85.11C305,-104.95 305,-133.8 305,-133.8 305,-133.8 1739.29,-133.8 1739.29,-133.8"/>
<polygon fill="black" stroke="black" points="1739.29,-137.3 1749.29,-133.8 1739.29,-130.3 1739.29,-137.3"/>
</g>
<!-- UiGridSearchFilterDirective -->
<g id="node12" class="node">
<title>UiGridSearchFilterDirective</title>
<polygon fill="#ffffb3" stroke="black" points="200.15,-84.8 23.85,-84.8 23.85,-48.8 200.15,-48.8 200.15,-84.8"/>
<text text-anchor="middle" x="112" y="-62.6" font-family="Times,serif" font-size="14.00">UiGridSearchFilterDirective</text>
</g>
<!-- UiGridSearchFilterDirective&#45;&gt;UiGridModule -->
<g id="edge12" class="edge">
<title>UiGridSearchFilterDirective&#45;&gt;UiGridModule</title>
<path fill="none" stroke="black" d="M112,-84.93C112,-105.37 112,-135.8 112,-135.8 112,-135.8 1738.97,-135.8 1738.97,-135.8"/>
<polygon fill="black" stroke="black" points="1738.97,-139.3 1748.97,-135.8 1738.97,-132.3 1738.97,-139.3"/>
</g>
<!-- UiGridColumnDirective  -->
<g id="node21" class="node">
<title>UiGridColumnDirective </title>
<polygon fill="#fb8072" stroke="black" points="2903.36,-214.8 2746.64,-214.8 2746.64,-178.8 2903.36,-178.8 2903.36,-214.8"/>
<text text-anchor="middle" x="2825" y="-192.6" font-family="Times,serif" font-size="14.00">UiGridColumnDirective </text>
</g>
<!-- UiGridModule&#45;&gt;UiGridColumnDirective  -->
<g id="edge20" class="edge">
<title>UiGridModule&#45;&gt;UiGridColumnDirective </title>
<path fill="none" stroke="black" stroke-dasharray="5,2" d="M1848.71,-137.8C2057.34,-137.8 2851.55,-137.8 2851.55,-137.8 2851.55,-137.8 2851.55,-168.78 2851.55,-168.78"/>
<polygon fill="black" stroke="black" points="2848.05,-168.78 2851.55,-178.78 2855.05,-168.78 2848.05,-168.78"/>
</g>
<!-- UiGridComponent  -->
<g id="node22" class="node">
<title>UiGridComponent </title>
<polygon fill="#fb8072" stroke="black" points="2729.49,-214.8 2604.51,-214.8 2604.51,-178.8 2729.49,-178.8 2729.49,-214.8"/>
<text text-anchor="middle" x="2667" y="-192.6" font-family="Times,serif" font-size="14.00">UiGridComponent </text>
</g>
<!-- UiGridModule&#45;&gt;UiGridComponent  -->
<g id="edge21" class="edge">
<title>UiGridModule&#45;&gt;UiGridComponent </title>
<path fill="none" stroke="black" stroke-dasharray="5,2" d="M1848.7,-140.8C2025.44,-140.8 2613.05,-140.8 2613.05,-140.8 2613.05,-140.8 2613.05,-168.77 2613.05,-168.77"/>
<polygon fill="black" stroke="black" points="2609.55,-168.77 2613.05,-178.77 2616.55,-168.77 2609.55,-168.77"/>
</g>
<!-- UiGridDropdownFilterDirective  -->
<g id="node23" class="node">
<title>UiGridDropdownFilterDirective </title>
<polygon fill="#fb8072" stroke="black" points="2586.94,-214.8 2385.06,-214.8 2385.06,-178.8 2586.94,-178.8 2586.94,-214.8"/>
<text text-anchor="middle" x="2486" y="-192.6" font-family="Times,serif" font-size="14.00">UiGridDropdownFilterDirective </text>
</g>
<!-- UiGridModule&#45;&gt;UiGridDropdownFilterDirective  -->
<g id="edge22" class="edge">
<title>UiGridModule&#45;&gt;UiGridDropdownFilterDirective </title>
<path fill="none" stroke="black" stroke-dasharray="5,2" d="M1848.75,-142.8C1997.13,-142.8 2426.35,-142.8 2426.35,-142.8 2426.35,-142.8 2426.35,-168.52 2426.35,-168.52"/>
<polygon fill="black" stroke="black" points="2422.85,-168.52 2426.35,-178.52 2429.85,-168.52 2422.85,-168.52"/>
</g>
<!-- UiGridExpandedRowDirective  -->
<g id="node24" class="node">
<title>UiGridExpandedRowDirective </title>
<polygon fill="#fb8072" stroke="black" points="2366.66,-214.8 2173.34,-214.8 2173.34,-178.8 2366.66,-178.8 2366.66,-214.8"/>
<text text-anchor="middle" x="2270" y="-192.6" font-family="Times,serif" font-size="14.00">UiGridExpandedRowDirective </text>
</g>
<!-- UiGridModule&#45;&gt;UiGridExpandedRowDirective  -->
<g id="edge23" class="edge">
<title>UiGridModule&#45;&gt;UiGridExpandedRowDirective </title>
<path fill="none" stroke="black" stroke-dasharray="5,2" d="M1848.96,-145.8C1954.44,-145.8 2190.3,-145.8 2190.3,-145.8 2190.3,-145.8 2190.3,-168.68 2190.3,-168.68"/>
<polygon fill="black" stroke="black" points="2186.8,-168.68 2190.3,-178.68 2193.8,-168.68 2186.8,-168.68"/>
</g>
<!-- UiGridFooterDirective  -->
<g id="node25" class="node">
<title>UiGridFooterDirective </title>
<polygon fill="#fb8072" stroke="black" points="2154.79,-214.8 2007.21,-214.8 2007.21,-178.8 2154.79,-178.8 2154.79,-214.8"/>
<text text-anchor="middle" x="2081" y="-192.6" font-family="Times,serif" font-size="14.00">UiGridFooterDirective </text>
</g>
<!-- UiGridModule&#45;&gt;UiGridFooterDirective  -->
<g id="edge24" class="edge">
<title>UiGridModule&#45;&gt;UiGridFooterDirective </title>
<path fill="none" stroke="black" stroke-dasharray="5,2" d="M1848.72,-147.8C1914.39,-147.8 2021.8,-147.8 2021.8,-147.8 2021.8,-147.8 2021.8,-168.55 2021.8,-168.55"/>
<polygon fill="black" stroke="black" points="2018.3,-168.55 2021.8,-178.55 2025.3,-168.55 2018.3,-168.55"/>
</g>
<!-- UiGridHeaderButtonDirective  -->
<g id="node26" class="node">
<title>UiGridHeaderButtonDirective </title>
<polygon fill="#fb8072" stroke="black" points="1988.77,-214.8 1799.23,-214.8 1799.23,-178.8 1988.77,-178.8 1988.77,-214.8"/>
<text text-anchor="middle" x="1894" y="-192.6" font-family="Times,serif" font-size="14.00">UiGridHeaderButtonDirective </text>
</g>
<!-- UiGridModule&#45;&gt;UiGridHeaderButtonDirective  -->
<g id="edge25" class="edge">
<title>UiGridModule&#45;&gt;UiGridHeaderButtonDirective </title>
<path fill="none" stroke="black" stroke-dasharray="5,2" d="M1823.86,-149.91C1823.86,-149.91 1823.86,-168.79 1823.86,-168.79"/>
<polygon fill="black" stroke="black" points="1820.36,-168.79 1823.86,-178.79 1827.36,-168.79 1820.36,-168.79"/>
</g>
<!-- UiGridHeaderDirective  -->
<g id="node27" class="node">
<title>UiGridHeaderDirective </title>
<polygon fill="#fb8072" stroke="black" points="1780.65,-214.8 1629.35,-214.8 1629.35,-178.8 1780.65,-178.8 1780.65,-214.8"/>
<text text-anchor="middle" x="1705" y="-192.6" font-family="Times,serif" font-size="14.00">UiGridHeaderDirective </text>
</g>
<!-- UiGridModule&#45;&gt;UiGridHeaderDirective  -->
<g id="edge26" class="edge">
<title>UiGridModule&#45;&gt;UiGridHeaderDirective </title>
<path fill="none" stroke="black" stroke-dasharray="5,2" d="M1765.11,-149.91C1765.11,-149.91 1765.11,-168.79 1765.11,-168.79"/>
<polygon fill="black" stroke="black" points="1761.61,-168.79 1765.11,-178.79 1768.61,-168.79 1761.61,-168.79"/>
</g>
<!-- UiGridLoadingDirective  -->
<g id="node28" class="node">
<title>UiGridLoadingDirective </title>
<polygon fill="#fb8072" stroke="black" points="1610.9,-214.8 1453.1,-214.8 1453.1,-178.8 1610.9,-178.8 1610.9,-214.8"/>
<text text-anchor="middle" x="1532" y="-192.6" font-family="Times,serif" font-size="14.00">UiGridLoadingDirective </text>
</g>
<!-- UiGridModule&#45;&gt;UiGridLoadingDirective  -->
<g id="edge27" class="edge">
<title>UiGridModule&#45;&gt;UiGridLoadingDirective </title>
<path fill="none" stroke="black" stroke-dasharray="5,2" d="M1749.2,-147.8C1676.91,-147.8 1551.43,-147.8 1551.43,-147.8 1551.43,-147.8 1551.43,-168.55 1551.43,-168.55"/>
<polygon fill="black" stroke="black" points="1547.93,-168.55 1551.43,-178.55 1554.93,-168.55 1547.93,-168.55"/>
</g>
<!-- UiGridNoContentDirective  -->
<g id="node29" class="node">
<title>UiGridNoContentDirective </title>
<polygon fill="#fb8072" stroke="black" points="1435.18,-214.8 1262.82,-214.8 1262.82,-178.8 1435.18,-178.8 1435.18,-214.8"/>
<text text-anchor="middle" x="1349" y="-192.6" font-family="Times,serif" font-size="14.00">UiGridNoContentDirective </text>
</g>
<!-- UiGridModule&#45;&gt;UiGridNoContentDirective  -->
<g id="edge28" class="edge">
<title>UiGridModule&#45;&gt;UiGridNoContentDirective </title>
<path fill="none" stroke="black" stroke-dasharray="5,2" d="M1749.19,-145.8C1638.66,-145.8 1382.6,-145.8 1382.6,-145.8 1382.6,-145.8 1382.6,-168.68 1382.6,-168.68"/>
<polygon fill="black" stroke="black" points="1379.1,-168.68 1382.6,-178.68 1386.1,-168.68 1379.1,-168.68"/>
</g>
<!-- UiGridRowActionDirective  -->
<g id="node30" class="node">
<title>UiGridRowActionDirective </title>
<polygon fill="#fb8072" stroke="black" points="1244.78,-214.8 1069.22,-214.8 1069.22,-178.8 1244.78,-178.8 1244.78,-214.8"/>
<text text-anchor="middle" x="1157" y="-192.6" font-family="Times,serif" font-size="14.00">UiGridRowActionDirective </text>
</g>
<!-- UiGridModule&#45;&gt;UiGridRowActionDirective  -->
<g id="edge29" class="edge">
<title>UiGridModule&#45;&gt;UiGridRowActionDirective </title>
<path fill="none" stroke="black" stroke-dasharray="5,2" d="M1749.3,-142.8C1603.22,-142.8 1185.38,-142.8 1185.38,-142.8 1185.38,-142.8 1185.38,-168.52 1185.38,-168.52"/>
<polygon fill="black" stroke="black" points="1181.88,-168.52 1185.38,-178.52 1188.88,-168.52 1181.88,-168.52"/>
</g>
<!-- UiGridRowConfigDirective  -->
<g id="node31" class="node">
<title>UiGridRowConfigDirective </title>
<polygon fill="#fb8072" stroke="black" points="1051.07,-214.8 874.93,-214.8 874.93,-178.8 1051.07,-178.8 1051.07,-214.8"/>
<text text-anchor="middle" x="963" y="-192.6" font-family="Times,serif" font-size="14.00">UiGridRowConfigDirective </text>
</g>
<!-- UiGridModule&#45;&gt;UiGridRowConfigDirective  -->
<g id="edge30" class="edge">
<title>UiGridModule&#45;&gt;UiGridRowConfigDirective </title>
<path fill="none" stroke="black" stroke-dasharray="5,2" d="M1749.37,-140.8C1575.68,-140.8 1005.61,-140.8 1005.61,-140.8 1005.61,-140.8 1005.61,-168.77 1005.61,-168.77"/>
<polygon fill="black" stroke="black" points="1002.11,-168.77 1005.61,-178.77 1009.11,-168.77 1002.11,-168.77"/>
</g>
<!-- UiGridSearchFilterDirective  -->
<g id="node32" class="node">
<title>UiGridSearchFilterDirective </title>
<polygon fill="#fb8072" stroke="black" points="856.65,-214.8 677.35,-214.8 677.35,-178.8 856.65,-178.8 856.65,-214.8"/>
<text text-anchor="middle" x="767" y="-192.6" font-family="Times,serif" font-size="14.00">UiGridSearchFilterDirective </text>
</g>
<!-- UiGridModule&#45;&gt;UiGridSearchFilterDirective  -->
<g id="edge31" class="edge">
<title>UiGridModule&#45;&gt;UiGridSearchFilterDirective </title>
<path fill="none" stroke="black" stroke-dasharray="5,2" d="M1749.22,-137.8C1550.19,-137.8 822.31,-137.8 822.31,-137.8 822.31,-137.8 822.31,-168.78 822.31,-168.78"/>
<polygon fill="black" stroke="black" points="818.81,-168.78 822.31,-178.78 825.81,-168.78 818.81,-168.78"/>
</g>
<!-- UiAutoAccessibleLabelModule -->
<g id="node14" class="node">
<title>UiAutoAccessibleLabelModule</title>
<polygon fill="#8dd3c7" stroke="black" points="3519.05,-84.8 3516.05,-88.8 3495.05,-88.8 3492.05,-84.8 3324.95,-84.8 3324.95,-48.8 3519.05,-48.8 3519.05,-84.8"/>
<text text-anchor="middle" x="3422" y="-62.6" font-family="Times,serif" font-size="14.00">UiAutoAccessibleLabelModule</text>
</g>
<!-- UiAutoAccessibleLabelModule&#45;&gt;UiGridModule -->
<g id="edge13" class="edge">
<title>UiAutoAccessibleLabelModule&#45;&gt;UiGridModule</title>
<path fill="none" stroke="black" d="M3422,-84.93C3422,-105.37 3422,-135.8 3422,-135.8 3422,-135.8 1858.91,-135.8 1858.91,-135.8"/>
<polygon fill="black" stroke="black" points="1858.91,-132.3 1848.91,-135.8 1858.91,-139.3 1858.91,-132.3"/>
</g>
<!-- UiGridCustomPaginatorModule -->
<g id="node15" class="node">
<title>UiGridCustomPaginatorModule</title>
<polygon fill="#8dd3c7" stroke="black" points="3307.42,-84.8 3304.42,-88.8 3283.42,-88.8 3280.42,-84.8 3110.58,-84.8 3110.58,-48.8 3307.42,-48.8 3307.42,-84.8"/>
<text text-anchor="middle" x="3209" y="-62.6" font-family="Times,serif" font-size="14.00">UiGridCustomPaginatorModule</text>
</g>
<!-- UiGridCustomPaginatorModule&#45;&gt;UiGridModule -->
<g id="edge14" class="edge">
<title>UiGridCustomPaginatorModule&#45;&gt;UiGridModule</title>
<path fill="none" stroke="black" d="M3209,-85.11C3209,-104.95 3209,-133.8 3209,-133.8 3209,-133.8 1858.77,-133.8 1858.77,-133.8"/>
<polygon fill="black" stroke="black" points="1858.77,-130.3 1848.77,-133.8 1858.77,-137.3 1858.77,-130.3"/>
</g>
<!-- UiGridSearchModule -->
<g id="node16" class="node">
<title>UiGridSearchModule</title>
<polygon fill="#8dd3c7" stroke="black" points="3092.79,-84.8 3089.79,-88.8 3068.79,-88.8 3065.79,-84.8 2955.21,-84.8 2955.21,-48.8 3092.79,-48.8 3092.79,-84.8"/>
<text text-anchor="middle" x="3024" y="-62.6" font-family="Times,serif" font-size="14.00">UiGridSearchModule</text>
</g>
<!-- UiGridSearchModule&#45;&gt;UiGridModule -->
<g id="edge15" class="edge">
<title>UiGridSearchModule&#45;&gt;UiGridModule</title>
<path fill="none" stroke="black" d="M3024,-84.97C3024,-103.89 3024,-130.8 3024,-130.8 3024,-130.8 1858.92,-130.8 1858.92,-130.8"/>
<polygon fill="black" stroke="black" points="1858.92,-127.3 1848.92,-130.8 1858.92,-134.3 1858.92,-127.3"/>
</g>
<!-- UiGridToggleColumnsModule -->
<g id="node17" class="node">
<title>UiGridToggleColumnsModule</title>
<polygon fill="#8dd3c7" stroke="black" points="2937.93,-84.8 2934.93,-88.8 2913.93,-88.8 2910.93,-84.8 2748.07,-84.8 2748.07,-48.8 2937.93,-48.8 2937.93,-84.8"/>
<text text-anchor="middle" x="2843" y="-62.6" font-family="Times,serif" font-size="14.00">UiGridToggleColumnsModule</text>
</g>
<!-- UiGridToggleColumnsModule&#45;&gt;UiGridModule -->
<g id="edge16" class="edge">
<title>UiGridToggleColumnsModule&#45;&gt;UiGridModule</title>
<path fill="none" stroke="black" d="M2799.92,-85.07C2799.92,-103.36 2799.92,-128.8 2799.92,-128.8 2799.92,-128.8 1858.64,-128.8 1858.64,-128.8"/>
<polygon fill="black" stroke="black" points="1858.64,-125.3 1848.64,-128.8 1858.64,-132.3 1858.64,-125.3"/>
</g>
<!-- UiNgLetModule -->
<g id="node18" class="node">
<title>UiNgLetModule</title>
<polygon fill="#8dd3c7" stroke="black" points="2730.81,-84.8 2727.81,-88.8 2706.81,-88.8 2703.81,-84.8 2621.19,-84.8 2621.19,-48.8 2730.81,-48.8 2730.81,-84.8"/>
<text text-anchor="middle" x="2676" y="-62.6" font-family="Times,serif" font-size="14.00">UiNgLetModule</text>
</g>
<!-- UiNgLetModule&#45;&gt;UiGridModule -->
<g id="edge17" class="edge">
<title>UiNgLetModule&#45;&gt;UiGridModule</title>
<path fill="none" stroke="black" d="M2675.29,-84.82C2675.29,-102.17 2675.29,-125.8 2675.29,-125.8 2675.29,-125.8 1858.62,-125.8 1858.62,-125.8"/>
<polygon fill="black" stroke="black" points="1858.62,-122.3 1848.62,-125.8 1858.62,-129.3 1858.62,-122.3"/>
</g>
<!-- UiSuggestModule -->
<g id="node19" class="node">
<title>UiSuggestModule</title>
<polygon fill="#8dd3c7" stroke="black" points="2602.88,-84.8 2599.88,-88.8 2578.88,-88.8 2575.88,-84.8 2485.12,-84.8 2485.12,-48.8 2602.88,-48.8 2602.88,-84.8"/>
<text text-anchor="middle" x="2544" y="-62.6" font-family="Times,serif" font-size="14.00">UiSuggestModule</text>
</g>
<!-- UiSuggestModule&#45;&gt;UiGridModule -->
<g id="edge18" class="edge">
<title>UiSuggestModule&#45;&gt;UiGridModule</title>
<path fill="none" stroke="black" d="M2535.89,-84.84C2535.89,-101.53 2535.89,-123.8 2535.89,-123.8 2535.89,-123.8 1858.78,-123.8 1858.78,-123.8"/>
<polygon fill="black" stroke="black" points="1858.78,-120.3 1848.78,-123.8 1858.78,-127.3 1858.78,-120.3"/>
</g>
<!-- UiVirtualScrollViewportResizeModule -->
<g id="node20" class="node">
<title>UiVirtualScrollViewportResizeModule</title>
<polygon fill="#8dd3c7" stroke="black" points="2467.32,-84.8 2464.32,-88.8 2443.32,-88.8 2440.32,-84.8 2230.68,-84.8 2230.68,-48.8 2467.32,-48.8 2467.32,-84.8"/>
<text text-anchor="middle" x="2349" y="-62.6" font-family="Times,serif" font-size="14.00">UiVirtualScrollViewportResizeModule</text>
</g>
<!-- UiVirtualScrollViewportResizeModule&#45;&gt;UiGridModule -->
<g id="edge19" class="edge">
<title>UiVirtualScrollViewportResizeModule&#45;&gt;UiGridModule</title>
<path fill="none" stroke="black" d="M2298.71,-84.81C2298.71,-100.85 2298.71,-121.8 2298.71,-121.8 2298.71,-121.8 1858.74,-121.8 1858.74,-121.8"/>
<polygon fill="black" stroke="black" points="1858.74,-118.3 1848.74,-121.8 1858.74,-125.3 1858.74,-118.3"/>
</g>
</g>
</svg>
