<?xml version="1.0" encoding="UTF-8" standalone="no"?>
<!DOCTYPE svg PUBLIC "-//W3C//DTD SVG 1.1//EN"
 "http://www.w3.org/Graphics/SVG/1.1/DTD/svg11.dtd">
<!-- Generated by graphviz version 2.40.1 (20161225.0304)
 -->
<!-- Title: dependencies Pages: 1 -->
<svg width="2850pt" height="284pt"
 viewBox="0.00 0.00 2850.00 284.00" xmlns="http://www.w3.org/2000/svg" xmlns:xlink="http://www.w3.org/1999/xlink">
<g id="graph0" class="graph" transform="scale(1 1) rotate(0) translate(4 280)">
<title>dependencies</title>
<polygon fill="#ffffff" stroke="transparent" points="-4,4 -4,-280 2846,-280 2846,4 -4,4"/>
<text text-anchor="start" x="1400.0091" y="-42.4" font-family="sans-serif" font-weight="bold" font-size="14.00" fill="#000000">Legend</text>
<polygon fill="#ffffb3" stroke="transparent" points="1187,-10 1187,-30 1207,-30 1207,-10 1187,-10"/>
<text text-anchor="start" x="1210.629" y="-15.4" font-family="sans-serif" font-size="14.00" fill="#000000"> &#160;Declarations</text>
<polygon fill="#8dd3c7" stroke="transparent" points="1300,-10 1300,-30 1320,-30 1320,-10 1300,-10"/>
<text text-anchor="start" x="1323.7251" y="-15.4" font-family="sans-serif" font-size="14.00" fill="#000000"> &#160;Module</text>
<polygon fill="#80b1d3" stroke="transparent" points="1386,-10 1386,-30 1406,-30 1406,-10 1386,-10"/>
<text text-anchor="start" x="1409.7812" y="-15.4" font-family="sans-serif" font-size="14.00" fill="#000000"> &#160;Bootstrap</text>
<polygon fill="#fdb462" stroke="transparent" points="1483,-10 1483,-30 1503,-30 1503,-10 1483,-10"/>
<text text-anchor="start" x="1506.6732" y="-15.4" font-family="sans-serif" font-size="14.00" fill="#000000"> &#160;Providers</text>
<polygon fill="#fb8072" stroke="transparent" points="1579,-10 1579,-30 1599,-30 1599,-10 1579,-10"/>
<text text-anchor="start" x="1602.7258" y="-15.4" font-family="sans-serif" font-size="14.00" fill="#000000"> &#160;Exports</text>
<g id="clust1" class="cluster">
<title>cluster_UiGridModule</title>
<polygon fill="none" stroke="#000000" stroke-dasharray="1,5" points="8,-70 8,-268 2834,-268 2834,-70 8,-70"/>
</g>
<g id="clust2" class="cluster">
<title>cluster_UiGridModule_declarations</title>
<polygon fill="none" stroke="#000000" points="987,-78 987,-130 2826,-130 2826,-78 987,-78"/>
</g>
<g id="clust13" class="cluster">
<title>cluster_UiGridModule_imports</title>
<polygon fill="none" stroke="#000000" points="16,-78 16,-130 979,-130 979,-78 16,-78"/>
</g>
<g id="clust14" class="cluster">
<title>cluster_UiGridModule_exports</title>
<polygon fill="none" stroke="#000000" points="515,-208 515,-260 2391,-260 2391,-208 515,-208"/>
</g>
<!-- UiGridColumnDirective -->
<g id="node1" class="node">
<title>UiGridColumnDirective</title>
<polygon fill="#ffffb3" stroke="#000000" points="2818.3557,-122 2665.6443,-122 2665.6443,-86 2818.3557,-86 2818.3557,-122"/>
<text text-anchor="middle" x="2742" y="-99.8" font-family="Times,serif" font-size="14.00" fill="#000000">UiGridColumnDirective</text>
</g>
<!-- UiGridModule -->
<g id="node11" class="node">
<title>UiGridModule</title>
<polygon fill="#8dd3c7" stroke="#000000" points="1516.705,-187 1513.705,-191 1492.705,-191 1489.705,-187 1417.295,-187 1417.295,-151 1516.705,-151 1516.705,-187"/>
<text text-anchor="middle" x="1467" y="-164.8" font-family="Times,serif" font-size="14.00" fill="#000000">UiGridModule</text>
</g>
<!-- UiGridColumnDirective&#45;&gt;UiGridModule -->
<g id="edge1" class="edge">
<title>UiGridColumnDirective&#45;&gt;UiGridModule</title>
<path fill="none" stroke="#000000" d="M2742,-122.2228C2742,-142.3652 2742,-172 2742,-172 2742,-172 1526.9815,-172 1526.9815,-172"/>
<polygon fill="#000000" stroke="#000000" points="1526.9815,-168.5001 1516.9815,-172 1526.9815,-175.5001 1526.9815,-168.5001"/>
</g>
<!-- UiGridComponent -->
<g id="node2" class="node">
<title>UiGridComponent</title>
<polygon fill="#ffffb3" stroke="#000000" points="2647.4874,-122 2526.5126,-122 2526.5126,-86 2647.4874,-86 2647.4874,-122"/>
<text text-anchor="middle" x="2587" y="-99.8" font-family="Times,serif" font-size="14.00" fill="#000000">UiGridComponent</text>
</g>
<!-- UiGridComponent&#45;&gt;UiGridModule -->
<g id="edge2" class="edge">
<title>UiGridComponent&#45;&gt;UiGridModule</title>
<path fill="none" stroke="#000000" d="M2587,-122.1061C2587,-141.3391 2587,-169 2587,-169 2587,-169 1526.9344,-169 1526.9344,-169"/>
<polygon fill="#000000" stroke="#000000" points="1526.9345,-165.5001 1516.9344,-169 1526.9344,-172.5001 1526.9345,-165.5001"/>
</g>
<!-- UiGridDropdownFilterDirective -->
<g id="node3" class="node">
<title>UiGridDropdownFilterDirective</title>
<polygon fill="#ffffb3" stroke="#000000" points="2508.9412,-122 2311.0588,-122 2311.0588,-86 2508.9412,-86 2508.9412,-122"/>
<text text-anchor="middle" x="2410" y="-99.8" font-family="Times,serif" font-size="14.00" fill="#000000">UiGridDropdownFilterDirective</text>
</g>
<!-- UiGridDropdownFilterDirective&#45;&gt;UiGridModule -->
<g id="edge3" class="edge">
<title>UiGridDropdownFilterDirective&#45;&gt;UiGridModule</title>
<path fill="none" stroke="#000000" d="M2347.1036,-122.2667C2347.1036,-140.5552 2347.1036,-166 2347.1036,-166 2347.1036,-166 1526.8399,-166 1526.8399,-166"/>
<polygon fill="#000000" stroke="#000000" points="1526.8399,-162.5001 1516.8399,-166 1526.8398,-169.5001 1526.8399,-162.5001"/>
</g>
<!-- UiGridExpandedRowDirective -->
<g id="node4" class="node">
<title>UiGridExpandedRowDirective</title>
<polygon fill="#ffffb3" stroke="#000000" points="2293.1629,-122 2102.8371,-122 2102.8371,-86 2293.1629,-86 2293.1629,-122"/>
<text text-anchor="middle" x="2198" y="-99.8" font-family="Times,serif" font-size="14.00" fill="#000000">UiGridExpandedRowDirective</text>
</g>
<!-- UiGridExpandedRowDirective&#45;&gt;UiGridModule -->
<g id="edge4" class="edge">
<title>UiGridExpandedRowDirective&#45;&gt;UiGridModule</title>
<path fill="none" stroke="#000000" d="M2156.0812,-122.0225C2156.0812,-139.3734 2156.0812,-163 2156.0812,-163 2156.0812,-163 1526.8342,-163 1526.8342,-163"/>
<polygon fill="#000000" stroke="#000000" points="1526.8343,-159.5001 1516.8342,-163 1526.8342,-166.5001 1526.8343,-159.5001"/>
</g>
<!-- UiGridFooterDirective -->
<g id="node5" class="node">
<title>UiGridFooterDirective</title>
<polygon fill="#ffffb3" stroke="#000000" points="2085.2865,-122 1940.7135,-122 1940.7135,-86 2085.2865,-86 2085.2865,-122"/>
<text text-anchor="middle" x="2013" y="-99.8" font-family="Times,serif" font-size="14.00" fill="#000000">UiGridFooterDirective</text>
</g>
<!-- UiGridFooterDirective&#45;&gt;UiGridModule -->
<g id="edge5" class="edge">
<title>UiGridFooterDirective&#45;&gt;UiGridModule</title>
<path fill="none" stroke="#000000" d="M2003.7888,-122.027C2003.7888,-138.3976 2003.7888,-160 2003.7888,-160 2003.7888,-160 1527.0178,-160 1527.0178,-160"/>
<polygon fill="#000000" stroke="#000000" points="1527.0178,-156.5001 1517.0178,-160 1527.0177,-163.5001 1527.0178,-156.5001"/>
</g>
<!-- UiGridHeaderButtonDirective -->
<g id="node6" class="node">
<title>UiGridHeaderButtonDirective</title>
<polygon fill="#ffffb3" stroke="#000000" points="1923.2668,-122 1736.7332,-122 1736.7332,-86 1923.2668,-86 1923.2668,-122"/>
<text text-anchor="middle" x="1830" y="-99.8" font-family="Times,serif" font-size="14.00" fill="#000000">UiGridHeaderButtonDirective</text>
</g>
<!-- UiGridHeaderButtonDirective&#45;&gt;UiGridModule -->
<g id="edge6" class="edge">
<title>UiGridHeaderButtonDirective&#45;&gt;UiGridModule</title>
<path fill="none" stroke="#000000" d="M1791.8491,-122.2396C1791.8491,-137.5706 1791.8491,-157 1791.8491,-157 1791.8491,-157 1526.6912,-157 1526.6912,-157"/>
<polygon fill="#000000" stroke="#000000" points="1526.6912,-153.5001 1516.6912,-157 1526.6912,-160.5001 1526.6912,-153.5001"/>
</g>
<!-- UiGridHeaderDirective -->
<g id="node7" class="node">
<title>UiGridHeaderDirective</title>
<polygon fill="#ffffb3" stroke="#000000" points="1719.1489,-122 1570.8511,-122 1570.8511,-86 1719.1489,-86 1719.1489,-122"/>
<text text-anchor="middle" x="1645" y="-99.8" font-family="Times,serif" font-size="14.00" fill="#000000">UiGridHeaderDirective</text>
</g>
<!-- UiGridHeaderDirective&#45;&gt;UiGridModule -->
<g id="edge7" class="edge">
<title>UiGridHeaderDirective&#45;&gt;UiGridModule</title>
<path fill="none" stroke="#000000" d="M1602.9093,-122.0511C1602.9093,-136.373 1602.9093,-154 1602.9093,-154 1602.9093,-154 1526.8359,-154 1526.8359,-154"/>
<polygon fill="#000000" stroke="#000000" points="1526.8359,-150.5001 1516.8359,-154 1526.8359,-157.5001 1526.8359,-150.5001"/>
</g>
<!-- UiGridRowActionDirective -->
<g id="node8" class="node">
<title>UiGridRowActionDirective</title>
<polygon fill="#ffffb3" stroke="#000000" points="1553.2836,-122 1380.7164,-122 1380.7164,-86 1553.2836,-86 1553.2836,-122"/>
<text text-anchor="middle" x="1467" y="-99.8" font-family="Times,serif" font-size="14.00" fill="#000000">UiGridRowActionDirective</text>
</g>
<!-- UiGridRowActionDirective&#45;&gt;UiGridModule -->
<g id="edge8" class="edge">
<title>UiGridRowActionDirective&#45;&gt;UiGridModule</title>
<path fill="none" stroke="#000000" d="M1467,-122.1061C1467,-122.1061 1467,-140.991 1467,-140.991"/>
<polygon fill="#000000" stroke="#000000" points="1463.5001,-140.9909 1467,-150.991 1470.5001,-140.991 1463.5001,-140.9909"/>
</g>
<!-- UiGridRowConfigDirective -->
<g id="node9" class="node">
<title>UiGridRowConfigDirective</title>
<polygon fill="#ffffb3" stroke="#000000" points="1362.5688,-122 1189.4312,-122 1189.4312,-86 1362.5688,-86 1362.5688,-122"/>
<text text-anchor="middle" x="1276" y="-99.8" font-family="Times,serif" font-size="14.00" fill="#000000">UiGridRowConfigDirective</text>
</g>
<!-- UiGridRowConfigDirective&#45;&gt;UiGridModule -->
<g id="edge9" class="edge">
<title>UiGridRowConfigDirective&#45;&gt;UiGridModule</title>
<path fill="none" stroke="#000000" d="M1320.8256,-122.0511C1320.8256,-136.373 1320.8256,-154 1320.8256,-154 1320.8256,-154 1407.1039,-154 1407.1039,-154"/>
<polygon fill="#000000" stroke="#000000" points="1407.1039,-157.5001 1417.1039,-154 1407.1038,-150.5001 1407.1039,-157.5001"/>
</g>
<!-- UiGridSearchFilterDirective -->
<g id="node10" class="node">
<title>UiGridSearchFilterDirective</title>
<polygon fill="#ffffb3" stroke="#000000" points="1171.1545,-122 994.8455,-122 994.8455,-86 1171.1545,-86 1171.1545,-122"/>
<text text-anchor="middle" x="1083" y="-99.8" font-family="Times,serif" font-size="14.00" fill="#000000">UiGridSearchFilterDirective</text>
</g>
<!-- UiGridSearchFilterDirective&#45;&gt;UiGridModule -->
<g id="edge10" class="edge">
<title>UiGridSearchFilterDirective&#45;&gt;UiGridModule</title>
<path fill="none" stroke="#000000" d="M1140.1264,-122.2396C1140.1264,-137.5706 1140.1264,-157 1140.1264,-157 1140.1264,-157 1407.3549,-157 1407.3549,-157"/>
<polygon fill="#000000" stroke="#000000" points="1407.355,-160.5001 1417.3549,-157 1407.3549,-153.5001 1407.355,-160.5001"/>
</g>
<!-- UiGridColumnDirective  -->
<g id="node17" class="node">
<title>UiGridColumnDirective </title>
<polygon fill="#fb8072" stroke="#000000" points="2383.356,-252 2226.644,-252 2226.644,-216 2383.356,-216 2383.356,-252"/>
<text text-anchor="middle" x="2305" y="-229.8" font-family="Times,serif" font-size="14.00" fill="#000000">UiGridColumnDirective </text>
</g>
<!-- UiGridModule&#45;&gt;UiGridColumnDirective  -->
<g id="edge16" class="edge">
<title>UiGridModule&#45;&gt;UiGridColumnDirective </title>
<path fill="none" stroke="#000000" stroke-dasharray="5,2" d="M1516.6027,-175C1690.1992,-175 2259.9518,-175 2259.9518,-175 2259.9518,-175 2259.9518,-205.9775 2259.9518,-205.9775"/>
<polygon fill="#000000" stroke="#000000" points="2256.4519,-205.9774 2259.9518,-215.9775 2263.4519,-205.9775 2256.4519,-205.9774"/>
</g>
<!-- UiGridComponent  -->
<g id="node18" class="node">
<title>UiGridComponent </title>
<polygon fill="#fb8072" stroke="#000000" points="2209.4884,-252 2084.5116,-252 2084.5116,-216 2209.4884,-216 2209.4884,-252"/>
<text text-anchor="middle" x="2147" y="-229.8" font-family="Times,serif" font-size="14.00" fill="#000000">UiGridComponent </text>
</g>
<!-- UiGridModule&#45;&gt;UiGridComponent  -->
<g id="edge17" class="edge">
<title>UiGridModule&#45;&gt;UiGridComponent </title>
<path fill="none" stroke="#000000" stroke-dasharray="5,2" d="M1516.7262,-178C1665.0323,-178 2094.0309,-178 2094.0309,-178 2094.0309,-178 2094.0309,-205.973 2094.0309,-205.973"/>
<polygon fill="#000000" stroke="#000000" points="2090.5309,-205.973 2094.0309,-215.973 2097.5309,-205.973 2090.5309,-205.973"/>
</g>
<!-- UiGridDropdownFilterDirective  -->
<g id="node19" class="node">
<title>UiGridDropdownFilterDirective </title>
<polygon fill="#fb8072" stroke="#000000" points="2066.9417,-252 1865.0583,-252 1865.0583,-216 2066.9417,-216 2066.9417,-252"/>
<text text-anchor="middle" x="1966" y="-229.8" font-family="Times,serif" font-size="14.00" fill="#000000">UiGridDropdownFilterDirective </text>
</g>
<!-- UiGridModule&#45;&gt;UiGridDropdownFilterDirective  -->
<g id="edge18" class="edge">
<title>UiGridModule&#45;&gt;UiGridDropdownFilterDirective </title>
<path fill="none" stroke="#000000" stroke-dasharray="5,2" d="M1516.8421,-181C1629.5344,-181 1894.2064,-181 1894.2064,-181 1894.2064,-181 1894.2064,-205.7604 1894.2064,-205.7604"/>
<polygon fill="#000000" stroke="#000000" points="1890.7064,-205.7604 1894.2064,-215.7604 1897.7064,-205.7604 1890.7064,-205.7604"/>
</g>
<!-- UiGridExpandedRowDirective  -->
<g id="node20" class="node">
<title>UiGridExpandedRowDirective </title>
<polygon fill="#fb8072" stroke="#000000" points="1846.6631,-252 1653.3369,-252 1653.3369,-216 1846.6631,-216 1846.6631,-252"/>
<text text-anchor="middle" x="1750" y="-229.8" font-family="Times,serif" font-size="14.00" fill="#000000">UiGridExpandedRowDirective </text>
</g>
<!-- UiGridModule&#45;&gt;UiGridExpandedRowDirective  -->
<g id="edge19" class="edge">
<title>UiGridModule&#45;&gt;UiGridExpandedRowDirective </title>
<path fill="none" stroke="#000000" stroke-dasharray="5,2" d="M1516.7221,-184C1581.3721,-184 1686.1215,-184 1686.1215,-184 1686.1215,-184 1686.1215,-205.9489 1686.1215,-205.9489"/>
<polygon fill="#000000" stroke="#000000" points="1682.6216,-205.9488 1686.1215,-215.9489 1689.6216,-205.9489 1682.6216,-205.9488"/>
</g>
<!-- UiGridFooterDirective  -->
<g id="node21" class="node">
<title>UiGridFooterDirective </title>
<polygon fill="#fb8072" stroke="#000000" points="1634.7864,-252 1487.2136,-252 1487.2136,-216 1634.7864,-216 1634.7864,-252"/>
<text text-anchor="middle" x="1561" y="-229.8" font-family="Times,serif" font-size="14.00" fill="#000000">UiGridFooterDirective </text>
</g>
<!-- UiGridModule&#45;&gt;UiGridFooterDirective  -->
<g id="edge20" class="edge">
<title>UiGridModule&#45;&gt;UiGridFooterDirective </title>
<path fill="none" stroke="#000000" stroke-dasharray="5,2" d="M1501.8547,-187.1061C1501.8547,-187.1061 1501.8547,-205.991 1501.8547,-205.991"/>
<polygon fill="#000000" stroke="#000000" points="1498.3547,-205.9909 1501.8547,-215.991 1505.3547,-205.991 1498.3547,-205.9909"/>
</g>
<!-- UiGridHeaderButtonDirective  -->
<g id="node22" class="node">
<title>UiGridHeaderButtonDirective </title>
<polygon fill="#fb8072" stroke="#000000" points="1468.7667,-252 1279.2333,-252 1279.2333,-216 1468.7667,-216 1468.7667,-252"/>
<text text-anchor="middle" x="1374" y="-229.8" font-family="Times,serif" font-size="14.00" fill="#000000">UiGridHeaderButtonDirective </text>
</g>
<!-- UiGridModule&#45;&gt;UiGridHeaderButtonDirective  -->
<g id="edge21" class="edge">
<title>UiGridModule&#45;&gt;UiGridHeaderButtonDirective </title>
<path fill="none" stroke="#000000" stroke-dasharray="5,2" d="M1443.1404,-187.1061C1443.1404,-187.1061 1443.1404,-205.991 1443.1404,-205.991"/>
<polygon fill="#000000" stroke="#000000" points="1439.6405,-205.9909 1443.1404,-215.991 1446.6405,-205.991 1439.6405,-205.9909"/>
</g>
<!-- UiGridHeaderDirective  -->
<g id="node23" class="node">
<title>UiGridHeaderDirective </title>
<polygon fill="#fb8072" stroke="#000000" points="1260.6492,-252 1109.3508,-252 1109.3508,-216 1260.6492,-216 1260.6492,-252"/>
<text text-anchor="middle" x="1185" y="-229.8" font-family="Times,serif" font-size="14.00" fill="#000000">UiGridHeaderDirective </text>
</g>
<!-- UiGridModule&#45;&gt;UiGridHeaderDirective  -->
<g id="edge22" class="edge">
<title>UiGridModule&#45;&gt;UiGridHeaderDirective </title>
<path fill="none" stroke="#000000" stroke-dasharray="5,2" d="M1417.1807,-184C1346.3809,-184 1225.145,-184 1225.145,-184 1225.145,-184 1225.145,-205.9489 1225.145,-205.9489"/>
<polygon fill="#000000" stroke="#000000" points="1221.6451,-205.9488 1225.145,-215.9489 1228.6451,-205.9489 1221.6451,-205.9488"/>
</g>
<!-- UiGridRowActionDirective  -->
<g id="node24" class="node">
<title>UiGridRowActionDirective </title>
<polygon fill="#fb8072" stroke="#000000" points="1090.7835,-252 915.2165,-252 915.2165,-216 1090.7835,-216 1090.7835,-252"/>
<text text-anchor="middle" x="1003" y="-229.8" font-family="Times,serif" font-size="14.00" fill="#000000">UiGridRowActionDirective </text>
</g>
<!-- UiGridModule&#45;&gt;UiGridRowActionDirective  -->
<g id="edge23" class="edge">
<title>UiGridModule&#45;&gt;UiGridRowActionDirective </title>
<path fill="none" stroke="#000000" stroke-dasharray="5,2" d="M1417.1041,-181C1304.9986,-181 1042.9073,-181 1042.9073,-181 1042.9073,-181 1042.9073,-205.7604 1042.9073,-205.7604"/>
<polygon fill="#000000" stroke="#000000" points="1039.4073,-205.7604 1042.9073,-215.7604 1046.4073,-205.7604 1039.4073,-205.7604"/>
</g>
<!-- UiGridRowConfigDirective  -->
<g id="node25" class="node">
<title>UiGridRowConfigDirective </title>
<polygon fill="#fb8072" stroke="#000000" points="897.0693,-252 720.9307,-252 720.9307,-216 897.0693,-216 897.0693,-252"/>
<text text-anchor="middle" x="809" y="-229.8" font-family="Times,serif" font-size="14.00" fill="#000000">UiGridRowConfigDirective </text>
</g>
<!-- UiGridModule&#45;&gt;UiGridRowConfigDirective  -->
<g id="edge24" class="edge">
<title>UiGridModule&#45;&gt;UiGridRowConfigDirective </title>
<path fill="none" stroke="#000000" stroke-dasharray="5,2" d="M1417.3121,-178C1268.5797,-178 837.1292,-178 837.1292,-178 837.1292,-178 837.1292,-205.973 837.1292,-205.973"/>
<polygon fill="#000000" stroke="#000000" points="833.6293,-205.973 837.1292,-215.973 840.6293,-205.973 833.6293,-205.973"/>
</g>
<!-- UiGridSearchFilterDirective  -->
<g id="node26" class="node">
<title>UiGridSearchFilterDirective </title>
<polygon fill="#fb8072" stroke="#000000" points="702.6547,-252 523.3453,-252 523.3453,-216 702.6547,-216 702.6547,-252"/>
<text text-anchor="middle" x="613" y="-229.8" font-family="Times,serif" font-size="14.00" fill="#000000">UiGridSearchFilterDirective </text>
</g>
<!-- UiGridModule&#45;&gt;UiGridSearchFilterDirective  -->
<g id="edge25" class="edge">
<title>UiGridModule&#45;&gt;UiGridSearchFilterDirective </title>
<path fill="none" stroke="#000000" stroke-dasharray="5,2" d="M1417.2567,-175C1241.7684,-175 662.0906,-175 662.0907,-175 662.0907,-175 662.0907,-205.9775 662.0907,-205.9775"/>
<polygon fill="#000000" stroke="#000000" points="658.5907,-205.9774 662.0907,-215.9775 665.5907,-205.9775 658.5907,-205.9774"/>
</g>
<!-- UiAutoAccessibleLabelModule -->
<g id="node12" class="node">
<title>UiAutoAccessibleLabelModule</title>
<polygon fill="#8dd3c7" stroke="#000000" points="971.052,-122 968.052,-126 947.052,-126 944.052,-122 776.948,-122 776.948,-86 971.052,-86 971.052,-122"/>
<text text-anchor="middle" x="874" y="-99.8" font-family="Times,serif" font-size="14.00" fill="#000000">UiAutoAccessibleLabelModule</text>
</g>
<!-- UiAutoAccessibleLabelModule&#45;&gt;UiGridModule -->
<g id="edge11" class="edge">
<title>UiAutoAccessibleLabelModule&#45;&gt;UiGridModule</title>
<path fill="none" stroke="#000000" d="M943.0672,-122.027C943.0672,-138.3976 943.0672,-160 943.0672,-160 943.0672,-160 1407.2373,-160 1407.2373,-160"/>
<polygon fill="#000000" stroke="#000000" points="1407.2374,-163.5001 1417.2373,-160 1407.2373,-156.5001 1407.2374,-163.5001"/>
</g>
<!-- UiGridSearchModule -->
<g id="node13" class="node">
<title>UiGridSearchModule</title>
<polygon fill="#8dd3c7" stroke="#000000" points="758.7921,-122 755.7921,-126 734.7921,-126 731.7921,-122 621.2079,-122 621.2079,-86 758.7921,-86 758.7921,-122"/>
<text text-anchor="middle" x="690" y="-99.8" font-family="Times,serif" font-size="14.00" fill="#000000">UiGridSearchModule</text>
</g>
<!-- UiGridSearchModule&#45;&gt;UiGridModule -->
<g id="edge12" class="edge">
<title>UiGridSearchModule&#45;&gt;UiGridModule</title>
<path fill="none" stroke="#000000" d="M739.6808,-122.0225C739.6808,-139.3734 739.6808,-163 739.6808,-163 739.6808,-163 1407.2947,-163 1407.2947,-163"/>
<polygon fill="#000000" stroke="#000000" points="1407.2947,-166.5001 1417.2947,-163 1407.2946,-159.5001 1407.2947,-166.5001"/>
</g>
<!-- UiGridToggleColumnsModule -->
<g id="node14" class="node">
<title>UiGridToggleColumnsModule</title>
<polygon fill="#8dd3c7" stroke="#000000" points="603.9255,-122 600.9255,-126 579.9255,-126 576.9255,-122 414.0745,-122 414.0745,-86 603.9255,-86 603.9255,-122"/>
<text text-anchor="middle" x="509" y="-99.8" font-family="Times,serif" font-size="14.00" fill="#000000">UiGridToggleColumnsModule</text>
</g>
<!-- UiGridToggleColumnsModule&#45;&gt;UiGridModule -->
<g id="edge13" class="edge">
<title>UiGridToggleColumnsModule&#45;&gt;UiGridModule</title>
<path fill="none" stroke="#000000" d="M563.4427,-122.2667C563.4427,-140.5552 563.4427,-166 563.4427,-166 563.4427,-166 1407.1338,-166 1407.1338,-166"/>
<polygon fill="#000000" stroke="#000000" points="1407.1338,-169.5001 1417.1338,-166 1407.1338,-162.5001 1407.1338,-169.5001"/>
</g>
<!-- UiSuggestModule -->
<g id="node15" class="node">
<title>UiSuggestModule</title>
<polygon fill="#8dd3c7" stroke="#000000" points="395.8795,-122 392.8795,-126 371.8795,-126 368.8795,-122 278.1205,-122 278.1205,-86 395.8795,-86 395.8795,-122"/>
<text text-anchor="middle" x="337" y="-99.8" font-family="Times,serif" font-size="14.00" fill="#000000">UiSuggestModule</text>
</g>
<!-- UiSuggestModule&#45;&gt;UiGridModule -->
<g id="edge14" class="edge">
<title>UiSuggestModule&#45;&gt;UiGridModule</title>
<path fill="none" stroke="#000000" d="M337,-122.1061C337,-141.3391 337,-169 337,-169 337,-169 1407.3536,-169 1407.3536,-169"/>
<polygon fill="#000000" stroke="#000000" points="1407.3536,-172.5001 1417.3536,-169 1407.3536,-165.5001 1407.3536,-172.5001"/>
</g>
<!-- UiVirtualScrollViewportResizeModule -->
<g id="node16" class="node">
<title>UiVirtualScrollViewportResizeModule</title>
<polygon fill="#8dd3c7" stroke="#000000" points="260.3249,-122 257.3249,-126 236.3249,-126 233.3249,-122 23.6751,-122 23.6751,-86 260.3249,-86 260.3249,-122"/>
<text text-anchor="middle" x="142" y="-99.8" font-family="Times,serif" font-size="14.00" fill="#000000">UiVirtualScrollViewportResizeModule</text>
</g>
<!-- UiVirtualScrollViewportResizeModule&#45;&gt;UiGridModule -->
<g id="edge15" class="edge">
<title>UiVirtualScrollViewportResizeModule&#45;&gt;UiGridModule</title>
<path fill="none" stroke="#000000" d="M142,-122.2228C142,-142.3652 142,-172 142,-172 142,-172 1407.0773,-172 1407.0773,-172"/>
<polygon fill="#000000" stroke="#000000" points="1407.0773,-175.5001 1417.0773,-172 1407.0772,-168.5001 1407.0773,-175.5001"/>
</g>
</g>
</svg>
