<?xml version="1.0" encoding="UTF-8" standalone="no"?>
<!DOCTYPE svg PUBLIC "-//W3C//DTD SVG 1.1//EN"
 "http://www.w3.org/Graphics/SVG/1.1/DTD/svg11.dtd">
<!-- Generated by graphviz version 2.47.3 (20210619.1520)
 -->
<!-- Title: dependencies Pages: 1 -->
<svg width="3760pt" height="247pt"
 viewBox="0.00 0.00 3760.00 246.80" xmlns="http://www.w3.org/2000/svg" xmlns:xlink="http://www.w3.org/1999/xlink">
<g id="graph0" class="graph" transform="scale(1 1) rotate(0) translate(4 242.8)">
<title>dependencies</title>
<polygon fill="white" stroke="transparent" points="-4,4 -4,-242.8 3756,-242.8 3756,4 -4,4"/>
<text text-anchor="middle" x="1876" y="-8.2" font-family="sans-serif" font-size="14.00">dependencies</text>
<g id="clust1" class="cluster">
<title>cluster_UiGridModule</title>
<polygon fill="none" stroke="black" stroke-dasharray="1,5" points="8,-32.8 8,-230.8 3744,-230.8 3744,-32.8 8,-32.8"/>
</g>
<g id="clust2" class="cluster">
<title>cluster_UiGridModule_declarations</title>
<polygon fill="none" stroke="black" points="1328,-40.8 1328,-92.8 3736,-92.8 3736,-40.8 1328,-40.8"/>
</g>
<g id="clust16" class="cluster">
<title>cluster_UiGridModule_imports</title>
<polygon fill="none" stroke="black" points="16,-40.8 16,-92.8 1320,-92.8 1320,-40.8 16,-40.8"/>
</g>
<g id="clust17" class="cluster">
<title>cluster_UiGridModule_exports</title>
<polygon fill="none" stroke="black" points="668,-170.8 668,-222.8 3123,-222.8 3123,-170.8 668,-170.8"/>
</g>
<!-- UiGridColumnDirective -->
<g id="node1" class="node">
<title>UiGridColumnDirective</title>
<polygon fill="#ffffb3" stroke="black" points="3728.36,-84.8 3575.64,-84.8 3575.64,-48.8 3728.36,-48.8 3728.36,-84.8"/>
<text text-anchor="middle" x="3652" y="-62.6" font-family="Times,serif" font-size="14.00">UiGridColumnDirective</text>
</g>
<!-- UiGridModule -->
<g id="node14" class="node">
<title>UiGridModule</title>
<polygon fill="#8dd3c7" stroke="black" points="1966.71,-149.8 1963.71,-153.8 1942.71,-153.8 1939.71,-149.8 1867.29,-149.8 1867.29,-113.8 1966.71,-113.8 1966.71,-149.8"/>
<text text-anchor="middle" x="1917" y="-127.6" font-family="Times,serif" font-size="14.00">UiGridModule</text>
</g>
<!-- UiGridColumnDirective&#45;&gt;UiGridModule -->
<g id="edge1" class="edge">
<title>UiGridColumnDirective&#45;&gt;UiGridModule</title>
<path fill="none" stroke="black" d="M3652,-85.02C3652,-105.17 3652,-134.8 3652,-134.8 3652,-134.8 1977.05,-134.8 1977.05,-134.8"/>
<polygon fill="black" stroke="black" points="1977.05,-131.3 1967.05,-134.8 1977.05,-138.3 1977.05,-131.3"/>
</g>
<!-- UiGridComponent -->
<g id="node2" class="node">
<title>UiGridComponent</title>
<polygon fill="#ffffb3" stroke="black" points="3557.49,-84.8 3436.51,-84.8 3436.51,-48.8 3557.49,-48.8 3557.49,-84.8"/>
<text text-anchor="middle" x="3497" y="-62.6" font-family="Times,serif" font-size="14.00">UiGridComponent</text>
</g>
<!-- UiGridComponent&#45;&gt;UiGridModule -->
<g id="edge2" class="edge">
<title>UiGridComponent&#45;&gt;UiGridModule</title>
<path fill="none" stroke="black" d="M3497,-84.91C3497,-104.14 3497,-131.8 3497,-131.8 3497,-131.8 1976.9,-131.8 1976.9,-131.8"/>
<polygon fill="black" stroke="black" points="1976.9,-128.3 1966.9,-131.8 1976.9,-135.3 1976.9,-128.3"/>
</g>
<!-- UiGridDropdownFilterDirective -->
<g id="node3" class="node">
<title>UiGridDropdownFilterDirective</title>
<polygon fill="#ffffb3" stroke="black" points="3418.94,-84.8 3221.06,-84.8 3221.06,-48.8 3418.94,-48.8 3418.94,-84.8"/>
<text text-anchor="middle" x="3320" y="-62.6" font-family="Times,serif" font-size="14.00">UiGridDropdownFilterDirective</text>
</g>
<!-- UiGridDropdownFilterDirective&#45;&gt;UiGridModule -->
<g id="edge3" class="edge">
<title>UiGridDropdownFilterDirective&#45;&gt;UiGridModule</title>
<path fill="none" stroke="black" d="M3320,-85.02C3320,-103.63 3320,-129.8 3320,-129.8 3320,-129.8 1976.93,-129.8 1976.93,-129.8"/>
<polygon fill="black" stroke="black" points="1976.93,-126.3 1966.93,-129.8 1976.93,-133.3 1976.93,-126.3"/>
</g>
<!-- UiGridExpandedRowDirective -->
<g id="node4" class="node">
<title>UiGridExpandedRowDirective</title>
<polygon fill="#ffffb3" stroke="black" points="3203.16,-84.8 3012.84,-84.8 3012.84,-48.8 3203.16,-48.8 3203.16,-84.8"/>
<text text-anchor="middle" x="3108" y="-62.6" font-family="Times,serif" font-size="14.00">UiGridExpandedRowDirective</text>
</g>
<!-- UiGridExpandedRowDirective&#45;&gt;UiGridModule -->
<g id="edge4" class="edge">
<title>UiGridExpandedRowDirective&#45;&gt;UiGridModule</title>
<path fill="none" stroke="black" d="M3064.05,-85.1C3064.05,-103.07 3064.05,-127.8 3064.05,-127.8 3064.05,-127.8 1976.66,-127.8 1976.66,-127.8"/>
<polygon fill="black" stroke="black" points="1976.66,-124.3 1966.66,-127.8 1976.66,-131.3 1976.66,-124.3"/>
</g>
<!-- UiGridFooterDirective -->
<g id="node5" class="node">
<title>UiGridFooterDirective</title>
<polygon fill="#ffffb3" stroke="black" points="2995.29,-84.8 2850.71,-84.8 2850.71,-48.8 2995.29,-48.8 2995.29,-84.8"/>
<text text-anchor="middle" x="2923" y="-62.6" font-family="Times,serif" font-size="14.00">UiGridFooterDirective</text>
</g>
<!-- UiGridFooterDirective&#45;&gt;UiGridModule -->
<g id="edge5" class="edge">
<title>UiGridFooterDirective&#45;&gt;UiGridModule</title>
<path fill="none" stroke="black" d="M2896.05,-84.82C2896.05,-102.17 2896.05,-125.8 2896.05,-125.8 2896.05,-125.8 1976.9,-125.8 1976.9,-125.8"/>
<polygon fill="black" stroke="black" points="1976.9,-122.3 1966.9,-125.8 1976.9,-129.3 1976.9,-122.3"/>
</g>
<!-- UiGridHeaderButtonDirective -->
<g id="node6" class="node">
<title>UiGridHeaderButtonDirective</title>
<polygon fill="#ffffb3" stroke="black" points="2833.27,-84.8 2646.73,-84.8 2646.73,-48.8 2833.27,-48.8 2833.27,-84.8"/>
<text text-anchor="middle" x="2740" y="-62.6" font-family="Times,serif" font-size="14.00">UiGridHeaderButtonDirective</text>
</g>
<!-- UiGridHeaderButtonDirective&#45;&gt;UiGridModule -->
<g id="edge6" class="edge">
<title>UiGridHeaderButtonDirective&#45;&gt;UiGridModule</title>
<path fill="none" stroke="black" d="M2722.79,-84.83C2722.79,-101.2 2722.79,-122.8 2722.79,-122.8 2722.79,-122.8 1976.8,-122.8 1976.8,-122.8"/>
<polygon fill="black" stroke="black" points="1976.8,-119.3 1966.8,-122.8 1976.8,-126.3 1976.8,-119.3"/>
</g>
<!-- UiGridHeaderDirective -->
<g id="node7" class="node">
<title>UiGridHeaderDirective</title>
<polygon fill="#ffffb3" stroke="black" points="2629.15,-84.8 2480.85,-84.8 2480.85,-48.8 2629.15,-48.8 2629.15,-84.8"/>
<text text-anchor="middle" x="2555" y="-62.6" font-family="Times,serif" font-size="14.00">UiGridHeaderDirective</text>
</g>
<!-- UiGridHeaderDirective&#45;&gt;UiGridModule -->
<g id="edge7" class="edge">
<title>UiGridHeaderDirective&#45;&gt;UiGridModule</title>
<path fill="none" stroke="black" d="M2529.88,-85.08C2529.88,-100.75 2529.88,-120.8 2529.88,-120.8 2529.88,-120.8 1976.64,-120.8 1976.64,-120.8"/>
<polygon fill="black" stroke="black" points="1976.64,-117.3 1966.64,-120.8 1976.64,-124.3 1976.64,-117.3"/>
</g>
<!-- UiGridLoadingDirective -->
<g id="node8" class="node">
<title>UiGridLoadingDirective</title>
<polygon fill="#ffffb3" stroke="black" points="2463.4,-84.8 2308.6,-84.8 2308.6,-48.8 2463.4,-48.8 2463.4,-84.8"/>
<text text-anchor="middle" x="2386" y="-62.6" font-family="Times,serif" font-size="14.00">UiGridLoadingDirective</text>
</g>
<!-- UiGridLoadingDirective&#45;&gt;UiGridModule -->
<g id="edge8" class="edge">
<title>UiGridLoadingDirective&#45;&gt;UiGridModule</title>
<path fill="none" stroke="black" d="M2337.85,-84.99C2337.85,-99.98 2337.85,-118.8 2337.85,-118.8 2337.85,-118.8 1976.93,-118.8 1976.93,-118.8"/>
<polygon fill="black" stroke="black" points="1976.93,-115.3 1966.93,-118.8 1976.93,-122.3 1976.93,-115.3"/>
</g>
<!-- UiGridNoContentDirective -->
<g id="node9" class="node">
<title>UiGridNoContentDirective</title>
<polygon fill="#ffffb3" stroke="black" points="2290.68,-84.8 2121.32,-84.8 2121.32,-48.8 2290.68,-48.8 2290.68,-84.8"/>
<text text-anchor="middle" x="2206" y="-62.6" font-family="Times,serif" font-size="14.00">UiGridNoContentDirective</text>
</g>
<!-- UiGridNoContentDirective&#45;&gt;UiGridModule -->
<g id="edge9" class="edge">
<title>UiGridNoContentDirective&#45;&gt;UiGridModule</title>
<path fill="none" stroke="black" d="M2161.15,-84.85C2161.15,-99.17 2161.15,-116.8 2161.15,-116.8 2161.15,-116.8 1976.7,-116.8 1976.7,-116.8"/>
<polygon fill="black" stroke="black" points="1976.7,-113.3 1966.7,-116.8 1976.7,-120.3 1976.7,-113.3"/>
</g>
<!-- UiGridRowActionDirective -->
<g id="node10" class="node">
<title>UiGridRowActionDirective</title>
<polygon fill="#ffffb3" stroke="black" points="2103.28,-84.8 1930.72,-84.8 1930.72,-48.8 2103.28,-48.8 2103.28,-84.8"/>
<text text-anchor="middle" x="2017" y="-62.6" font-family="Times,serif" font-size="14.00">UiGridRowActionDirective</text>
</g>
<!-- UiGridRowActionDirective&#45;&gt;UiGridModule -->
<g id="edge10" class="edge">
<title>UiGridRowActionDirective&#45;&gt;UiGridModule</title>
<path fill="none" stroke="black" d="M1948.73,-84.91C1948.73,-84.91 1948.73,-103.79 1948.73,-103.79"/>
<polygon fill="black" stroke="black" points="1945.23,-103.79 1948.73,-113.79 1952.23,-103.79 1945.23,-103.79"/>
</g>
<!-- UiGridRowCardViewDirective -->
<g id="node11" class="node">
<title>UiGridRowCardViewDirective</title>
<polygon fill="#ffffb3" stroke="black" points="1912.71,-84.8 1721.29,-84.8 1721.29,-48.8 1912.71,-48.8 1912.71,-84.8"/>
<text text-anchor="middle" x="1817" y="-62.6" font-family="Times,serif" font-size="14.00">UiGridRowCardViewDirective</text>
</g>
<!-- UiGridRowCardViewDirective&#45;&gt;UiGridModule -->
<g id="edge11" class="edge">
<title>UiGridRowCardViewDirective&#45;&gt;UiGridModule</title>
<path fill="none" stroke="black" d="M1890.13,-84.91C1890.13,-84.91 1890.13,-103.79 1890.13,-103.79"/>
<polygon fill="black" stroke="black" points="1886.63,-103.79 1890.13,-113.79 1893.63,-103.79 1886.63,-103.79"/>
</g>
<!-- UiGridRowConfigDirective -->
<g id="node12" class="node">
<title>UiGridRowConfigDirective</title>
<polygon fill="#ffffb3" stroke="black" points="1703.57,-84.8 1530.43,-84.8 1530.43,-48.8 1703.57,-48.8 1703.57,-84.8"/>
<text text-anchor="middle" x="1617" y="-62.6" font-family="Times,serif" font-size="14.00">UiGridRowConfigDirective</text>
</g>
<!-- UiGridRowConfigDirective&#45;&gt;UiGridModule -->
<g id="edge12" class="edge">
<title>UiGridRowConfigDirective&#45;&gt;UiGridModule</title>
<path fill="none" stroke="black" d="M1684.29,-84.85C1684.29,-99.17 1684.29,-116.8 1684.29,-116.8 1684.29,-116.8 1857.36,-116.8 1857.36,-116.8"/>
<polygon fill="black" stroke="black" points="1857.36,-120.3 1867.36,-116.8 1857.36,-113.3 1857.36,-120.3"/>
</g>
<!-- UiGridSearchFilterDirective -->
<g id="node13" class="node">
<title>UiGridSearchFilterDirective</title>
<polygon fill="#ffffb3" stroke="black" points="1512.15,-84.8 1335.85,-84.8 1335.85,-48.8 1512.15,-48.8 1512.15,-84.8"/>
<text text-anchor="middle" x="1424" y="-62.6" font-family="Times,serif" font-size="14.00">UiGridSearchFilterDirective</text>
</g>
<!-- UiGridSearchFilterDirective&#45;&gt;UiGridModule -->
<g id="edge13" class="edge">
<title>UiGridSearchFilterDirective&#45;&gt;UiGridModule</title>
<path fill="none" stroke="black" d="M1493.37,-84.99C1493.37,-99.98 1493.37,-118.8 1493.37,-118.8 1493.37,-118.8 1857.16,-118.8 1857.16,-118.8"/>
<polygon fill="black" stroke="black" points="1857.16,-122.3 1867.16,-118.8 1857.16,-115.3 1857.16,-122.3"/>
</g>
<!-- UiGridColumnDirective  -->
<g id="node22" class="node">
<title>UiGridColumnDirective </title>
<polygon fill="#fb8072" stroke="black" points="3115.36,-214.8 2958.64,-214.8 2958.64,-178.8 3115.36,-178.8 3115.36,-214.8"/>
<text text-anchor="middle" x="3037" y="-192.6" font-family="Times,serif" font-size="14.00">UiGridColumnDirective </text>
</g>
<!-- UiGridModule&#45;&gt;UiGridColumnDirective  -->
<g id="edge21" class="edge">
<title>UiGridModule&#45;&gt;UiGridColumnDirective </title>
<path fill="none" stroke="black" stroke-dasharray="5,2" d="M1966.7,-136.8C2176.27,-136.8 2976.98,-136.8 2976.98,-136.8 2976.98,-136.8 2976.98,-168.8 2976.98,-168.8"/>
<polygon fill="black" stroke="black" points="2973.48,-168.8 2976.98,-178.8 2980.48,-168.8 2973.48,-168.8"/>
</g>
<!-- UiGridComponent  -->
<g id="node23" class="node">
<title>UiGridComponent </title>
<polygon fill="#fb8072" stroke="black" points="2941.49,-214.8 2816.51,-214.8 2816.51,-178.8 2941.49,-178.8 2941.49,-214.8"/>
<text text-anchor="middle" x="2879" y="-192.6" font-family="Times,serif" font-size="14.00">UiGridComponent </text>
</g>
<!-- UiGridModule&#45;&gt;UiGridComponent  -->
<g id="edge22" class="edge">
<title>UiGridModule&#45;&gt;UiGridComponent </title>
<path fill="none" stroke="black" stroke-dasharray="5,2" d="M1966.78,-138.8C2156.69,-138.8 2824.94,-138.8 2824.94,-138.8 2824.94,-138.8 2824.94,-168.77 2824.94,-168.77"/>
<polygon fill="black" stroke="black" points="2821.44,-168.77 2824.94,-178.77 2828.44,-168.77 2821.44,-168.77"/>
</g>
<!-- UiGridDropdownFilterDirective  -->
<g id="node24" class="node">
<title>UiGridDropdownFilterDirective </title>
<polygon fill="#fb8072" stroke="black" points="2798.94,-214.8 2597.06,-214.8 2597.06,-178.8 2798.94,-178.8 2798.94,-214.8"/>
<text text-anchor="middle" x="2698" y="-192.6" font-family="Times,serif" font-size="14.00">UiGridDropdownFilterDirective </text>
</g>
<!-- UiGridModule&#45;&gt;UiGridDropdownFilterDirective  -->
<g id="edge23" class="edge">
<title>UiGridModule&#45;&gt;UiGridDropdownFilterDirective </title>
<path fill="none" stroke="black" stroke-dasharray="5,2" d="M1966.79,-140.8C2126.13,-140.8 2613.18,-140.8 2613.18,-140.8 2613.18,-140.8 2613.18,-168.77 2613.18,-168.77"/>
<polygon fill="black" stroke="black" points="2609.68,-168.77 2613.18,-178.77 2616.68,-168.77 2609.68,-168.77"/>
</g>
<!-- UiGridExpandedRowDirective  -->
<g id="node25" class="node">
<title>UiGridExpandedRowDirective </title>
<polygon fill="#fb8072" stroke="black" points="2578.66,-214.8 2385.34,-214.8 2385.34,-178.8 2578.66,-178.8 2578.66,-214.8"/>
<text text-anchor="middle" x="2482" y="-192.6" font-family="Times,serif" font-size="14.00">UiGridExpandedRowDirective </text>
</g>
<!-- UiGridModule&#45;&gt;UiGridExpandedRowDirective  -->
<g id="edge24" class="edge">
<title>UiGridModule&#45;&gt;UiGridExpandedRowDirective </title>
<path fill="none" stroke="black" stroke-dasharray="5,2" d="M1967.02,-143.8C2094.97,-143.8 2424.18,-143.8 2424.18,-143.8 2424.18,-143.8 2424.18,-168.56 2424.18,-168.56"/>
<polygon fill="black" stroke="black" points="2420.68,-168.56 2424.18,-178.56 2427.68,-168.56 2420.68,-168.56"/>
</g>
<!-- UiGridFooterDirective  -->
<g id="node26" class="node">
<title>UiGridFooterDirective </title>
<polygon fill="#fb8072" stroke="black" points="2366.79,-214.8 2219.21,-214.8 2219.21,-178.8 2366.79,-178.8 2366.79,-214.8"/>
<text text-anchor="middle" x="2293" y="-192.6" font-family="Times,serif" font-size="14.00">UiGridFooterDirective </text>
</g>
<!-- UiGridModule&#45;&gt;UiGridFooterDirective  -->
<g id="edge25" class="edge">
<title>UiGridModule&#45;&gt;UiGridFooterDirective </title>
<path fill="none" stroke="black" stroke-dasharray="5,2" d="M1966.85,-145.8C2060.83,-145.8 2254.85,-145.8 2254.85,-145.8 2254.85,-145.8 2254.85,-168.68 2254.85,-168.68"/>
<polygon fill="black" stroke="black" points="2251.35,-168.68 2254.85,-178.68 2258.35,-168.68 2251.35,-168.68"/>
</g>
<!-- UiGridHeaderButtonDirective  -->
<g id="node27" class="node">
<title>UiGridHeaderButtonDirective </title>
<polygon fill="#fb8072" stroke="black" points="2200.77,-214.8 2011.23,-214.8 2011.23,-178.8 2200.77,-178.8 2200.77,-214.8"/>
<text text-anchor="middle" x="2106" y="-192.6" font-family="Times,serif" font-size="14.00">UiGridHeaderButtonDirective </text>
</g>
<!-- UiGridModule&#45;&gt;UiGridHeaderButtonDirective  -->
<g id="edge26" class="edge">
<title>UiGridModule&#45;&gt;UiGridHeaderButtonDirective </title>
<path fill="none" stroke="black" stroke-dasharray="5,2" d="M1966.8,-147.8C2007.08,-147.8 2057.13,-147.8 2057.13,-147.8 2057.13,-147.8 2057.13,-168.55 2057.13,-168.55"/>
<polygon fill="black" stroke="black" points="2053.63,-168.55 2057.13,-178.55 2060.63,-168.55 2053.63,-168.55"/>
</g>
<!-- UiGridHeaderDirective  -->
<g id="node28" class="node">
<title>UiGridHeaderDirective </title>
<polygon fill="#fb8072" stroke="black" points="1992.65,-214.8 1841.35,-214.8 1841.35,-178.8 1992.65,-178.8 1992.65,-214.8"/>
<text text-anchor="middle" x="1917" y="-192.6" font-family="Times,serif" font-size="14.00">UiGridHeaderDirective </text>
</g>
<!-- UiGridModule&#45;&gt;UiGridHeaderDirective  -->
<g id="edge27" class="edge">
<title>UiGridModule&#45;&gt;UiGridHeaderDirective </title>
<path fill="none" stroke="black" stroke-dasharray="5,2" d="M1917,-149.91C1917,-149.91 1917,-168.79 1917,-168.79"/>
<polygon fill="black" stroke="black" points="1913.5,-168.79 1917,-178.79 1920.5,-168.79 1913.5,-168.79"/>
</g>
<!-- UiGridLoadingDirective  -->
<g id="node29" class="node">
<title>UiGridLoadingDirective </title>
<polygon fill="#fb8072" stroke="black" points="1822.9,-214.8 1665.1,-214.8 1665.1,-178.8 1822.9,-178.8 1822.9,-214.8"/>
<text text-anchor="middle" x="1744" y="-192.6" font-family="Times,serif" font-size="14.00">UiGridLoadingDirective </text>
</g>
<!-- UiGridModule&#45;&gt;UiGridLoadingDirective  -->
<g id="edge28" class="edge">
<title>UiGridModule&#45;&gt;UiGridLoadingDirective </title>
<path fill="none" stroke="black" stroke-dasharray="5,2" d="M1867.12,-147.8C1825.19,-147.8 1772.05,-147.8 1772.05,-147.8 1772.05,-147.8 1772.05,-168.55 1772.05,-168.55"/>
<polygon fill="black" stroke="black" points="1768.55,-168.55 1772.05,-178.55 1775.55,-168.55 1768.55,-168.55"/>
</g>
<!-- UiGridNoContentDirective  -->
<g id="node30" class="node">
<title>UiGridNoContentDirective </title>
<polygon fill="#fb8072" stroke="black" points="1647.18,-214.8 1474.82,-214.8 1474.82,-178.8 1647.18,-178.8 1647.18,-214.8"/>
<text text-anchor="middle" x="1561" y="-192.6" font-family="Times,serif" font-size="14.00">UiGridNoContentDirective </text>
</g>
<!-- UiGridModule&#45;&gt;UiGridNoContentDirective  -->
<g id="edge29" class="edge">
<title>UiGridModule&#45;&gt;UiGridNoContentDirective </title>
<path fill="none" stroke="black" stroke-dasharray="5,2" d="M1867.17,-145.8C1775.38,-145.8 1588.9,-145.8 1588.9,-145.8 1588.9,-145.8 1588.9,-168.68 1588.9,-168.68"/>
<polygon fill="black" stroke="black" points="1585.4,-168.68 1588.9,-178.68 1592.4,-168.68 1585.4,-168.68"/>
</g>
<!-- UiGridRowActionDirective  -->
<g id="node31" class="node">
<title>UiGridRowActionDirective </title>
<polygon fill="#fb8072" stroke="black" points="1456.78,-214.8 1281.22,-214.8 1281.22,-178.8 1456.78,-178.8 1456.78,-214.8"/>
<text text-anchor="middle" x="1369" y="-192.6" font-family="Times,serif" font-size="14.00">UiGridRowActionDirective </text>
</g>
<!-- UiGridModule&#45;&gt;UiGridRowActionDirective  -->
<g id="edge30" class="edge">
<title>UiGridModule&#45;&gt;UiGridRowActionDirective </title>
<path fill="none" stroke="black" stroke-dasharray="5,2" d="M1867.08,-143.8C1736.78,-143.8 1396.41,-143.8 1396.41,-143.8 1396.41,-143.8 1396.41,-168.56 1396.41,-168.56"/>
<polygon fill="black" stroke="black" points="1392.91,-168.56 1396.41,-178.56 1399.91,-168.56 1392.91,-168.56"/>
</g>
<!-- UiGridRowCardViewDirective  -->
<g id="node32" class="node">
<title>UiGridRowCardViewDirective </title>
<polygon fill="#fb8072" stroke="black" points="1263.71,-214.8 1068.29,-214.8 1068.29,-178.8 1263.71,-178.8 1263.71,-214.8"/>
<text text-anchor="middle" x="1166" y="-192.6" font-family="Times,serif" font-size="14.00">UiGridRowCardViewDirective </text>
</g>
<!-- UiGridModule&#45;&gt;UiGridRowCardViewDirective  -->
<g id="edge31" class="edge">
<title>UiGridModule&#45;&gt;UiGridRowCardViewDirective </title>
<path fill="none" stroke="black" stroke-dasharray="5,2" d="M1867.37,-140.8C1703.61,-140.8 1190.79,-140.8 1190.79,-140.8 1190.79,-140.8 1190.79,-168.77 1190.79,-168.77"/>
<polygon fill="black" stroke="black" points="1187.29,-168.77 1190.79,-178.77 1194.29,-168.77 1187.29,-168.77"/>
</g>
<!-- UiGridRowConfigDirective  -->
<g id="node33" class="node">
<title>UiGridRowConfigDirective </title>
<polygon fill="#fb8072" stroke="black" points="1050.07,-214.8 873.93,-214.8 873.93,-178.8 1050.07,-178.8 1050.07,-214.8"/>
<text text-anchor="middle" x="962" y="-192.6" font-family="Times,serif" font-size="14.00">UiGridRowConfigDirective </text>
</g>
<!-- UiGridModule&#45;&gt;UiGridRowConfigDirective  -->
<g id="edge32" class="edge">
<title>UiGridModule&#45;&gt;UiGridRowConfigDirective </title>
<path fill="none" stroke="black" stroke-dasharray="5,2" d="M1867.13,-138.8C1672.8,-138.8 977.04,-138.8 977.04,-138.8 977.04,-138.8 977.04,-168.77 977.04,-168.77"/>
<polygon fill="black" stroke="black" points="973.54,-168.77 977.04,-178.77 980.54,-168.77 973.54,-168.77"/>
</g>
<!-- UiGridSearchFilterDirective  -->
<g id="node34" class="node">
<title>UiGridSearchFilterDirective </title>
<polygon fill="#fb8072" stroke="black" points="855.65,-214.8 676.35,-214.8 676.35,-178.8 855.65,-178.8 855.65,-214.8"/>
<text text-anchor="middle" x="766" y="-192.6" font-family="Times,serif" font-size="14.00">UiGridSearchFilterDirective </text>
</g>
<!-- UiGridModule&#45;&gt;UiGridSearchFilterDirective  -->
<g id="edge33" class="edge">
<title>UiGridModule&#45;&gt;UiGridSearchFilterDirective </title>
<path fill="none" stroke="black" stroke-dasharray="5,2" d="M1867.29,-136.8C1650.94,-136.8 802.09,-136.8 802.09,-136.8 802.09,-136.8 802.09,-168.8 802.09,-168.8"/>
<polygon fill="black" stroke="black" points="798.59,-168.8 802.09,-178.8 805.59,-168.8 798.59,-168.8"/>
</g>
<!-- UiAutoAccessibleLabelModule -->
<g id="node15" class="node">
<title>UiAutoAccessibleLabelModule</title>
<polygon fill="#8dd3c7" stroke="black" points="1312.05,-84.8 1309.05,-88.8 1288.05,-88.8 1285.05,-84.8 1117.95,-84.8 1117.95,-48.8 1312.05,-48.8 1312.05,-84.8"/>
<text text-anchor="middle" x="1215" y="-62.6" font-family="Times,serif" font-size="14.00">UiAutoAccessibleLabelModule</text>
</g>
<!-- UiAutoAccessibleLabelModule&#45;&gt;UiGridModule -->
<g id="edge14" class="edge">
<title>UiAutoAccessibleLabelModule&#45;&gt;UiGridModule</title>
<path fill="none" stroke="black" d="M1296.57,-85.08C1296.57,-100.75 1296.57,-120.8 1296.57,-120.8 1296.57,-120.8 1857.28,-120.8 1857.28,-120.8"/>
<polygon fill="black" stroke="black" points="1857.28,-124.3 1867.28,-120.8 1857.28,-117.3 1857.28,-124.3"/>
</g>
<!-- UiGridCustomPaginatorModule -->
<g id="node16" class="node">
<title>UiGridCustomPaginatorModule</title>
<polygon fill="#8dd3c7" stroke="black" points="1100.42,-84.8 1097.42,-88.8 1076.42,-88.8 1073.42,-84.8 903.58,-84.8 903.58,-48.8 1100.42,-48.8 1100.42,-84.8"/>
<text text-anchor="middle" x="1002" y="-62.6" font-family="Times,serif" font-size="14.00">UiGridCustomPaginatorModule</text>
</g>
<!-- UiGridCustomPaginatorModule&#45;&gt;UiGridModule -->
<g id="edge15" class="edge">
<title>UiGridCustomPaginatorModule&#45;&gt;UiGridModule</title>
<path fill="none" stroke="black" d="M1084.3,-84.83C1084.3,-101.2 1084.3,-122.8 1084.3,-122.8 1084.3,-122.8 1857.1,-122.8 1857.1,-122.8"/>
<polygon fill="black" stroke="black" points="1857.1,-126.3 1867.1,-122.8 1857.1,-119.3 1857.1,-126.3"/>
</g>
<!-- UiGridSearchModule -->
<g id="node17" class="node">
<title>UiGridSearchModule</title>
<polygon fill="#8dd3c7" stroke="black" points="885.79,-84.8 882.79,-88.8 861.79,-88.8 858.79,-84.8 748.21,-84.8 748.21,-48.8 885.79,-48.8 885.79,-84.8"/>
<text text-anchor="middle" x="817" y="-62.6" font-family="Times,serif" font-size="14.00">UiGridSearchModule</text>
</g>
<!-- UiGridSearchModule&#45;&gt;UiGridModule -->
<g id="edge16" class="edge">
<title>UiGridSearchModule&#45;&gt;UiGridModule</title>
<path fill="none" stroke="black" d="M879.68,-84.82C879.68,-102.17 879.68,-125.8 879.68,-125.8 879.68,-125.8 1857.32,-125.8 1857.32,-125.8"/>
<polygon fill="black" stroke="black" points="1857.32,-129.3 1867.32,-125.8 1857.32,-122.3 1857.32,-129.3"/>
</g>
<!-- UiGridToggleColumnsModule -->
<g id="node18" class="node">
<title>UiGridToggleColumnsModule</title>
<polygon fill="#8dd3c7" stroke="black" points="730.93,-84.8 727.93,-88.8 706.93,-88.8 703.93,-84.8 541.07,-84.8 541.07,-48.8 730.93,-48.8 730.93,-84.8"/>
<text text-anchor="middle" x="636" y="-62.6" font-family="Times,serif" font-size="14.00">UiGridToggleColumnsModule</text>
</g>
<!-- UiGridToggleColumnsModule&#45;&gt;UiGridModule -->
<g id="edge17" class="edge">
<title>UiGridToggleColumnsModule&#45;&gt;UiGridModule</title>
<path fill="none" stroke="black" d="M703.44,-85.1C703.44,-103.07 703.44,-127.8 703.44,-127.8 703.44,-127.8 1857.16,-127.8 1857.16,-127.8"/>
<polygon fill="black" stroke="black" points="1857.16,-131.3 1867.16,-127.8 1857.16,-124.3 1857.16,-131.3"/>
</g>
<!-- UiNgLetModule -->
<g id="node19" class="node">
<title>UiNgLetModule</title>
<polygon fill="#8dd3c7" stroke="black" points="523.81,-84.8 520.81,-88.8 499.81,-88.8 496.81,-84.8 414.19,-84.8 414.19,-48.8 523.81,-48.8 523.81,-84.8"/>
<text text-anchor="middle" x="469" y="-62.6" font-family="Times,serif" font-size="14.00">UiNgLetModule</text>
</g>
<!-- UiNgLetModule&#45;&gt;UiGridModule -->
<g id="edge18" class="edge">
<title>UiNgLetModule&#45;&gt;UiGridModule</title>
<path fill="none" stroke="black" d="M469,-85.02C469,-103.63 469,-129.8 469,-129.8 469,-129.8 1857.16,-129.8 1857.16,-129.8"/>
<polygon fill="black" stroke="black" points="1857.16,-133.3 1867.16,-129.8 1857.16,-126.3 1857.16,-133.3"/>
</g>
<!-- UiSuggestModule -->
<g id="node20" class="node">
<title>UiSuggestModule</title>
<polygon fill="#8dd3c7" stroke="black" points="395.88,-84.8 392.88,-88.8 371.88,-88.8 368.88,-84.8 278.12,-84.8 278.12,-48.8 395.88,-48.8 395.88,-84.8"/>
<text text-anchor="middle" x="337" y="-62.6" font-family="Times,serif" font-size="14.00">UiSuggestModule</text>
</g>
<!-- UiSuggestModule&#45;&gt;UiGridModule -->
<g id="edge19" class="edge">
<title>UiSuggestModule&#45;&gt;UiGridModule</title>
<path fill="none" stroke="black" d="M337,-84.91C337,-104.14 337,-131.8 337,-131.8 337,-131.8 1857.1,-131.8 1857.1,-131.8"/>
<polygon fill="black" stroke="black" points="1857.1,-135.3 1867.1,-131.8 1857.1,-128.3 1857.1,-135.3"/>
</g>
<!-- UiVirtualScrollViewportResizeModule -->
<g id="node21" class="node">
<title>UiVirtualScrollViewportResizeModule</title>
<polygon fill="#8dd3c7" stroke="black" points="260.32,-84.8 257.32,-88.8 236.32,-88.8 233.32,-84.8 23.68,-84.8 23.68,-48.8 260.32,-48.8 260.32,-84.8"/>
<text text-anchor="middle" x="142" y="-62.6" font-family="Times,serif" font-size="14.00">UiVirtualScrollViewportResizeModule</text>
</g>
<!-- UiVirtualScrollViewportResizeModule&#45;&gt;UiGridModule -->
<g id="edge20" class="edge">
<title>UiVirtualScrollViewportResizeModule&#45;&gt;UiGridModule</title>
<path fill="none" stroke="black" d="M142,-85.02C142,-105.17 142,-134.8 142,-134.8 142,-134.8 1857.21,-134.8 1857.21,-134.8"/>
<polygon fill="black" stroke="black" points="1857.21,-138.3 1867.21,-134.8 1857.21,-131.3 1857.21,-138.3"/>
</g>
</g>
</svg>
