<?xml version="1.0" encoding="UTF-8" standalone="no"?>
<!DOCTYPE svg PUBLIC "-//W3C//DTD SVG 1.1//EN"
 "http://www.w3.org/Graphics/SVG/1.1/DTD/svg11.dtd">
<!-- Generated by graphviz version 2.47.3 (20210619.1520)
 -->
<!-- Title: dependencies Pages: 1 -->
<svg width="274pt" height="247pt"
 viewBox="0.00 0.00 274.00 246.80" xmlns="http://www.w3.org/2000/svg" xmlns:xlink="http://www.w3.org/1999/xlink">
<g id="graph0" class="graph" transform="scale(1 1) rotate(0) translate(4 242.8)">
<title>dependencies</title>
<polygon fill="white" stroke="transparent" points="-4,4 -4,-242.8 270,-242.8 270,4 -4,4"/>
<text text-anchor="middle" x="133" y="-8.2" font-family="sans-serif" font-size="14.00">dependencies</text>
<g id="clust1" class="cluster">
<title>cluster_UiMatFormFieldRequiredModule</title>
<polygon fill="none" stroke="black" stroke-dasharray="1,5" points="8,-32.8 8,-230.8 258,-230.8 258,-32.8 8,-32.8"/>
</g>
<g id="clust5" class="cluster">
<title>cluster_UiMatFormFieldRequiredModule_exports</title>
<polygon fill="none" stroke="black" points="16,-170.8 16,-222.8 250,-222.8 250,-170.8 16,-170.8"/>
</g>
<g id="clust2" class="cluster">
<title>cluster_UiMatFormFieldRequiredModule_declarations</title>
<polygon fill="none" stroke="black" points="17,-40.8 17,-92.8 249,-92.8 249,-40.8 17,-40.8"/>
</g>
<!-- UiMatFormFieldRequiredDirective -->
<g id="node1" class="node">
<title>UiMatFormFieldRequiredDirective</title>
<polygon fill="#ffffb3" stroke="black" points="240.56,-84.8 25.44,-84.8 25.44,-48.8 240.56,-48.8 240.56,-84.8"/>
<text text-anchor="middle" x="133" y="-62.6" font-family="Times,serif" font-size="14.00">UiMatFormFieldRequiredDirective</text>
</g>
<!-- UiMatFormFieldRequiredModule -->
<g id="node2" class="node">
<title>UiMatFormFieldRequiredModule</title>
<polygon fill="#8dd3c7" stroke="black" points="236.03,-149.8 233.03,-153.8 212.03,-153.8 209.03,-149.8 29.97,-149.8 29.97,-113.8 236.03,-113.8 236.03,-149.8"/>
<text text-anchor="middle" x="133" y="-127.6" font-family="Times,serif" font-size="14.00">UiMatFormFieldRequiredModule</text>
</g>
<!-- UiMatFormFieldRequiredDirective&#45;&gt;UiMatFormFieldRequiredModule -->
<g id="edge1" class="edge">
<title>UiMatFormFieldRequiredDirective&#45;&gt;UiMatFormFieldRequiredModule</title>
<path fill="none" stroke="black" d="M133,-84.91C133,-84.91 133,-103.79 133,-103.79"/>
<polygon fill="black" stroke="black" points="129.5,-103.79 133,-113.79 136.5,-103.79 129.5,-103.79"/>
</g>
<!-- UiMatFormFieldRequiredDirective  -->
<g id="node3" class="node">
<title>UiMatFormFieldRequiredDirective </title>
<polygon fill="#fb8072" stroke="black" points="242.06,-214.8 23.94,-214.8 23.94,-178.8 242.06,-178.8 242.06,-214.8"/>
<text text-anchor="middle" x="133" y="-192.6" font-family="Times,serif" font-size="14.00">UiMatFormFieldRequiredDirective </text>
</g>
<!-- UiMatFormFieldRequiredModule&#45;&gt;UiMatFormFieldRequiredDirective  -->
<g id="edge2" class="edge">
<title>UiMatFormFieldRequiredModule&#45;&gt;UiMatFormFieldRequiredDirective </title>
<path fill="none" stroke="black" stroke-dasharray="5,2" d="M133,-149.91C133,-149.91 133,-168.79 133,-168.79"/>
<polygon fill="black" stroke="black" points="129.5,-168.79 133,-178.79 136.5,-168.79 129.5,-168.79"/>
</g>
</g>
</svg>
