<?xml version="1.0" encoding="UTF-8" standalone="no"?>
<!DOCTYPE svg PUBLIC "-//W3C//DTD SVG 1.1//EN"
 "http://www.w3.org/Graphics/SVG/1.1/DTD/svg11.dtd">
<!-- Generated by graphviz version 2.47.3 (20210619.1520)
 -->
<!-- Title: dependencies Pages: 1 -->
<svg width="178pt" height="247pt"
 viewBox="0.00 0.00 178.00 246.80" xmlns="http://www.w3.org/2000/svg" xmlns:xlink="http://www.w3.org/1999/xlink">
<g id="graph0" class="graph" transform="scale(1 1) rotate(0) translate(4 242.8)">
<title>dependencies</title>
<polygon fill="white" stroke="transparent" points="-4,4 -4,-242.8 174,-242.8 174,4 -4,4"/>
<text text-anchor="middle" x="85" y="-8.2" font-family="sans-serif" font-size="14.00">dependencies</text>
<g id="clust1" class="cluster">
<title>cluster_UiNgLetModule</title>
<polygon fill="none" stroke="black" stroke-dasharray="1,5" points="8,-32.8 8,-230.8 162,-230.8 162,-32.8 8,-32.8"/>
</g>
<g id="clust2" class="cluster">
<title>cluster_UiNgLetModule_declarations</title>
<polygon fill="none" stroke="black" points="18,-40.8 18,-92.8 152,-92.8 152,-40.8 18,-40.8"/>
</g>
<g id="clust5" class="cluster">
<title>cluster_UiNgLetModule_exports</title>
<polygon fill="none" stroke="black" points="16,-170.8 16,-222.8 154,-222.8 154,-170.8 16,-170.8"/>
</g>
<!-- UiNgLetDirective -->
<g id="node1" class="node">
<title>UiNgLetDirective</title>
<polygon fill="#ffffb3" stroke="black" points="143.84,-84.8 26.16,-84.8 26.16,-48.8 143.84,-48.8 143.84,-84.8"/>
<text text-anchor="middle" x="85" y="-62.6" font-family="Times,serif" font-size="14.00">UiNgLetDirective</text>
</g>
<!-- UiNgLetModule -->
<g id="node2" class="node">
<title>UiNgLetModule</title>
<polygon fill="#8dd3c7" stroke="black" points="139.81,-149.8 136.81,-153.8 115.81,-153.8 112.81,-149.8 30.19,-149.8 30.19,-113.8 139.81,-113.8 139.81,-149.8"/>
<text text-anchor="middle" x="85" y="-127.6" font-family="Times,serif" font-size="14.00">UiNgLetModule</text>
</g>
<!-- UiNgLetDirective&#45;&gt;UiNgLetModule -->
<g id="edge1" class="edge">
<title>UiNgLetDirective&#45;&gt;UiNgLetModule</title>
<path fill="none" stroke="black" d="M85,-84.91C85,-84.91 85,-103.79 85,-103.79"/>
<polygon fill="black" stroke="black" points="81.5,-103.79 85,-113.79 88.5,-103.79 81.5,-103.79"/>
</g>
<!-- UiNgLetDirective  -->
<g id="node3" class="node">
<title>UiNgLetDirective </title>
<polygon fill="#fb8072" stroke="black" points="145.84,-214.8 24.16,-214.8 24.16,-178.8 145.84,-178.8 145.84,-214.8"/>
<text text-anchor="middle" x="85" y="-192.6" font-family="Times,serif" font-size="14.00">UiNgLetDirective </text>
</g>
<!-- UiNgLetModule&#45;&gt;UiNgLetDirective  -->
<g id="edge2" class="edge">
<title>UiNgLetModule&#45;&gt;UiNgLetDirective </title>
<path fill="none" stroke="black" stroke-dasharray="5,2" d="M85,-149.91C85,-149.91 85,-168.79 85,-168.79"/>
<polygon fill="black" stroke="black" points="81.5,-168.79 85,-178.79 88.5,-168.79 81.5,-168.79"/>
</g>
</g>
</svg>
