<?xml version="1.0" encoding="UTF-8" standalone="no"?>
<!DOCTYPE svg PUBLIC "-//W3C//DTD SVG 1.1//EN"
 "http://www.w3.org/Graphics/SVG/1.1/DTD/svg11.dtd">
<!-- Generated by graphviz version 2.47.3 (20210619.1520)
 -->
<!-- Title: dependencies Pages: 1 -->
<svg width="244pt" height="247pt"
 viewBox="0.00 0.00 244.00 246.80" xmlns="http://www.w3.org/2000/svg" xmlns:xlink="http://www.w3.org/1999/xlink">
<g id="graph0" class="graph" transform="scale(1 1) rotate(0) translate(4 242.8)">
<title>dependencies</title>
<polygon fill="white" stroke="transparent" points="-4,4 -4,-242.8 240,-242.8 240,4 -4,4"/>
<text text-anchor="middle" x="118" y="-8.2" font-family="sans-serif" font-size="14.00">dependencies</text>
<g id="clust1" class="cluster">
<title>cluster_UiDragAndDropModule</title>
<polygon fill="none" stroke="black" stroke-dasharray="1,5" points="8,-32.8 8,-230.8 228,-230.8 228,-32.8 8,-32.8"/>
</g>
<g id="clust2" class="cluster">
<title>cluster_UiDragAndDropModule_declarations</title>
<polygon fill="none" stroke="black" points="18,-40.8 18,-92.8 218,-92.8 218,-40.8 18,-40.8"/>
</g>
<g id="clust5" class="cluster">
<title>cluster_UiDragAndDropModule_exports</title>
<polygon fill="none" stroke="black" points="16,-170.8 16,-222.8 220,-222.8 220,-170.8 16,-170.8"/>
</g>
<!-- UiDragAndDropFileDirective -->
<g id="node1" class="node">
<title>UiDragAndDropFileDirective</title>
<polygon fill="#ffffb3" stroke="black" points="210.21,-84.8 25.79,-84.8 25.79,-48.8 210.21,-48.8 210.21,-84.8"/>
<text text-anchor="middle" x="118" y="-62.6" font-family="Times,serif" font-size="14.00">UiDragAndDropFileDirective</text>
</g>
<!-- UiDragAndDropModule -->
<g id="node2" class="node">
<title>UiDragAndDropModule</title>
<polygon fill="#8dd3c7" stroke="black" points="195.4,-149.8 192.4,-153.8 171.4,-153.8 168.4,-149.8 40.6,-149.8 40.6,-113.8 195.4,-113.8 195.4,-149.8"/>
<text text-anchor="middle" x="118" y="-127.6" font-family="Times,serif" font-size="14.00">UiDragAndDropModule</text>
</g>
<!-- UiDragAndDropFileDirective&#45;&gt;UiDragAndDropModule -->
<g id="edge1" class="edge">
<title>UiDragAndDropFileDirective&#45;&gt;UiDragAndDropModule</title>
<path fill="none" stroke="black" d="M118,-84.91C118,-84.91 118,-103.79 118,-103.79"/>
<polygon fill="black" stroke="black" points="114.5,-103.79 118,-113.79 121.5,-103.79 114.5,-103.79"/>
</g>
<!-- UiDragAndDropFileDirective  -->
<g id="node3" class="node">
<title>UiDragAndDropFileDirective </title>
<polygon fill="#fb8072" stroke="black" points="212.21,-214.8 23.79,-214.8 23.79,-178.8 212.21,-178.8 212.21,-214.8"/>
<text text-anchor="middle" x="118" y="-192.6" font-family="Times,serif" font-size="14.00">UiDragAndDropFileDirective </text>
</g>
<!-- UiDragAndDropModule&#45;&gt;UiDragAndDropFileDirective  -->
<g id="edge2" class="edge">
<title>UiDragAndDropModule&#45;&gt;UiDragAndDropFileDirective </title>
<path fill="none" stroke="black" stroke-dasharray="5,2" d="M118,-149.91C118,-149.91 118,-168.79 118,-168.79"/>
<polygon fill="black" stroke="black" points="114.5,-168.79 118,-178.79 121.5,-168.79 114.5,-168.79"/>
</g>
</g>
</svg>
