<?xml version="1.0" encoding="UTF-8" standalone="no"?>
<!DOCTYPE svg PUBLIC "-//W3C//DTD SVG 1.1//EN"
 "http://www.w3.org/Graphics/SVG/1.1/DTD/svg11.dtd">
<!-- Generated by graphviz version 2.40.1 (20161225.0304)
 -->
<!-- Title: dependencies Pages: 1 -->
<svg width="504pt" height="284pt"
 viewBox="0.00 0.00 504.00 284.00" xmlns="http://www.w3.org/2000/svg" xmlns:xlink="http://www.w3.org/1999/xlink">
<g id="graph0" class="graph" transform="scale(1 1) rotate(0) translate(4 280)">
<title>dependencies</title>
<polygon fill="#ffffff" stroke="transparent" points="-4,4 -4,-280 500,-280 500,4 -4,4"/>
<text text-anchor="start" x="227.0091" y="-42.4" font-family="sans-serif" font-weight="bold" font-size="14.00" fill="#000000">Legend</text>
<polygon fill="#ffffb3" stroke="transparent" points="14,-10 14,-30 34,-30 34,-10 14,-10"/>
<text text-anchor="start" x="37.629" y="-15.4" font-family="sans-serif" font-size="14.00" fill="#000000"> &#160;Declarations</text>
<polygon fill="#8dd3c7" stroke="transparent" points="127,-10 127,-30 147,-30 147,-10 127,-10"/>
<text text-anchor="start" x="150.7251" y="-15.4" font-family="sans-serif" font-size="14.00" fill="#000000"> &#160;Module</text>
<polygon fill="#80b1d3" stroke="transparent" points="213,-10 213,-30 233,-30 233,-10 213,-10"/>
<text text-anchor="start" x="236.7812" y="-15.4" font-family="sans-serif" font-size="14.00" fill="#000000"> &#160;Bootstrap</text>
<polygon fill="#fdb462" stroke="transparent" points="310,-10 310,-30 330,-30 330,-10 310,-10"/>
<text text-anchor="start" x="333.6732" y="-15.4" font-family="sans-serif" font-size="14.00" fill="#000000"> &#160;Providers</text>
<polygon fill="#fb8072" stroke="transparent" points="406,-10 406,-30 426,-30 426,-10 406,-10"/>
<text text-anchor="start" x="429.7258" y="-15.4" font-family="sans-serif" font-size="14.00" fill="#000000"> &#160;Exports</text>
<g id="clust1" class="cluster">
<title>cluster_UiProgressButtonModule</title>
<polygon fill="none" stroke="#000000" stroke-dasharray="1,5" points="38,-70 38,-268 458,-268 458,-70 38,-70"/>
</g>
<g id="clust2" class="cluster">
<title>cluster_UiProgressButtonModule_declarations</title>
<polygon fill="none" stroke="#000000" points="46,-78 46,-130 450,-130 450,-78 46,-78"/>
</g>
<g id="clust6" class="cluster">
<title>cluster_UiProgressButtonModule_exports</title>
<polygon fill="none" stroke="#000000" points="146,-208 146,-260 334,-260 334,-208 146,-208"/>
</g>
<!-- UiButtonProgressBarComponent -->
<g id="node1" class="node">
<title>UiButtonProgressBarComponent</title>
<polygon fill="#ffffb3" stroke="#000000" points="441.8668,-122 240.1332,-122 240.1332,-86 441.8668,-86 441.8668,-122"/>
<text text-anchor="middle" x="341" y="-99.8" font-family="Times,serif" font-size="14.00" fill="#000000">UiButtonProgressBarComponent</text>
</g>
<!-- UiProgressButtonModule -->
<g id="node3" class="node">
<title>UiProgressButtonModule</title>
<polygon fill="#8dd3c7" stroke="#000000" points="319.8725,-187 316.8725,-191 295.8725,-191 292.8725,-187 160.1275,-187 160.1275,-151 319.8725,-151 319.8725,-187"/>
<text text-anchor="middle" x="240" y="-164.8" font-family="Times,serif" font-size="14.00" fill="#000000">UiProgressButtonModule</text>
</g>
<!-- UiButtonProgressBarComponent&#45;&gt;UiProgressButtonModule -->
<g id="edge1" class="edge">
<title>UiButtonProgressBarComponent&#45;&gt;UiProgressButtonModule</title>
<path fill="none" stroke="#000000" d="M280.0014,-122.1061C280.0014,-122.1061 280.0014,-140.991 280.0014,-140.991"/>
<polygon fill="#000000" stroke="#000000" points="276.5015,-140.9909 280.0014,-150.991 283.5015,-140.991 276.5015,-140.9909"/>
</g>
<!-- UiProgressButtonDirective -->
<g id="node2" class="node">
<title>UiProgressButtonDirective</title>
<polygon fill="#ffffb3" stroke="#000000" points="222.4059,-122 53.5941,-122 53.5941,-86 222.4059,-86 222.4059,-122"/>
<text text-anchor="middle" x="138" y="-99.8" font-family="Times,serif" font-size="14.00" fill="#000000">UiProgressButtonDirective</text>
</g>
<!-- UiProgressButtonDirective&#45;&gt;UiProgressButtonModule -->
<g id="edge2" class="edge">
<title>UiProgressButtonDirective&#45;&gt;UiProgressButtonModule</title>
<path fill="none" stroke="#000000" d="M191.1333,-122.1061C191.1333,-122.1061 191.1333,-140.991 191.1333,-140.991"/>
<polygon fill="#000000" stroke="#000000" points="187.6333,-140.9909 191.1333,-150.991 194.6333,-140.991 187.6333,-140.9909"/>
</g>
<!-- UiProgressButtonDirective  -->
<g id="node4" class="node">
<title>UiProgressButtonDirective </title>
<polygon fill="#fb8072" stroke="#000000" points="325.9054,-252 154.0946,-252 154.0946,-216 325.9054,-216 325.9054,-252"/>
<text text-anchor="middle" x="240" y="-229.8" font-family="Times,serif" font-size="14.00" fill="#000000">UiProgressButtonDirective </text>
</g>
<!-- UiProgressButtonModule&#45;&gt;UiProgressButtonDirective  -->
<g id="edge3" class="edge">
<title>UiProgressButtonModule&#45;&gt;UiProgressButtonDirective </title>
<path fill="none" stroke="#000000" stroke-dasharray="5,2" d="M240,-187.1061C240,-187.1061 240,-205.991 240,-205.991"/>
<polygon fill="#000000" stroke="#000000" points="236.5001,-205.9909 240,-215.991 243.5001,-205.991 236.5001,-205.9909"/>
</g>
</g>
</svg>
