<?xml version="1.0" encoding="UTF-8" standalone="no"?>
<!DOCTYPE svg PUBLIC "-//W3C//DTD SVG 1.1//EN"
 "http://www.w3.org/Graphics/SVG/1.1/DTD/svg11.dtd">
<!-- Generated by graphviz version 2.47.3 (20210619.1520)
 -->
<!-- Title: dependencies Pages: 1 -->
<svg width="444pt" height="247pt"
 viewBox="0.00 0.00 444.00 246.80" xmlns="http://www.w3.org/2000/svg" xmlns:xlink="http://www.w3.org/1999/xlink">
<g id="graph0" class="graph" transform="scale(1 1) rotate(0) translate(4 242.8)">
<title>dependencies</title>
<polygon fill="white" stroke="transparent" points="-4,4 -4,-242.8 440,-242.8 440,4 -4,4"/>
<text text-anchor="middle" x="218" y="-8.2" font-family="sans-serif" font-size="14.00">dependencies</text>
<g id="clust1" class="cluster">
<title>cluster_UiProgressButtonModule</title>
<polygon fill="none" stroke="black" stroke-dasharray="1,5" points="8,-32.8 8,-230.8 428,-230.8 428,-32.8 8,-32.8"/>
</g>
<g id="clust6" class="cluster">
<title>cluster_UiProgressButtonModule_exports</title>
<polygon fill="none" stroke="black" points="116,-170.8 116,-222.8 304,-222.8 304,-170.8 116,-170.8"/>
</g>
<g id="clust2" class="cluster">
<title>cluster_UiProgressButtonModule_declarations</title>
<polygon fill="none" stroke="black" points="16,-40.8 16,-92.8 420,-92.8 420,-40.8 16,-40.8"/>
</g>
<!-- UiButtonProgressBarComponent -->
<g id="node1" class="node">
<title>UiButtonProgressBarComponent</title>
<polygon fill="#ffffb3" stroke="black" points="411.87,-84.8 210.13,-84.8 210.13,-48.8 411.87,-48.8 411.87,-84.8"/>
<text text-anchor="middle" x="311" y="-62.6" font-family="Times,serif" font-size="14.00">UiButtonProgressBarComponent</text>
</g>
<!-- UiProgressButtonModule -->
<g id="node3" class="node">
<title>UiProgressButtonModule</title>
<polygon fill="#8dd3c7" stroke="black" points="289.87,-149.8 286.87,-153.8 265.87,-153.8 262.87,-149.8 130.13,-149.8 130.13,-113.8 289.87,-113.8 289.87,-149.8"/>
<text text-anchor="middle" x="210" y="-127.6" font-family="Times,serif" font-size="14.00">UiProgressButtonModule</text>
</g>
<!-- UiButtonProgressBarComponent&#45;&gt;UiProgressButtonModule -->
<g id="edge1" class="edge">
<title>UiButtonProgressBarComponent&#45;&gt;UiProgressButtonModule</title>
<path fill="none" stroke="black" d="M250,-84.91C250,-84.91 250,-103.79 250,-103.79"/>
<polygon fill="black" stroke="black" points="246.5,-103.79 250,-113.79 253.5,-103.79 246.5,-103.79"/>
</g>
<!-- UiProgressButtonDirective -->
<g id="node2" class="node">
<title>UiProgressButtonDirective</title>
<polygon fill="#ffffb3" stroke="black" points="192.41,-84.8 23.59,-84.8 23.59,-48.8 192.41,-48.8 192.41,-84.8"/>
<text text-anchor="middle" x="108" y="-62.6" font-family="Times,serif" font-size="14.00">UiProgressButtonDirective</text>
</g>
<!-- UiProgressButtonDirective&#45;&gt;UiProgressButtonModule -->
<g id="edge2" class="edge">
<title>UiProgressButtonDirective&#45;&gt;UiProgressButtonModule</title>
<path fill="none" stroke="black" d="M161.13,-84.91C161.13,-84.91 161.13,-103.79 161.13,-103.79"/>
<polygon fill="black" stroke="black" points="157.63,-103.79 161.13,-113.79 164.63,-103.79 157.63,-103.79"/>
</g>
<!-- UiProgressButtonDirective  -->
<g id="node4" class="node">
<title>UiProgressButtonDirective </title>
<polygon fill="#fb8072" stroke="black" points="295.91,-214.8 124.09,-214.8 124.09,-178.8 295.91,-178.8 295.91,-214.8"/>
<text text-anchor="middle" x="210" y="-192.6" font-family="Times,serif" font-size="14.00">UiProgressButtonDirective </text>
</g>
<!-- UiProgressButtonModule&#45;&gt;UiProgressButtonDirective  -->
<g id="edge3" class="edge">
<title>UiProgressButtonModule&#45;&gt;UiProgressButtonDirective </title>
<path fill="none" stroke="black" stroke-dasharray="5,2" d="M210,-149.91C210,-149.91 210,-168.79 210,-168.79"/>
<polygon fill="black" stroke="black" points="206.5,-168.79 210,-178.79 213.5,-168.79 206.5,-168.79"/>
</g>
</g>
</svg>
