<?xml version="1.0" encoding="UTF-8" standalone="no"?>
<!DOCTYPE svg PUBLIC "-//W3C//DTD SVG 1.1//EN"
 "http://www.w3.org/Graphics/SVG/1.1/DTD/svg11.dtd">
<!-- Generated by graphviz version 2.47.3 (20210619.1520)
 -->
<!-- Title: dependencies Pages: 1 -->
<svg width="933pt" height="174pt"
 viewBox="0.00 0.00 933.00 173.80" xmlns="http://www.w3.org/2000/svg" xmlns:xlink="http://www.w3.org/1999/xlink">
<g id="graph0" class="graph" transform="scale(1 1) rotate(0) translate(4 169.8)">
<title>dependencies</title>
<polygon fill="white" stroke="transparent" points="-4,4 -4,-169.8 929,-169.8 929,4 -4,4"/>
<text text-anchor="middle" x="462.5" y="-8.2" font-family="sans-serif" font-size="14.00">dependencies</text>
<g id="clust1" class="cluster">
<title>cluster_UiSuggestModule</title>
<polygon fill="none" stroke="black" stroke-dasharray="1,5" points="8,-32.8 8,-157.8 917,-157.8 917,-32.8 8,-32.8"/>
</g>
<g id="clust3" class="cluster">
<title>cluster_UiSuggestModule_imports</title>
<polygon fill="none" stroke="black" points="16,-40.8 16,-92.8 909,-92.8 909,-40.8 16,-40.8"/>
</g>
<!-- UiAutoAccessibleLabelModule -->
<g id="node1" class="node">
<title>UiAutoAccessibleLabelModule</title>
<polygon fill="#8dd3c7" stroke="black" points="901.05,-84.8 898.05,-88.8 877.05,-88.8 874.05,-84.8 706.95,-84.8 706.95,-48.8 901.05,-48.8 901.05,-84.8"/>
<text text-anchor="middle" x="804" y="-62.6" font-family="Times,serif" font-size="14.00">UiAutoAccessibleLabelModule</text>
</g>
<!-- UiSuggestModule -->
<g id="node6" class="node">
<title>UiSuggestModule</title>
<polygon fill="#8dd3c7" stroke="black" points="523.88,-149.8 520.88,-153.8 499.88,-153.8 496.88,-149.8 406.12,-149.8 406.12,-113.8 523.88,-113.8 523.88,-149.8"/>
<text text-anchor="middle" x="465" y="-127.6" font-family="Times,serif" font-size="14.00">UiSuggestModule</text>
</g>
<!-- UiAutoAccessibleLabelModule&#45;&gt;UiSuggestModule -->
<g id="edge1" class="edge">
<title>UiAutoAccessibleLabelModule&#45;&gt;UiSuggestModule</title>
<path fill="none" stroke="black" d="M804,-85.08C804,-106.12 804,-137.8 804,-137.8 804,-137.8 534.05,-137.8 534.05,-137.8"/>
<polygon fill="black" stroke="black" points="534.05,-134.3 524.05,-137.8 534.05,-141.3 534.05,-134.3"/>
</g>
<!-- UiAutofocusModule -->
<g id="node2" class="node">
<title>UiAutofocusModule</title>
<polygon fill="#8dd3c7" stroke="black" points="688.86,-84.8 685.86,-88.8 664.86,-88.8 661.86,-84.8 557.14,-84.8 557.14,-48.8 688.86,-48.8 688.86,-84.8"/>
<text text-anchor="middle" x="623" y="-62.6" font-family="Times,serif" font-size="14.00">UiAutofocusModule</text>
</g>
<!-- UiAutofocusModule&#45;&gt;UiSuggestModule -->
<g id="edge2" class="edge">
<title>UiAutofocusModule&#45;&gt;UiSuggestModule</title>
<path fill="none" stroke="black" d="M623,-84.82C623,-102.17 623,-125.8 623,-125.8 623,-125.8 534.28,-125.8 534.28,-125.8"/>
<polygon fill="black" stroke="black" points="534.28,-122.3 524.28,-125.8 534.28,-129.3 534.28,-122.3"/>
</g>
<!-- UiClickOutsideModule -->
<g id="node3" class="node">
<title>UiClickOutsideModule</title>
<polygon fill="#8dd3c7" stroke="black" points="538.93,-84.8 535.93,-88.8 514.93,-88.8 511.93,-84.8 391.07,-84.8 391.07,-48.8 538.93,-48.8 538.93,-84.8"/>
<text text-anchor="middle" x="465" y="-62.6" font-family="Times,serif" font-size="14.00">UiClickOutsideModule</text>
</g>
<!-- UiClickOutsideModule&#45;&gt;UiSuggestModule -->
<g id="edge3" class="edge">
<title>UiClickOutsideModule&#45;&gt;UiSuggestModule</title>
<path fill="none" stroke="black" d="M465,-84.91C465,-84.91 465,-103.79 465,-103.79"/>
<polygon fill="black" stroke="black" points="461.5,-103.79 465,-113.79 468.5,-103.79 461.5,-103.79"/>
</g>
<!-- UiNgLetModule -->
<g id="node4" class="node">
<title>UiNgLetModule</title>
<polygon fill="#8dd3c7" stroke="black" points="373.81,-84.8 370.81,-88.8 349.81,-88.8 346.81,-84.8 264.19,-84.8 264.19,-48.8 373.81,-48.8 373.81,-84.8"/>
<text text-anchor="middle" x="319" y="-62.6" font-family="Times,serif" font-size="14.00">UiNgLetModule</text>
</g>
<!-- UiNgLetModule&#45;&gt;UiSuggestModule -->
<g id="edge4" class="edge">
<title>UiNgLetModule&#45;&gt;UiSuggestModule</title>
<path fill="none" stroke="black" d="M319,-84.82C319,-102.17 319,-125.8 319,-125.8 319,-125.8 396.04,-125.8 396.04,-125.8"/>
<polygon fill="black" stroke="black" points="396.04,-129.3 406.04,-125.8 396.04,-122.3 396.04,-129.3"/>
</g>
<!-- UiVirtualScrollRangeLoaderModule -->
<g id="node5" class="node">
<title>UiVirtualScrollRangeLoaderModule</title>
<polygon fill="#8dd3c7" stroke="black" points="246.05,-84.8 243.05,-88.8 222.05,-88.8 219.05,-84.8 23.95,-84.8 23.95,-48.8 246.05,-48.8 246.05,-84.8"/>
<text text-anchor="middle" x="135" y="-62.6" font-family="Times,serif" font-size="14.00">UiVirtualScrollRangeLoaderModule</text>
</g>
<!-- UiVirtualScrollRangeLoaderModule&#45;&gt;UiSuggestModule -->
<g id="edge5" class="edge">
<title>UiVirtualScrollRangeLoaderModule&#45;&gt;UiSuggestModule</title>
<path fill="none" stroke="black" d="M135,-85.08C135,-106.12 135,-137.8 135,-137.8 135,-137.8 396,-137.8 396,-137.8"/>
<polygon fill="black" stroke="black" points="396,-141.3 406,-137.8 396,-134.3 396,-141.3"/>
</g>
</g>
</svg>
