<?xml version="1.0" encoding="UTF-8" standalone="no"?>
<!DOCTYPE svg PUBLIC "-//W3C//DTD SVG 1.1//EN"
 "http://www.w3.org/Graphics/SVG/1.1/DTD/svg11.dtd">
<!-- Generated by graphviz version 2.40.1 (20161225.0304)
 -->
<!-- Title: dependencies Pages: 1 -->
<svg width="721pt" height="211pt"
 viewBox="0.00 0.00 721.00 211.00" xmlns="http://www.w3.org/2000/svg" xmlns:xlink="http://www.w3.org/1999/xlink">
<g id="graph0" class="graph" transform="scale(1 1) rotate(0) translate(4 207)">
<title>dependencies</title>
<polygon fill="#ffffff" stroke="transparent" points="-4,4 -4,-207 717,-207 717,4 -4,4"/>
<text text-anchor="start" x="335.5091" y="-42.4" font-family="sans-serif" font-weight="bold" font-size="14.00" fill="#000000">Legend</text>
<polygon fill="#ffffb3" stroke="transparent" points="122.5,-10 122.5,-30 142.5,-30 142.5,-10 122.5,-10"/>
<text text-anchor="start" x="146.129" y="-15.4" font-family="sans-serif" font-size="14.00" fill="#000000"> &#160;Declarations</text>
<polygon fill="#8dd3c7" stroke="transparent" points="235.5,-10 235.5,-30 255.5,-30 255.5,-10 235.5,-10"/>
<text text-anchor="start" x="259.2251" y="-15.4" font-family="sans-serif" font-size="14.00" fill="#000000"> &#160;Module</text>
<polygon fill="#80b1d3" stroke="transparent" points="321.5,-10 321.5,-30 341.5,-30 341.5,-10 321.5,-10"/>
<text text-anchor="start" x="345.2812" y="-15.4" font-family="sans-serif" font-size="14.00" fill="#000000"> &#160;Bootstrap</text>
<polygon fill="#fdb462" stroke="transparent" points="418.5,-10 418.5,-30 438.5,-30 438.5,-10 418.5,-10"/>
<text text-anchor="start" x="442.1732" y="-15.4" font-family="sans-serif" font-size="14.00" fill="#000000"> &#160;Providers</text>
<polygon fill="#fb8072" stroke="transparent" points="514.5,-10 514.5,-30 534.5,-30 534.5,-10 514.5,-10"/>
<text text-anchor="start" x="538.2258" y="-15.4" font-family="sans-serif" font-size="14.00" fill="#000000"> &#160;Exports</text>
<g id="clust1" class="cluster">
<title>cluster_UiSuggestModule</title>
<polygon fill="none" stroke="#000000" stroke-dasharray="1,5" points="8,-70 8,-195 705,-195 705,-70 8,-70"/>
</g>
<g id="clust3" class="cluster">
<title>cluster_UiSuggestModule_imports</title>
<polygon fill="none" stroke="#000000" points="16,-78 16,-130 697,-130 697,-78 16,-78"/>
</g>
<!-- UiAutofocusModule -->
<g id="node1" class="node">
<title>UiAutofocusModule</title>
<polygon fill="#8dd3c7" stroke="#000000" points="688.8641,-122 685.8641,-126 664.8641,-126 661.8641,-122 557.1359,-122 557.1359,-86 688.8641,-86 688.8641,-122"/>
<text text-anchor="middle" x="623" y="-99.8" font-family="Times,serif" font-size="14.00" fill="#000000">UiAutofocusModule</text>
</g>
<!-- UiSuggestModule -->
<g id="node5" class="node">
<title>UiSuggestModule</title>
<polygon fill="#8dd3c7" stroke="#000000" points="450.8795,-187 447.8795,-191 426.8795,-191 423.8795,-187 333.1205,-187 333.1205,-151 450.8795,-151 450.8795,-187"/>
<text text-anchor="middle" x="392" y="-164.8" font-family="Times,serif" font-size="14.00" fill="#000000">UiSuggestModule</text>
</g>
<!-- UiAutofocusModule&#45;&gt;UiSuggestModule -->
<g id="edge1" class="edge">
<title>UiAutofocusModule&#45;&gt;UiSuggestModule</title>
<path fill="none" stroke="#000000" d="M623,-122.1061C623,-141.3391 623,-169 623,-169 623,-169 460.8887,-169 460.8887,-169"/>
<polygon fill="#000000" stroke="#000000" points="460.8888,-165.5001 450.8887,-169 460.8887,-172.5001 460.8888,-165.5001"/>
</g>
<!-- UiClickOutsideModule -->
<g id="node2" class="node">
<title>UiClickOutsideModule</title>
<polygon fill="#8dd3c7" stroke="#000000" points="538.927,-122 535.927,-126 514.927,-126 511.927,-122 391.073,-122 391.073,-86 538.927,-86 538.927,-122"/>
<text text-anchor="middle" x="465" y="-99.8" font-family="Times,serif" font-size="14.00" fill="#000000">UiClickOutsideModule</text>
</g>
<!-- UiClickOutsideModule&#45;&gt;UiSuggestModule -->
<g id="edge2" class="edge">
<title>UiClickOutsideModule&#45;&gt;UiSuggestModule</title>
<path fill="none" stroke="#000000" d="M421.1133,-122.1061C421.1133,-122.1061 421.1133,-140.991 421.1133,-140.991"/>
<polygon fill="#000000" stroke="#000000" points="417.6133,-140.9909 421.1133,-150.991 424.6133,-140.991 417.6133,-140.9909"/>
</g>
<!-- UiNgLetModule -->
<g id="node3" class="node">
<title>UiNgLetModule</title>
<polygon fill="#8dd3c7" stroke="#000000" points="373.8118,-122 370.8118,-126 349.8118,-126 346.8118,-122 264.1882,-122 264.1882,-86 373.8118,-86 373.8118,-122"/>
<text text-anchor="middle" x="319" y="-99.8" font-family="Times,serif" font-size="14.00" fill="#000000">UiNgLetModule</text>
</g>
<!-- UiNgLetModule&#45;&gt;UiSuggestModule -->
<g id="edge3" class="edge">
<title>UiNgLetModule&#45;&gt;UiSuggestModule</title>
<path fill="none" stroke="#000000" d="M353.358,-122.1061C353.358,-122.1061 353.358,-140.991 353.358,-140.991"/>
<polygon fill="#000000" stroke="#000000" points="349.8581,-140.9909 353.358,-150.991 356.8581,-140.991 349.8581,-140.9909"/>
</g>
<!-- UiVirtualScrollRangeLoaderModule -->
<g id="node4" class="node">
<title>UiVirtualScrollRangeLoaderModule</title>
<polygon fill="#8dd3c7" stroke="#000000" points="246.0478,-122 243.0478,-126 222.0478,-126 219.0478,-122 23.9522,-122 23.9522,-86 246.0478,-86 246.0478,-122"/>
<text text-anchor="middle" x="135" y="-99.8" font-family="Times,serif" font-size="14.00" fill="#000000">UiVirtualScrollRangeLoaderModule</text>
</g>
<!-- UiVirtualScrollRangeLoaderModule&#45;&gt;UiSuggestModule -->
<g id="edge4" class="edge">
<title>UiVirtualScrollRangeLoaderModule&#45;&gt;UiSuggestModule</title>
<path fill="none" stroke="#000000" d="M135,-122.1061C135,-141.3391 135,-169 135,-169 135,-169 323.039,-169 323.039,-169"/>
<polygon fill="#000000" stroke="#000000" points="323.039,-172.5001 333.039,-169 323.039,-165.5001 323.039,-172.5001"/>
</g>
</g>
</svg>
