<?xml version="1.0" encoding="UTF-8" standalone="no"?>
<!DOCTYPE svg PUBLIC "-//W3C//DTD SVG 1.1//EN"
 "http://www.w3.org/Graphics/SVG/1.1/DTD/svg11.dtd">
<!-- Generated by graphviz version 2.47.3 (20210619.1520)
 -->
<!-- Title: dependencies Pages: 1 -->
<svg width="721pt" height="174pt"
 viewBox="0.00 0.00 721.00 173.80" xmlns="http://www.w3.org/2000/svg" xmlns:xlink="http://www.w3.org/1999/xlink">
<g id="graph0" class="graph" transform="scale(1 1) rotate(0) translate(4 169.8)">
<title>dependencies</title>
<polygon fill="white" stroke="transparent" points="-4,4 -4,-169.8 717,-169.8 717,4 -4,4"/>
<text text-anchor="middle" x="356.5" y="-8.2" font-family="sans-serif" font-size="14.00">dependencies</text>
<g id="clust1" class="cluster">
<title>cluster_UiSuggestModule</title>
<polygon fill="none" stroke="black" stroke-dasharray="1,5" points="8,-32.8 8,-157.8 705,-157.8 705,-32.8 8,-32.8"/>
</g>
<g id="clust3" class="cluster">
<title>cluster_UiSuggestModule_imports</title>
<polygon fill="none" stroke="black" points="16,-40.8 16,-92.8 697,-92.8 697,-40.8 16,-40.8"/>
</g>
<!-- UiAutofocusModule -->
<g id="node1" class="node">
<title>UiAutofocusModule</title>
<polygon fill="#8dd3c7" stroke="black" points="688.86,-84.8 685.86,-88.8 664.86,-88.8 661.86,-84.8 557.14,-84.8 557.14,-48.8 688.86,-48.8 688.86,-84.8"/>
<text text-anchor="middle" x="623" y="-62.6" font-family="Times,serif" font-size="14.00">UiAutofocusModule</text>
</g>
<!-- UiSuggestModule -->
<g id="node5" class="node">
<title>UiSuggestModule</title>
<polygon fill="#8dd3c7" stroke="black" points="450.88,-149.8 447.88,-153.8 426.88,-153.8 423.88,-149.8 333.12,-149.8 333.12,-113.8 450.88,-113.8 450.88,-149.8"/>
<text text-anchor="middle" x="392" y="-127.6" font-family="Times,serif" font-size="14.00">UiSuggestModule</text>
</g>
<!-- UiAutofocusModule&#45;&gt;UiSuggestModule -->
<g id="edge1" class="edge">
<title>UiAutofocusModule&#45;&gt;UiSuggestModule</title>
<path fill="none" stroke="black" d="M623,-84.91C623,-104.14 623,-131.8 623,-131.8 623,-131.8 460.89,-131.8 460.89,-131.8"/>
<polygon fill="black" stroke="black" points="460.89,-128.3 450.89,-131.8 460.89,-135.3 460.89,-128.3"/>
</g>
<!-- UiClickOutsideModule -->
<g id="node2" class="node">
<title>UiClickOutsideModule</title>
<polygon fill="#8dd3c7" stroke="black" points="538.93,-84.8 535.93,-88.8 514.93,-88.8 511.93,-84.8 391.07,-84.8 391.07,-48.8 538.93,-48.8 538.93,-84.8"/>
<text text-anchor="middle" x="465" y="-62.6" font-family="Times,serif" font-size="14.00">UiClickOutsideModule</text>
</g>
<!-- UiClickOutsideModule&#45;&gt;UiSuggestModule -->
<g id="edge2" class="edge">
<title>UiClickOutsideModule&#45;&gt;UiSuggestModule</title>
<path fill="none" stroke="black" d="M421.11,-84.91C421.11,-84.91 421.11,-103.79 421.11,-103.79"/>
<polygon fill="black" stroke="black" points="417.61,-103.79 421.11,-113.79 424.61,-103.79 417.61,-103.79"/>
</g>
<!-- UiNgLetModule -->
<g id="node3" class="node">
<title>UiNgLetModule</title>
<polygon fill="#8dd3c7" stroke="black" points="373.81,-84.8 370.81,-88.8 349.81,-88.8 346.81,-84.8 264.19,-84.8 264.19,-48.8 373.81,-48.8 373.81,-84.8"/>
<text text-anchor="middle" x="319" y="-62.6" font-family="Times,serif" font-size="14.00">UiNgLetModule</text>
</g>
<!-- UiNgLetModule&#45;&gt;UiSuggestModule -->
<g id="edge3" class="edge">
<title>UiNgLetModule&#45;&gt;UiSuggestModule</title>
<path fill="none" stroke="black" d="M353.36,-84.91C353.36,-84.91 353.36,-103.79 353.36,-103.79"/>
<polygon fill="black" stroke="black" points="349.86,-103.79 353.36,-113.79 356.86,-103.79 349.86,-103.79"/>
</g>
<!-- UiVirtualScrollRangeLoaderModule -->
<g id="node4" class="node">
<title>UiVirtualScrollRangeLoaderModule</title>
<polygon fill="#8dd3c7" stroke="black" points="246.05,-84.8 243.05,-88.8 222.05,-88.8 219.05,-84.8 23.95,-84.8 23.95,-48.8 246.05,-48.8 246.05,-84.8"/>
<text text-anchor="middle" x="135" y="-62.6" font-family="Times,serif" font-size="14.00">UiVirtualScrollRangeLoaderModule</text>
</g>
<!-- UiVirtualScrollRangeLoaderModule&#45;&gt;UiSuggestModule -->
<g id="edge4" class="edge">
<title>UiVirtualScrollRangeLoaderModule&#45;&gt;UiSuggestModule</title>
<path fill="none" stroke="black" d="M135,-84.91C135,-104.14 135,-131.8 135,-131.8 135,-131.8 323.04,-131.8 323.04,-131.8"/>
<polygon fill="black" stroke="black" points="323.04,-135.3 333.04,-131.8 323.04,-128.3 323.04,-135.3"/>
</g>
</g>
</svg>
