<?xml version="1.0" encoding="UTF-8" standalone="no"?>
<!DOCTYPE svg PUBLIC "-//W3C//DTD SVG 1.1//EN"
 "http://www.w3.org/Graphics/SVG/1.1/DTD/svg11.dtd">
<!-- Generated by graphviz version 2.47.3 (20210619.1520)
 -->
<!-- Title: dependencies Pages: 1 -->
<svg width="486pt" height="247pt"
 viewBox="0.00 0.00 486.00 246.80" xmlns="http://www.w3.org/2000/svg" xmlns:xlink="http://www.w3.org/1999/xlink">
<g id="graph0" class="graph" transform="scale(1 1) rotate(0) translate(4 242.8)">
<title>dependencies</title>
<polygon fill="white" stroke="transparent" points="-4,4 -4,-242.8 482,-242.8 482,4 -4,4"/>
<text text-anchor="middle" x="239" y="-8.2" font-family="sans-serif" font-size="14.00">dependencies</text>
<g id="clust1" class="cluster">
<title>cluster_UiGridToggleColumnsModule</title>
<polygon fill="none" stroke="black" stroke-dasharray="1,5" points="8,-32.8 8,-230.8 470,-230.8 470,-32.8 8,-32.8"/>
</g>
<g id="clust2" class="cluster">
<title>cluster_UiGridToggleColumnsModule_declarations</title>
<polygon fill="none" stroke="black" points="234,-40.8 234,-92.8 462,-92.8 462,-40.8 234,-40.8"/>
</g>
<g id="clust4" class="cluster">
<title>cluster_UiGridToggleColumnsModule_imports</title>
<polygon fill="none" stroke="black" points="16,-40.8 16,-92.8 226,-92.8 226,-40.8 16,-40.8"/>
</g>
<g id="clust5" class="cluster">
<title>cluster_UiGridToggleColumnsModule_exports</title>
<polygon fill="none" stroke="black" points="124,-170.8 124,-222.8 354,-222.8 354,-170.8 124,-170.8"/>
</g>
<!-- UiGridToggleColumnsComponent -->
<g id="node1" class="node">
<title>UiGridToggleColumnsComponent</title>
<polygon fill="#ffffb3" stroke="black" points="453.71,-84.8 242.29,-84.8 242.29,-48.8 453.71,-48.8 453.71,-84.8"/>
<text text-anchor="middle" x="348" y="-62.6" font-family="Times,serif" font-size="14.00">UiGridToggleColumnsComponent</text>
</g>
<!-- UiGridToggleColumnsModule -->
<g id="node2" class="node">
<title>UiGridToggleColumnsModule</title>
<polygon fill="#8dd3c7" stroke="black" points="333.93,-149.8 330.93,-153.8 309.93,-153.8 306.93,-149.8 144.07,-149.8 144.07,-113.8 333.93,-113.8 333.93,-149.8"/>
<text text-anchor="middle" x="239" y="-127.6" font-family="Times,serif" font-size="14.00">UiGridToggleColumnsModule</text>
</g>
<!-- UiGridToggleColumnsComponent&#45;&gt;UiGridToggleColumnsModule -->
<g id="edge1" class="edge">
<title>UiGridToggleColumnsComponent&#45;&gt;UiGridToggleColumnsModule</title>
<path fill="none" stroke="black" d="M288.05,-84.91C288.05,-84.91 288.05,-103.79 288.05,-103.79"/>
<polygon fill="black" stroke="black" points="284.55,-103.79 288.05,-113.79 291.55,-103.79 284.55,-103.79"/>
</g>
<!-- UiGridToggleColumnsComponent  -->
<g id="node4" class="node">
<title>UiGridToggleColumnsComponent </title>
<polygon fill="#fb8072" stroke="black" points="346.21,-214.8 131.79,-214.8 131.79,-178.8 346.21,-178.8 346.21,-214.8"/>
<text text-anchor="middle" x="239" y="-192.6" font-family="Times,serif" font-size="14.00">UiGridToggleColumnsComponent </text>
</g>
<!-- UiGridToggleColumnsModule&#45;&gt;UiGridToggleColumnsComponent  -->
<g id="edge3" class="edge">
<title>UiGridToggleColumnsModule&#45;&gt;UiGridToggleColumnsComponent </title>
<path fill="none" stroke="black" stroke-dasharray="5,2" d="M239,-149.91C239,-149.91 239,-168.79 239,-168.79"/>
<polygon fill="black" stroke="black" points="235.5,-168.79 239,-178.79 242.5,-168.79 235.5,-168.79"/>
</g>
<!-- UiAutoAccessibleLabelModule -->
<g id="node3" class="node">
<title>UiAutoAccessibleLabelModule</title>
<polygon fill="#8dd3c7" stroke="black" points="218.05,-84.8 215.05,-88.8 194.05,-88.8 191.05,-84.8 23.95,-84.8 23.95,-48.8 218.05,-48.8 218.05,-84.8"/>
<text text-anchor="middle" x="121" y="-62.6" font-family="Times,serif" font-size="14.00">UiAutoAccessibleLabelModule</text>
</g>
<!-- UiAutoAccessibleLabelModule&#45;&gt;UiGridToggleColumnsModule -->
<g id="edge2" class="edge">
<title>UiAutoAccessibleLabelModule&#45;&gt;UiGridToggleColumnsModule</title>
<path fill="none" stroke="black" d="M181.16,-84.91C181.16,-84.91 181.16,-103.79 181.16,-103.79"/>
<polygon fill="black" stroke="black" points="177.66,-103.79 181.16,-113.79 184.66,-103.79 177.66,-103.79"/>
</g>
</g>
</svg>
