<?xml version="1.0" encoding="UTF-8" standalone="no"?>
<!DOCTYPE svg PUBLIC "-//W3C//DTD SVG 1.1//EN"
 "http://www.w3.org/Graphics/SVG/1.1/DTD/svg11.dtd">
<!-- Generated by graphviz version 2.40.1 (20161225.0304)
 -->
<!-- Title: dependencies Pages: 1 -->
<svg width="504pt" height="284pt"
 viewBox="0.00 0.00 504.00 284.00" xmlns="http://www.w3.org/2000/svg" xmlns:xlink="http://www.w3.org/1999/xlink">
<g id="graph0" class="graph" transform="scale(1 1) rotate(0) translate(4 280)">
<title>dependencies</title>
<polygon fill="#ffffff" stroke="transparent" points="-4,4 -4,-280 500,-280 500,4 -4,4"/>
<text text-anchor="start" x="227.0091" y="-42.4" font-family="sans-serif" font-weight="bold" font-size="14.00" fill="#000000">Legend</text>
<polygon fill="#ffffb3" stroke="transparent" points="14,-10 14,-30 34,-30 34,-10 14,-10"/>
<text text-anchor="start" x="37.629" y="-15.4" font-family="sans-serif" font-size="14.00" fill="#000000"> &#160;Declarations</text>
<polygon fill="#8dd3c7" stroke="transparent" points="127,-10 127,-30 147,-30 147,-10 127,-10"/>
<text text-anchor="start" x="150.7251" y="-15.4" font-family="sans-serif" font-size="14.00" fill="#000000"> &#160;Module</text>
<polygon fill="#80b1d3" stroke="transparent" points="213,-10 213,-30 233,-30 233,-10 213,-10"/>
<text text-anchor="start" x="236.7812" y="-15.4" font-family="sans-serif" font-size="14.00" fill="#000000"> &#160;Bootstrap</text>
<polygon fill="#fdb462" stroke="transparent" points="310,-10 310,-30 330,-30 330,-10 310,-10"/>
<text text-anchor="start" x="333.6732" y="-15.4" font-family="sans-serif" font-size="14.00" fill="#000000"> &#160;Providers</text>
<polygon fill="#fb8072" stroke="transparent" points="406,-10 406,-30 426,-30 426,-10 406,-10"/>
<text text-anchor="start" x="429.7258" y="-15.4" font-family="sans-serif" font-size="14.00" fill="#000000"> &#160;Exports</text>
<g id="clust1" class="cluster">
<title>cluster_UiGridToggleColumnsModule</title>
<polygon fill="none" stroke="#000000" stroke-dasharray="1,5" points="17,-70 17,-268 479,-268 479,-70 17,-70"/>
</g>
<g id="clust2" class="cluster">
<title>cluster_UiGridToggleColumnsModule_declarations</title>
<polygon fill="none" stroke="#000000" points="243,-78 243,-130 471,-130 471,-78 243,-78"/>
</g>
<g id="clust4" class="cluster">
<title>cluster_UiGridToggleColumnsModule_imports</title>
<polygon fill="none" stroke="#000000" points="25,-78 25,-130 235,-130 235,-78 25,-78"/>
</g>
<g id="clust5" class="cluster">
<title>cluster_UiGridToggleColumnsModule_exports</title>
<polygon fill="none" stroke="#000000" points="133,-208 133,-260 363,-260 363,-208 133,-208"/>
</g>
<!-- UiGridToggleColumnsComponent -->
<g id="node1" class="node">
<title>UiGridToggleColumnsComponent</title>
<polygon fill="#ffffb3" stroke="#000000" points="462.7077,-122 251.2923,-122 251.2923,-86 462.7077,-86 462.7077,-122"/>
<text text-anchor="middle" x="357" y="-99.8" font-family="Times,serif" font-size="14.00" fill="#000000">UiGridToggleColumnsComponent</text>
</g>
<!-- UiGridToggleColumnsModule -->
<g id="node2" class="node">
<title>UiGridToggleColumnsModule</title>
<polygon fill="#8dd3c7" stroke="#000000" points="342.9255,-187 339.9255,-191 318.9255,-191 315.9255,-187 153.0745,-187 153.0745,-151 342.9255,-151 342.9255,-187"/>
<text text-anchor="middle" x="248" y="-164.8" font-family="Times,serif" font-size="14.00" fill="#000000">UiGridToggleColumnsModule</text>
</g>
<!-- UiGridToggleColumnsComponent&#45;&gt;UiGridToggleColumnsModule -->
<g id="edge1" class="edge">
<title>UiGridToggleColumnsComponent&#45;&gt;UiGridToggleColumnsModule</title>
<path fill="none" stroke="#000000" d="M297.0544,-122.1061C297.0544,-122.1061 297.0544,-140.991 297.0544,-140.991"/>
<polygon fill="#000000" stroke="#000000" points="293.5544,-140.9909 297.0544,-150.991 300.5544,-140.991 293.5544,-140.9909"/>
</g>
<!-- UiGridToggleColumnsComponent  -->
<g id="node4" class="node">
<title>UiGridToggleColumnsComponent </title>
<polygon fill="#fb8072" stroke="#000000" points="355.2078,-252 140.7922,-252 140.7922,-216 355.2078,-216 355.2078,-252"/>
<text text-anchor="middle" x="248" y="-229.8" font-family="Times,serif" font-size="14.00" fill="#000000">UiGridToggleColumnsComponent </text>
</g>
<!-- UiGridToggleColumnsModule&#45;&gt;UiGridToggleColumnsComponent  -->
<g id="edge3" class="edge">
<title>UiGridToggleColumnsModule&#45;&gt;UiGridToggleColumnsComponent </title>
<path fill="none" stroke="#000000" stroke-dasharray="5,2" d="M248,-187.1061C248,-187.1061 248,-205.991 248,-205.991"/>
<polygon fill="#000000" stroke="#000000" points="244.5001,-205.9909 248,-215.991 251.5001,-205.991 244.5001,-205.9909"/>
</g>
<!-- UiAutoAccessibleLabelModule -->
<g id="node3" class="node">
<title>UiAutoAccessibleLabelModule</title>
<polygon fill="#8dd3c7" stroke="#000000" points="227.052,-122 224.052,-126 203.052,-126 200.052,-122 32.948,-122 32.948,-86 227.052,-86 227.052,-122"/>
<text text-anchor="middle" x="130" y="-99.8" font-family="Times,serif" font-size="14.00" fill="#000000">UiAutoAccessibleLabelModule</text>
</g>
<!-- UiAutoAccessibleLabelModule&#45;&gt;UiGridToggleColumnsModule -->
<g id="edge2" class="edge">
<title>UiAutoAccessibleLabelModule&#45;&gt;UiGridToggleColumnsModule</title>
<path fill="none" stroke="#000000" d="M190.1567,-122.1061C190.1567,-122.1061 190.1567,-140.991 190.1567,-140.991"/>
<polygon fill="#000000" stroke="#000000" points="186.6568,-140.9909 190.1567,-150.991 193.6568,-140.991 186.6568,-140.9909"/>
</g>
</g>
</svg>
