<?xml version="1.0" encoding="UTF-8" standalone="no"?>
<!DOCTYPE svg PUBLIC "-//W3C//DTD SVG 1.1//EN"
 "http://www.w3.org/Graphics/SVG/1.1/DTD/svg11.dtd">
<!-- Generated by graphviz version 2.40.1 (20161225.0304)
 -->
<!-- Title: dependencies Pages: 1 -->
<svg width="590pt" height="284pt"
 viewBox="0.00 0.00 590.00 284.00" xmlns="http://www.w3.org/2000/svg" xmlns:xlink="http://www.w3.org/1999/xlink">
<g id="graph0" class="graph" transform="scale(1 1) rotate(0) translate(4 280)">
<title>dependencies</title>
<polygon fill="#ffffff" stroke="transparent" points="-4,4 -4,-280 586,-280 586,4 -4,4"/>
<text text-anchor="start" x="270.0091" y="-42.4" font-family="sans-serif" font-weight="bold" font-size="14.00" fill="#000000">Legend</text>
<polygon fill="#ffffb3" stroke="transparent" points="57,-10 57,-30 77,-30 77,-10 57,-10"/>
<text text-anchor="start" x="80.629" y="-15.4" font-family="sans-serif" font-size="14.00" fill="#000000"> &#160;Declarations</text>
<polygon fill="#8dd3c7" stroke="transparent" points="170,-10 170,-30 190,-30 190,-10 170,-10"/>
<text text-anchor="start" x="193.7251" y="-15.4" font-family="sans-serif" font-size="14.00" fill="#000000"> &#160;Module</text>
<polygon fill="#80b1d3" stroke="transparent" points="256,-10 256,-30 276,-30 276,-10 256,-10"/>
<text text-anchor="start" x="279.7812" y="-15.4" font-family="sans-serif" font-size="14.00" fill="#000000"> &#160;Bootstrap</text>
<polygon fill="#fdb462" stroke="transparent" points="353,-10 353,-30 373,-30 373,-10 353,-10"/>
<text text-anchor="start" x="376.6732" y="-15.4" font-family="sans-serif" font-size="14.00" fill="#000000"> &#160;Providers</text>
<polygon fill="#fb8072" stroke="transparent" points="449,-10 449,-30 469,-30 469,-10 449,-10"/>
<text text-anchor="start" x="472.7258" y="-15.4" font-family="sans-serif" font-size="14.00" fill="#000000"> &#160;Exports</text>
<g id="clust1" class="cluster">
<title>cluster_UiPasswordToggleModule</title>
<polygon fill="none" stroke="#000000" stroke-dasharray="1,5" points="8,-70 8,-268 574,-268 574,-70 8,-70"/>
</g>
<g id="clust2" class="cluster">
<title>cluster_UiPasswordToggleModule_declarations</title>
<polygon fill="none" stroke="#000000" points="362,-78 362,-130 566,-130 566,-78 362,-78"/>
</g>
<g id="clust4" class="cluster">
<title>cluster_UiPasswordToggleModule_imports</title>
<polygon fill="none" stroke="#000000" points="16,-78 16,-130 354,-130 354,-78 16,-78"/>
</g>
<g id="clust5" class="cluster">
<title>cluster_UiPasswordToggleModule_exports</title>
<polygon fill="none" stroke="#000000" points="145,-208 145,-260 353,-260 353,-208 145,-208"/>
</g>
<!-- UiPasswordToggleComponent -->
<g id="node1" class="node">
<title>UiPasswordToggleComponent</title>
<polygon fill="#ffffb3" stroke="#000000" points="558.1413,-122 369.8587,-122 369.8587,-86 558.1413,-86 558.1413,-122"/>
<text text-anchor="middle" x="464" y="-99.8" font-family="Times,serif" font-size="14.00" fill="#000000">UiPasswordToggleComponent</text>
</g>
<!-- UiPasswordToggleModule -->
<g id="node2" class="node">
<title>UiPasswordToggleModule</title>
<polygon fill="#8dd3c7" stroke="#000000" points="332.3585,-187 329.3585,-191 308.3585,-191 305.3585,-187 165.6415,-187 165.6415,-151 332.3585,-151 332.3585,-187"/>
<text text-anchor="middle" x="249" y="-164.8" font-family="Times,serif" font-size="14.00" fill="#000000">UiPasswordToggleModule</text>
</g>
<!-- UiPasswordToggleComponent&#45;&gt;UiPasswordToggleModule -->
<g id="edge1" class="edge">
<title>UiPasswordToggleComponent&#45;&gt;UiPasswordToggleModule</title>
<path fill="none" stroke="#000000" d="M464,-122.1061C464,-141.3391 464,-169 464,-169 464,-169 342.4323,-169 342.4323,-169"/>
<polygon fill="#000000" stroke="#000000" points="342.4324,-165.5001 332.4323,-169 342.4323,-172.5001 342.4324,-165.5001"/>
</g>
<!-- UiPasswordToggleComponent  -->
<g id="node5" class="node">
<title>UiPasswordToggleComponent </title>
<polygon fill="#fb8072" stroke="#000000" points="345.1411,-252 152.8589,-252 152.8589,-216 345.1411,-216 345.1411,-252"/>
<text text-anchor="middle" x="249" y="-229.8" font-family="Times,serif" font-size="14.00" fill="#000000">UiPasswordToggleComponent </text>
</g>
<!-- UiPasswordToggleModule&#45;&gt;UiPasswordToggleComponent  -->
<g id="edge4" class="edge">
<title>UiPasswordToggleModule&#45;&gt;UiPasswordToggleComponent </title>
<path fill="none" stroke="#000000" stroke-dasharray="5,2" d="M249,-187.1061C249,-187.1061 249,-205.991 249,-205.991"/>
<polygon fill="#000000" stroke="#000000" points="245.5001,-205.9909 249,-215.991 252.5001,-205.991 245.5001,-205.9909"/>
</g>
<!-- UiAutoAccessibleLabelModule -->
<g id="node3" class="node">
<title>UiAutoAccessibleLabelModule</title>
<polygon fill="#8dd3c7" stroke="#000000" points="346.052,-122 343.052,-126 322.052,-126 319.052,-122 151.948,-122 151.948,-86 346.052,-86 346.052,-122"/>
<text text-anchor="middle" x="249" y="-99.8" font-family="Times,serif" font-size="14.00" fill="#000000">UiAutoAccessibleLabelModule</text>
</g>
<!-- UiAutoAccessibleLabelModule&#45;&gt;UiPasswordToggleModule -->
<g id="edge2" class="edge">
<title>UiAutoAccessibleLabelModule&#45;&gt;UiPasswordToggleModule</title>
<path fill="none" stroke="#000000" d="M249,-122.1061C249,-122.1061 249,-140.991 249,-140.991"/>
<polygon fill="#000000" stroke="#000000" points="245.5001,-140.9909 249,-150.991 252.5001,-140.991 245.5001,-140.9909"/>
</g>
<!-- UiNgLetModule -->
<g id="node4" class="node">
<title>UiNgLetModule</title>
<polygon fill="#8dd3c7" stroke="#000000" points="133.8118,-122 130.8118,-126 109.8118,-126 106.8118,-122 24.1882,-122 24.1882,-86 133.8118,-86 133.8118,-122"/>
<text text-anchor="middle" x="79" y="-99.8" font-family="Times,serif" font-size="14.00" fill="#000000">UiNgLetModule</text>
</g>
<!-- UiNgLetModule&#45;&gt;UiPasswordToggleModule -->
<g id="edge3" class="edge">
<title>UiNgLetModule&#45;&gt;UiPasswordToggleModule</title>
<path fill="none" stroke="#000000" d="M79,-122.1061C79,-141.3391 79,-169 79,-169 79,-169 155.4941,-169 155.4941,-169"/>
<polygon fill="#000000" stroke="#000000" points="155.4941,-172.5001 165.4941,-169 155.494,-165.5001 155.4941,-172.5001"/>
</g>
</g>
</svg>
