<?xml version="1.0" encoding="UTF-8" standalone="no"?>
<!DOCTYPE svg PUBLIC "-//W3C//DTD SVG 1.1//EN"
 "http://www.w3.org/Graphics/SVG/1.1/DTD/svg11.dtd">
<!-- Generated by graphviz version 2.47.3 (20210619.1520)
 -->
<!-- Title: dependencies Pages: 1 -->
<svg width="590pt" height="247pt"
 viewBox="0.00 0.00 590.00 246.80" xmlns="http://www.w3.org/2000/svg" xmlns:xlink="http://www.w3.org/1999/xlink">
<g id="graph0" class="graph" transform="scale(1 1) rotate(0) translate(4 242.8)">
<title>dependencies</title>
<polygon fill="white" stroke="transparent" points="-4,4 -4,-242.8 586,-242.8 586,4 -4,4"/>
<text text-anchor="middle" x="291" y="-8.2" font-family="sans-serif" font-size="14.00">dependencies</text>
<g id="clust1" class="cluster">
<title>cluster_UiPasswordToggleModule</title>
<polygon fill="none" stroke="black" stroke-dasharray="1,5" points="8,-32.8 8,-230.8 574,-230.8 574,-32.8 8,-32.8"/>
</g>
<g id="clust2" class="cluster">
<title>cluster_UiPasswordToggleModule_declarations</title>
<polygon fill="none" stroke="black" points="362,-40.8 362,-92.8 566,-92.8 566,-40.8 362,-40.8"/>
</g>
<g id="clust4" class="cluster">
<title>cluster_UiPasswordToggleModule_imports</title>
<polygon fill="none" stroke="black" points="16,-40.8 16,-92.8 354,-92.8 354,-40.8 16,-40.8"/>
</g>
<g id="clust5" class="cluster">
<title>cluster_UiPasswordToggleModule_exports</title>
<polygon fill="none" stroke="black" points="145,-170.8 145,-222.8 353,-222.8 353,-170.8 145,-170.8"/>
</g>
<!-- UiPasswordToggleComponent -->
<g id="node1" class="node">
<title>UiPasswordToggleComponent</title>
<polygon fill="#ffffb3" stroke="black" points="558.14,-84.8 369.86,-84.8 369.86,-48.8 558.14,-48.8 558.14,-84.8"/>
<text text-anchor="middle" x="464" y="-62.6" font-family="Times,serif" font-size="14.00">UiPasswordToggleComponent</text>
</g>
<!-- UiPasswordToggleModule -->
<g id="node2" class="node">
<title>UiPasswordToggleModule</title>
<polygon fill="#8dd3c7" stroke="black" points="332.36,-149.8 329.36,-153.8 308.36,-153.8 305.36,-149.8 165.64,-149.8 165.64,-113.8 332.36,-113.8 332.36,-149.8"/>
<text text-anchor="middle" x="249" y="-127.6" font-family="Times,serif" font-size="14.00">UiPasswordToggleModule</text>
</g>
<!-- UiPasswordToggleComponent&#45;&gt;UiPasswordToggleModule -->
<g id="edge1" class="edge">
<title>UiPasswordToggleComponent&#45;&gt;UiPasswordToggleModule</title>
<path fill="none" stroke="black" d="M464,-84.91C464,-104.14 464,-131.8 464,-131.8 464,-131.8 342.43,-131.8 342.43,-131.8"/>
<polygon fill="black" stroke="black" points="342.43,-128.3 332.43,-131.8 342.43,-135.3 342.43,-128.3"/>
</g>
<!-- UiPasswordToggleComponent  -->
<g id="node5" class="node">
<title>UiPasswordToggleComponent </title>
<polygon fill="#fb8072" stroke="black" points="345.14,-214.8 152.86,-214.8 152.86,-178.8 345.14,-178.8 345.14,-214.8"/>
<text text-anchor="middle" x="249" y="-192.6" font-family="Times,serif" font-size="14.00">UiPasswordToggleComponent </text>
</g>
<!-- UiPasswordToggleModule&#45;&gt;UiPasswordToggleComponent  -->
<g id="edge4" class="edge">
<title>UiPasswordToggleModule&#45;&gt;UiPasswordToggleComponent </title>
<path fill="none" stroke="black" stroke-dasharray="5,2" d="M249,-149.91C249,-149.91 249,-168.79 249,-168.79"/>
<polygon fill="black" stroke="black" points="245.5,-168.79 249,-178.79 252.5,-168.79 245.5,-168.79"/>
</g>
<!-- UiAutoAccessibleLabelModule -->
<g id="node3" class="node">
<title>UiAutoAccessibleLabelModule</title>
<polygon fill="#8dd3c7" stroke="black" points="346.05,-84.8 343.05,-88.8 322.05,-88.8 319.05,-84.8 151.95,-84.8 151.95,-48.8 346.05,-48.8 346.05,-84.8"/>
<text text-anchor="middle" x="249" y="-62.6" font-family="Times,serif" font-size="14.00">UiAutoAccessibleLabelModule</text>
</g>
<!-- UiAutoAccessibleLabelModule&#45;&gt;UiPasswordToggleModule -->
<g id="edge2" class="edge">
<title>UiAutoAccessibleLabelModule&#45;&gt;UiPasswordToggleModule</title>
<path fill="none" stroke="black" d="M249,-84.91C249,-84.91 249,-103.79 249,-103.79"/>
<polygon fill="black" stroke="black" points="245.5,-103.79 249,-113.79 252.5,-103.79 245.5,-103.79"/>
</g>
<!-- UiNgLetModule -->
<g id="node4" class="node">
<title>UiNgLetModule</title>
<polygon fill="#8dd3c7" stroke="black" points="133.81,-84.8 130.81,-88.8 109.81,-88.8 106.81,-84.8 24.19,-84.8 24.19,-48.8 133.81,-48.8 133.81,-84.8"/>
<text text-anchor="middle" x="79" y="-62.6" font-family="Times,serif" font-size="14.00">UiNgLetModule</text>
</g>
<!-- UiNgLetModule&#45;&gt;UiPasswordToggleModule -->
<g id="edge3" class="edge">
<title>UiNgLetModule&#45;&gt;UiPasswordToggleModule</title>
<path fill="none" stroke="black" d="M79,-84.91C79,-104.14 79,-131.8 79,-131.8 79,-131.8 155.49,-131.8 155.49,-131.8"/>
<polygon fill="black" stroke="black" points="155.49,-135.3 165.49,-131.8 155.49,-128.3 155.49,-135.3"/>
</g>
</g>
</svg>
