<?xml version="1.0" encoding="UTF-8" standalone="no"?>
<!DOCTYPE svg PUBLIC "-//W3C//DTD SVG 1.1//EN"
 "http://www.w3.org/Graphics/SVG/1.1/DTD/svg11.dtd">
<!-- Generated by graphviz version 2.47.3 (20210619.1520)
 -->
<!-- Title: dependencies Pages: 1 -->
<svg width="590pt" height="247pt"
 viewBox="0.00 0.00 590.00 246.80" xmlns="http://www.w3.org/2000/svg" xmlns:xlink="http://www.w3.org/1999/xlink">
<g id="graph0" class="graph" transform="scale(1 1) rotate(0) translate(4 242.8)">
<title>dependencies</title>
<polygon fill="white" stroke="transparent" points="-4,4 -4,-242.8 586,-242.8 586,4 -4,4"/>
<text text-anchor="middle" x="291" y="-8.2" font-family="sans-serif" font-size="14.00">dependencies</text>
<g id="clust1" class="cluster">
<title>cluster_UiPasswordToggleModule</title>
<polygon fill="none" stroke="black" stroke-dasharray="1,5" points="8,-32.8 8,-230.8 574,-230.8 574,-32.8 8,-32.8"/>
</g>
<g id="clust4" class="cluster">
<title>cluster_UiPasswordToggleModule_imports</title>
<polygon fill="none" stroke="black" points="228,-40.8 228,-92.8 566,-92.8 566,-40.8 228,-40.8"/>
</g>
<g id="clust5" class="cluster">
<title>cluster_UiPasswordToggleModule_exports</title>
<polygon fill="none" stroke="black" points="187,-170.8 187,-222.8 395,-222.8 395,-170.8 187,-170.8"/>
</g>
<g id="clust2" class="cluster">
<title>cluster_UiPasswordToggleModule_declarations</title>
<polygon fill="none" stroke="black" points="16,-40.8 16,-92.8 220,-92.8 220,-40.8 16,-40.8"/>
</g>
<!-- UiPasswordToggleComponent -->
<g id="node1" class="node">
<title>UiPasswordToggleComponent</title>
<polygon fill="#ffffb3" stroke="black" points="212.14,-84.8 23.86,-84.8 23.86,-48.8 212.14,-48.8 212.14,-84.8"/>
<text text-anchor="middle" x="118" y="-62.6" font-family="Times,serif" font-size="14.00">UiPasswordToggleComponent</text>
</g>
<!-- UiPasswordToggleModule -->
<g id="node2" class="node">
<title>UiPasswordToggleModule</title>
<polygon fill="#8dd3c7" stroke="black" points="374.36,-149.8 371.36,-153.8 350.36,-153.8 347.36,-149.8 207.64,-149.8 207.64,-113.8 374.36,-113.8 374.36,-149.8"/>
<text text-anchor="middle" x="291" y="-127.6" font-family="Times,serif" font-size="14.00">UiPasswordToggleModule</text>
</g>
<!-- UiPasswordToggleComponent&#45;&gt;UiPasswordToggleModule -->
<g id="edge1" class="edge">
<title>UiPasswordToggleComponent&#45;&gt;UiPasswordToggleModule</title>
<path fill="none" stroke="black" d="M201.25,-84.91C201.25,-104.14 201.25,-131.8 201.25,-131.8 201.25,-131.8 201.87,-131.8 201.87,-131.8"/>
<polygon fill="black" stroke="black" points="197.42,-135.3 207.42,-131.8 197.42,-128.3 197.42,-135.3"/>
</g>
<!-- UiPasswordToggleComponent  -->
<g id="node5" class="node">
<title>UiPasswordToggleComponent </title>
<polygon fill="#fb8072" stroke="black" points="387.14,-214.8 194.86,-214.8 194.86,-178.8 387.14,-178.8 387.14,-214.8"/>
<text text-anchor="middle" x="291" y="-192.6" font-family="Times,serif" font-size="14.00">UiPasswordToggleComponent </text>
</g>
<!-- UiPasswordToggleModule&#45;&gt;UiPasswordToggleComponent  -->
<g id="edge4" class="edge">
<title>UiPasswordToggleModule&#45;&gt;UiPasswordToggleComponent </title>
<path fill="none" stroke="black" stroke-dasharray="5,2" d="M291,-149.91C291,-149.91 291,-168.79 291,-168.79"/>
<polygon fill="black" stroke="black" points="287.5,-168.79 291,-178.79 294.5,-168.79 287.5,-168.79"/>
</g>
<!-- UiAutoAccessibleLabelModule -->
<g id="node3" class="node">
<title>UiAutoAccessibleLabelModule</title>
<polygon fill="#8dd3c7" stroke="black" points="558.05,-84.8 555.05,-88.8 534.05,-88.8 531.05,-84.8 363.95,-84.8 363.95,-48.8 558.05,-48.8 558.05,-84.8"/>
<text text-anchor="middle" x="461" y="-62.6" font-family="Times,serif" font-size="14.00">UiAutoAccessibleLabelModule</text>
</g>
<!-- UiAutoAccessibleLabelModule&#45;&gt;UiPasswordToggleModule -->
<g id="edge2" class="edge">
<title>UiAutoAccessibleLabelModule&#45;&gt;UiPasswordToggleModule</title>
<path fill="none" stroke="black" d="M369.2,-84.91C369.2,-84.91 369.2,-103.79 369.2,-103.79"/>
<polygon fill="black" stroke="black" points="365.7,-103.79 369.2,-113.79 372.7,-103.79 365.7,-103.79"/>
</g>
<!-- UiNgLetModule -->
<g id="node4" class="node">
<title>UiNgLetModule</title>
<polygon fill="#8dd3c7" stroke="black" points="345.81,-84.8 342.81,-88.8 321.81,-88.8 318.81,-84.8 236.19,-84.8 236.19,-48.8 345.81,-48.8 345.81,-84.8"/>
<text text-anchor="middle" x="291" y="-62.6" font-family="Times,serif" font-size="14.00">UiNgLetModule</text>
</g>
<!-- UiNgLetModule&#45;&gt;UiPasswordToggleModule -->
<g id="edge3" class="edge">
<title>UiNgLetModule&#45;&gt;UiPasswordToggleModule</title>
<path fill="none" stroke="black" d="M291,-84.91C291,-84.91 291,-103.79 291,-103.79"/>
<polygon fill="black" stroke="black" points="287.5,-103.79 291,-113.79 294.5,-103.79 287.5,-103.79"/>
</g>
</g>
</svg>
