<?xml version="1.0" encoding="UTF-8" standalone="no"?>
<!DOCTYPE svg PUBLIC "-//W3C//DTD SVG 1.1//EN"
 "http://www.w3.org/Graphics/SVG/1.1/DTD/svg11.dtd">
<!-- Generated by graphviz version 2.40.1 (20161225.0304)
 -->
<!-- Title: dependencies Pages: 1 -->
<svg width="504pt" height="284pt"
 viewBox="0.00 0.00 504.00 284.00" xmlns="http://www.w3.org/2000/svg" xmlns:xlink="http://www.w3.org/1999/xlink">
<g id="graph0" class="graph" transform="scale(1 1) rotate(0) translate(4 280)">
<title>dependencies</title>
<polygon fill="#ffffff" stroke="transparent" points="-4,4 -4,-280 500,-280 500,4 -4,4"/>
<text text-anchor="start" x="227.0091" y="-42.4" font-family="sans-serif" font-weight="bold" font-size="14.00" fill="#000000">Legend</text>
<polygon fill="#ffffb3" stroke="transparent" points="14,-10 14,-30 34,-30 34,-10 14,-10"/>
<text text-anchor="start" x="37.629" y="-15.4" font-family="sans-serif" font-size="14.00" fill="#000000"> &#160;Declarations</text>
<polygon fill="#8dd3c7" stroke="transparent" points="127,-10 127,-30 147,-30 147,-10 127,-10"/>
<text text-anchor="start" x="150.7251" y="-15.4" font-family="sans-serif" font-size="14.00" fill="#000000"> &#160;Module</text>
<polygon fill="#80b1d3" stroke="transparent" points="213,-10 213,-30 233,-30 233,-10 213,-10"/>
<text text-anchor="start" x="236.7812" y="-15.4" font-family="sans-serif" font-size="14.00" fill="#000000"> &#160;Bootstrap</text>
<polygon fill="#fdb462" stroke="transparent" points="310,-10 310,-30 330,-30 330,-10 310,-10"/>
<text text-anchor="start" x="333.6732" y="-15.4" font-family="sans-serif" font-size="14.00" fill="#000000"> &#160;Providers</text>
<polygon fill="#fb8072" stroke="transparent" points="406,-10 406,-30 426,-30 426,-10 406,-10"/>
<text text-anchor="start" x="429.7258" y="-15.4" font-family="sans-serif" font-size="14.00" fill="#000000"> &#160;Exports</text>
<g id="clust1" class="cluster">
<title>cluster_UiPasswordToggleModule</title>
<polygon fill="none" stroke="#000000" stroke-dasharray="1,5" points="71,-70 71,-268 425,-268 425,-70 71,-70"/>
</g>
<g id="clust2" class="cluster">
<title>cluster_UiPasswordToggleModule_declarations</title>
<polygon fill="none" stroke="#000000" points="213,-78 213,-130 417,-130 417,-78 213,-78"/>
</g>
<g id="clust4" class="cluster">
<title>cluster_UiPasswordToggleModule_imports</title>
<polygon fill="none" stroke="#000000" points="79,-78 79,-130 205,-130 205,-78 79,-78"/>
</g>
<g id="clust5" class="cluster">
<title>cluster_UiPasswordToggleModule_exports</title>
<polygon fill="none" stroke="#000000" points="144,-208 144,-260 352,-260 352,-208 144,-208"/>
</g>
<!-- UiPasswordToggleComponent -->
<g id="node1" class="node">
<title>UiPasswordToggleComponent</title>
<polygon fill="#ffffb3" stroke="#000000" points="409.1413,-122 220.8587,-122 220.8587,-86 409.1413,-86 409.1413,-122"/>
<text text-anchor="middle" x="315" y="-99.8" font-family="Times,serif" font-size="14.00" fill="#000000">UiPasswordToggleComponent</text>
</g>
<!-- UiPasswordToggleModule -->
<g id="node2" class="node">
<title>UiPasswordToggleModule</title>
<polygon fill="#8dd3c7" stroke="#000000" points="331.3585,-187 328.3585,-191 307.3585,-191 304.3585,-187 164.6415,-187 164.6415,-151 331.3585,-151 331.3585,-187"/>
<text text-anchor="middle" x="248" y="-164.8" font-family="Times,serif" font-size="14.00" fill="#000000">UiPasswordToggleModule</text>
</g>
<!-- UiPasswordToggleComponent&#45;&gt;UiPasswordToggleModule -->
<g id="edge1" class="edge">
<title>UiPasswordToggleComponent&#45;&gt;UiPasswordToggleModule</title>
<path fill="none" stroke="#000000" d="M276.0544,-122.1061C276.0544,-122.1061 276.0544,-140.991 276.0544,-140.991"/>
<polygon fill="#000000" stroke="#000000" points="272.5544,-140.9909 276.0544,-150.991 279.5544,-140.991 272.5544,-140.9909"/>
</g>
<!-- UiPasswordToggleComponent  -->
<g id="node4" class="node">
<title>UiPasswordToggleComponent </title>
<polygon fill="#fb8072" stroke="#000000" points="344.1411,-252 151.8589,-252 151.8589,-216 344.1411,-216 344.1411,-252"/>
<text text-anchor="middle" x="248" y="-229.8" font-family="Times,serif" font-size="14.00" fill="#000000">UiPasswordToggleComponent </text>
</g>
<!-- UiPasswordToggleModule&#45;&gt;UiPasswordToggleComponent  -->
<g id="edge3" class="edge">
<title>UiPasswordToggleModule&#45;&gt;UiPasswordToggleComponent </title>
<path fill="none" stroke="#000000" stroke-dasharray="5,2" d="M248,-187.1061C248,-187.1061 248,-205.991 248,-205.991"/>
<polygon fill="#000000" stroke="#000000" points="244.5001,-205.9909 248,-215.991 251.5001,-205.991 244.5001,-205.9909"/>
</g>
<!-- UiNgLetModule -->
<g id="node3" class="node">
<title>UiNgLetModule</title>
<polygon fill="#8dd3c7" stroke="#000000" points="196.8118,-122 193.8118,-126 172.8118,-126 169.8118,-122 87.1882,-122 87.1882,-86 196.8118,-86 196.8118,-122"/>
<text text-anchor="middle" x="142" y="-99.8" font-family="Times,serif" font-size="14.00" fill="#000000">UiNgLetModule</text>
</g>
<!-- UiNgLetModule&#45;&gt;UiPasswordToggleModule -->
<g id="edge2" class="edge">
<title>UiNgLetModule&#45;&gt;UiPasswordToggleModule</title>
<path fill="none" stroke="#000000" d="M180.6133,-122.1061C180.6133,-122.1061 180.6133,-140.991 180.6133,-140.991"/>
<polygon fill="#000000" stroke="#000000" points="177.1133,-140.9909 180.6133,-150.991 184.1133,-140.991 177.1133,-140.9909"/>
</g>
</g>
</svg>
