<?xml version="1.0" encoding="UTF-8" standalone="no"?>
<!DOCTYPE svg PUBLIC "-//W3C//DTD SVG 1.1//EN"
 "http://www.w3.org/Graphics/SVG/1.1/DTD/svg11.dtd">
<!-- Generated by graphviz version 2.40.1 (20161225.0304)
 -->
<!-- Title: dependencies Pages: 1 -->
<svg width="504pt" height="284pt"
 viewBox="0.00 0.00 504.00 284.00" xmlns="http://www.w3.org/2000/svg" xmlns:xlink="http://www.w3.org/1999/xlink">
<g id="graph0" class="graph" transform="scale(1 1) rotate(0) translate(4 280)">
<title>dependencies</title>
<polygon fill="#ffffff" stroke="transparent" points="-4,4 -4,-280 500,-280 500,4 -4,4"/>
<text text-anchor="start" x="227.0091" y="-42.4" font-family="sans-serif" font-weight="bold" font-size="14.00" fill="#000000">Legend</text>
<polygon fill="#ffffb3" stroke="transparent" points="14,-10 14,-30 34,-30 34,-10 14,-10"/>
<text text-anchor="start" x="37.629" y="-15.4" font-family="sans-serif" font-size="14.00" fill="#000000"> &#160;Declarations</text>
<polygon fill="#8dd3c7" stroke="transparent" points="127,-10 127,-30 147,-30 147,-10 127,-10"/>
<text text-anchor="start" x="150.7251" y="-15.4" font-family="sans-serif" font-size="14.00" fill="#000000"> &#160;Module</text>
<polygon fill="#80b1d3" stroke="transparent" points="213,-10 213,-30 233,-30 233,-10 213,-10"/>
<text text-anchor="start" x="236.7812" y="-15.4" font-family="sans-serif" font-size="14.00" fill="#000000"> &#160;Bootstrap</text>
<polygon fill="#fdb462" stroke="transparent" points="310,-10 310,-30 330,-30 330,-10 310,-10"/>
<text text-anchor="start" x="333.6732" y="-15.4" font-family="sans-serif" font-size="14.00" fill="#000000"> &#160;Providers</text>
<polygon fill="#fb8072" stroke="transparent" points="406,-10 406,-30 426,-30 426,-10 406,-10"/>
<text text-anchor="start" x="429.7258" y="-15.4" font-family="sans-serif" font-size="14.00" fill="#000000"> &#160;Exports</text>
<g id="clust1" class="cluster">
<title>cluster_UiSpinnerButtonModule</title>
<polygon fill="none" stroke="#000000" stroke-dasharray="1,5" points="28.5,-70 28.5,-268 467.5,-268 467.5,-70 28.5,-70"/>
</g>
<g id="clust2" class="cluster">
<title>cluster_UiSpinnerButtonModule_declarations</title>
<polygon fill="none" stroke="#000000" points="36.5,-78 36.5,-130 459.5,-130 459.5,-78 36.5,-78"/>
</g>
<g id="clust6" class="cluster">
<title>cluster_UiSpinnerButtonModule_exports</title>
<polygon fill="none" stroke="#000000" points="141.5,-208 141.5,-260 325.5,-260 325.5,-208 141.5,-208"/>
</g>
<!-- UiButtonProgressSpinnerComponent -->
<g id="node1" class="node">
<title>UiButtonProgressSpinnerComponent</title>
<polygon fill="#ffffb3" stroke="#000000" points="451.2035,-122 225.7965,-122 225.7965,-86 451.2035,-86 451.2035,-122"/>
<text text-anchor="middle" x="338.5" y="-99.8" font-family="Times,serif" font-size="14.00" fill="#000000">UiButtonProgressSpinnerComponent</text>
</g>
<!-- UiSpinnerButtonModule -->
<g id="node3" class="node">
<title>UiSpinnerButtonModule</title>
<polygon fill="#8dd3c7" stroke="#000000" points="311.2133,-187 308.2133,-191 287.2133,-191 284.2133,-187 155.7867,-187 155.7867,-151 311.2133,-151 311.2133,-187"/>
<text text-anchor="middle" x="233.5" y="-164.8" font-family="Times,serif" font-size="14.00" fill="#000000">UiSpinnerButtonModule</text>
</g>
<!-- UiButtonProgressSpinnerComponent&#45;&gt;UiSpinnerButtonModule -->
<g id="edge1" class="edge">
<title>UiButtonProgressSpinnerComponent&#45;&gt;UiSpinnerButtonModule</title>
<path fill="none" stroke="#000000" d="M268.5024,-122.1061C268.5024,-122.1061 268.5024,-140.991 268.5024,-140.991"/>
<polygon fill="#000000" stroke="#000000" points="265.0025,-140.9909 268.5024,-150.991 272.0025,-140.991 265.0025,-140.9909"/>
</g>
<!-- UiSpinnerButtonDirective -->
<g id="node2" class="node">
<title>UiSpinnerButtonDirective</title>
<polygon fill="#ffffb3" stroke="#000000" points="208.2464,-122 44.7536,-122 44.7536,-86 208.2464,-86 208.2464,-122"/>
<text text-anchor="middle" x="126.5" y="-99.8" font-family="Times,serif" font-size="14.00" fill="#000000">UiSpinnerButtonDirective</text>
</g>
<!-- UiSpinnerButtonDirective&#45;&gt;UiSpinnerButtonModule -->
<g id="edge2" class="edge">
<title>UiSpinnerButtonDirective&#45;&gt;UiSpinnerButtonModule</title>
<path fill="none" stroke="#000000" d="M182.1333,-122.1061C182.1333,-122.1061 182.1333,-140.991 182.1333,-140.991"/>
<polygon fill="#000000" stroke="#000000" points="178.6333,-140.9909 182.1333,-150.991 185.6333,-140.991 178.6333,-140.9909"/>
</g>
<!-- UiSpinnerButtonDirective  -->
<g id="node4" class="node">
<title>UiSpinnerButtonDirective </title>
<polygon fill="#fb8072" stroke="#000000" points="317.2464,-252 149.7536,-252 149.7536,-216 317.2464,-216 317.2464,-252"/>
<text text-anchor="middle" x="233.5" y="-229.8" font-family="Times,serif" font-size="14.00" fill="#000000">UiSpinnerButtonDirective </text>
</g>
<!-- UiSpinnerButtonModule&#45;&gt;UiSpinnerButtonDirective  -->
<g id="edge3" class="edge">
<title>UiSpinnerButtonModule&#45;&gt;UiSpinnerButtonDirective </title>
<path fill="none" stroke="#000000" stroke-dasharray="5,2" d="M233.5,-187.1061C233.5,-187.1061 233.5,-205.991 233.5,-205.991"/>
<polygon fill="#000000" stroke="#000000" points="230.0001,-205.9909 233.5,-215.991 237.0001,-205.991 230.0001,-205.9909"/>
</g>
</g>
</svg>
