<?xml version="1.0" encoding="UTF-8" standalone="no"?>
<!DOCTYPE svg PUBLIC "-//W3C//DTD SVG 1.1//EN"
 "http://www.w3.org/Graphics/SVG/1.1/DTD/svg11.dtd">
<!-- Generated by graphviz version 2.47.3 (20210619.1520)
 -->
<!-- Title: dependencies Pages: 1 -->
<svg width="463pt" height="247pt"
 viewBox="0.00 0.00 463.00 246.80" xmlns="http://www.w3.org/2000/svg" xmlns:xlink="http://www.w3.org/1999/xlink">
<g id="graph0" class="graph" transform="scale(1 1) rotate(0) translate(4 242.8)">
<title>dependencies</title>
<polygon fill="white" stroke="transparent" points="-4,4 -4,-242.8 459,-242.8 459,4 -4,4"/>
<text text-anchor="middle" x="227.5" y="-8.2" font-family="sans-serif" font-size="14.00">dependencies</text>
<g id="clust1" class="cluster">
<title>cluster_UiSpinnerButtonModule</title>
<polygon fill="none" stroke="black" stroke-dasharray="1,5" points="8,-32.8 8,-230.8 447,-230.8 447,-32.8 8,-32.8"/>
</g>
<g id="clust2" class="cluster">
<title>cluster_UiSpinnerButtonModule_declarations</title>
<polygon fill="none" stroke="black" points="16,-40.8 16,-92.8 439,-92.8 439,-40.8 16,-40.8"/>
</g>
<g id="clust6" class="cluster">
<title>cluster_UiSpinnerButtonModule_exports</title>
<polygon fill="none" stroke="black" points="121,-170.8 121,-222.8 305,-222.8 305,-170.8 121,-170.8"/>
</g>
<!-- UiButtonProgressSpinnerComponent -->
<g id="node1" class="node">
<title>UiButtonProgressSpinnerComponent</title>
<polygon fill="#ffffb3" stroke="black" points="430.7,-84.8 205.3,-84.8 205.3,-48.8 430.7,-48.8 430.7,-84.8"/>
<text text-anchor="middle" x="318" y="-62.6" font-family="Times,serif" font-size="14.00">UiButtonProgressSpinnerComponent</text>
</g>
<!-- UiSpinnerButtonModule -->
<g id="node3" class="node">
<title>UiSpinnerButtonModule</title>
<polygon fill="#8dd3c7" stroke="black" points="290.71,-149.8 287.71,-153.8 266.71,-153.8 263.71,-149.8 135.29,-149.8 135.29,-113.8 290.71,-113.8 290.71,-149.8"/>
<text text-anchor="middle" x="213" y="-127.6" font-family="Times,serif" font-size="14.00">UiSpinnerButtonModule</text>
</g>
<!-- UiButtonProgressSpinnerComponent&#45;&gt;UiSpinnerButtonModule -->
<g id="edge1" class="edge">
<title>UiButtonProgressSpinnerComponent&#45;&gt;UiSpinnerButtonModule</title>
<path fill="none" stroke="black" d="M248,-84.91C248,-84.91 248,-103.79 248,-103.79"/>
<polygon fill="black" stroke="black" points="244.5,-103.79 248,-113.79 251.5,-103.79 244.5,-103.79"/>
</g>
<!-- UiSpinnerButtonDirective -->
<g id="node2" class="node">
<title>UiSpinnerButtonDirective</title>
<polygon fill="#ffffb3" stroke="black" points="187.75,-84.8 24.25,-84.8 24.25,-48.8 187.75,-48.8 187.75,-84.8"/>
<text text-anchor="middle" x="106" y="-62.6" font-family="Times,serif" font-size="14.00">UiSpinnerButtonDirective</text>
</g>
<!-- UiSpinnerButtonDirective&#45;&gt;UiSpinnerButtonModule -->
<g id="edge2" class="edge">
<title>UiSpinnerButtonDirective&#45;&gt;UiSpinnerButtonModule</title>
<path fill="none" stroke="black" d="M161.63,-84.91C161.63,-84.91 161.63,-103.79 161.63,-103.79"/>
<polygon fill="black" stroke="black" points="158.13,-103.79 161.63,-113.79 165.13,-103.79 158.13,-103.79"/>
</g>
<!-- UiSpinnerButtonDirective  -->
<g id="node4" class="node">
<title>UiSpinnerButtonDirective </title>
<polygon fill="#fb8072" stroke="black" points="296.75,-214.8 129.25,-214.8 129.25,-178.8 296.75,-178.8 296.75,-214.8"/>
<text text-anchor="middle" x="213" y="-192.6" font-family="Times,serif" font-size="14.00">UiSpinnerButtonDirective </text>
</g>
<!-- UiSpinnerButtonModule&#45;&gt;UiSpinnerButtonDirective  -->
<g id="edge3" class="edge">
<title>UiSpinnerButtonModule&#45;&gt;UiSpinnerButtonDirective </title>
<path fill="none" stroke="black" stroke-dasharray="5,2" d="M213,-149.91C213,-149.91 213,-168.79 213,-168.79"/>
<polygon fill="black" stroke="black" points="209.5,-168.79 213,-178.79 216.5,-168.79 209.5,-168.79"/>
</g>
</g>
</svg>
