<?xml version="1.0" encoding="UTF-8" standalone="no"?>
<!DOCTYPE svg PUBLIC "-//W3C//DTD SVG 1.1//EN"
 "http://www.w3.org/Graphics/SVG/1.1/DTD/svg11.dtd">
<!-- Generated by graphviz version 2.40.1 (20161225.0304)
 -->
<!-- Title: dependencies Pages: 1 -->
<svg width="504pt" height="284pt"
 viewBox="0.00 0.00 504.00 284.00" xmlns="http://www.w3.org/2000/svg" xmlns:xlink="http://www.w3.org/1999/xlink">
<g id="graph0" class="graph" transform="scale(1 1) rotate(0) translate(4 280)">
<title>dependencies</title>
<polygon fill="#ffffff" stroke="transparent" points="-4,4 -4,-280 500,-280 500,4 -4,4"/>
<text text-anchor="start" x="227.0091" y="-42.4" font-family="sans-serif" font-weight="bold" font-size="14.00" fill="#000000">Legend</text>
<polygon fill="#ffffb3" stroke="transparent" points="14,-10 14,-30 34,-30 34,-10 14,-10"/>
<text text-anchor="start" x="37.629" y="-15.4" font-family="sans-serif" font-size="14.00" fill="#000000"> &#160;Declarations</text>
<polygon fill="#8dd3c7" stroke="transparent" points="127,-10 127,-30 147,-30 147,-10 127,-10"/>
<text text-anchor="start" x="150.7251" y="-15.4" font-family="sans-serif" font-size="14.00" fill="#000000"> &#160;Module</text>
<polygon fill="#80b1d3" stroke="transparent" points="213,-10 213,-30 233,-30 233,-10 213,-10"/>
<text text-anchor="start" x="236.7812" y="-15.4" font-family="sans-serif" font-size="14.00" fill="#000000"> &#160;Bootstrap</text>
<polygon fill="#fdb462" stroke="transparent" points="310,-10 310,-30 330,-30 330,-10 310,-10"/>
<text text-anchor="start" x="333.6732" y="-15.4" font-family="sans-serif" font-size="14.00" fill="#000000"> &#160;Providers</text>
<polygon fill="#fb8072" stroke="transparent" points="406,-10 406,-30 426,-30 426,-10 406,-10"/>
<text text-anchor="start" x="429.7258" y="-15.4" font-family="sans-serif" font-size="14.00" fill="#000000"> &#160;Exports</text>
<g id="clust1" class="cluster">
<title>cluster_UiContentLoaderModule</title>
<polygon fill="none" stroke="#000000" stroke-dasharray="1,5" points="48,-70 48,-268 448,-268 448,-70 48,-70"/>
</g>
<g id="clust2" class="cluster">
<title>cluster_UiContentLoaderModule_declarations</title>
<polygon fill="none" stroke="#000000" points="56,-78 56,-130 440,-130 440,-78 56,-78"/>
</g>
<g id="clust6" class="cluster">
<title>cluster_UiContentLoaderModule_exports</title>
<polygon fill="none" stroke="#000000" points="158,-208 158,-260 344,-260 344,-208 158,-208"/>
</g>
<!-- UiContentLoaderDirective -->
<g id="node1" class="node">
<title>UiContentLoaderDirective</title>
<polygon fill="#ffffb3" stroke="#000000" points="432.0548,-122 265.9452,-122 265.9452,-86 432.0548,-86 432.0548,-122"/>
<text text-anchor="middle" x="349" y="-99.8" font-family="Times,serif" font-size="14.00" fill="#000000">UiContentLoaderDirective</text>
</g>
<!-- UiContentLoaderModule -->
<g id="node3" class="node">
<title>UiContentLoaderModule</title>
<polygon fill="#8dd3c7" stroke="#000000" points="329.5225,-187 326.5225,-191 305.5225,-191 302.5225,-187 172.4775,-187 172.4775,-151 329.5225,-151 329.5225,-187"/>
<text text-anchor="middle" x="251" y="-164.8" font-family="Times,serif" font-size="14.00" fill="#000000">UiContentLoaderModule</text>
</g>
<!-- UiContentLoaderDirective&#45;&gt;UiContentLoaderModule -->
<g id="edge1" class="edge">
<title>UiContentLoaderDirective&#45;&gt;UiContentLoaderModule</title>
<path fill="none" stroke="#000000" d="M297.8668,-122.1061C297.8668,-122.1061 297.8668,-140.991 297.8668,-140.991"/>
<polygon fill="#000000" stroke="#000000" points="294.3668,-140.9909 297.8668,-150.991 301.3668,-140.991 294.3668,-140.9909"/>
</g>
<!-- UiContentSpinnerComponent -->
<g id="node2" class="node">
<title>UiContentSpinnerComponent</title>
<polygon fill="#ffffb3" stroke="#000000" points="247.7105,-122 64.2895,-122 64.2895,-86 247.7105,-86 247.7105,-122"/>
<text text-anchor="middle" x="156" y="-99.8" font-family="Times,serif" font-size="14.00" fill="#000000">UiContentSpinnerComponent</text>
</g>
<!-- UiContentSpinnerComponent&#45;&gt;UiContentLoaderModule -->
<g id="edge2" class="edge">
<title>UiContentSpinnerComponent&#45;&gt;UiContentLoaderModule</title>
<path fill="none" stroke="#000000" d="M209.9222,-122.1061C209.9222,-122.1061 209.9222,-140.991 209.9222,-140.991"/>
<polygon fill="#000000" stroke="#000000" points="206.4222,-140.9909 209.9222,-150.991 213.4222,-140.991 206.4222,-140.9909"/>
</g>
<!-- UiContentLoaderDirective  -->
<g id="node4" class="node">
<title>UiContentLoaderDirective </title>
<polygon fill="#fb8072" stroke="#000000" points="335.5554,-252 166.4446,-252 166.4446,-216 335.5554,-216 335.5554,-252"/>
<text text-anchor="middle" x="251" y="-229.8" font-family="Times,serif" font-size="14.00" fill="#000000">UiContentLoaderDirective </text>
</g>
<!-- UiContentLoaderModule&#45;&gt;UiContentLoaderDirective  -->
<g id="edge3" class="edge">
<title>UiContentLoaderModule&#45;&gt;UiContentLoaderDirective </title>
<path fill="none" stroke="#000000" stroke-dasharray="5,2" d="M251,-187.1061C251,-187.1061 251,-205.991 251,-205.991"/>
<polygon fill="#000000" stroke="#000000" points="247.5001,-205.9909 251,-215.991 254.5001,-205.991 247.5001,-205.9909"/>
</g>
</g>
</svg>
