<?xml version="1.0" encoding="UTF-8" standalone="no"?>
<!DOCTYPE svg PUBLIC "-//W3C//DTD SVG 1.1//EN"
 "http://www.w3.org/Graphics/SVG/1.1/DTD/svg11.dtd">
<!-- Generated by graphviz version 2.47.3 (20210619.1520)
 -->
<!-- Title: dependencies Pages: 1 -->
<svg width="424pt" height="247pt"
 viewBox="0.00 0.00 424.00 246.80" xmlns="http://www.w3.org/2000/svg" xmlns:xlink="http://www.w3.org/1999/xlink">
<g id="graph0" class="graph" transform="scale(1 1) rotate(0) translate(4 242.8)">
<title>dependencies</title>
<polygon fill="white" stroke="transparent" points="-4,4 -4,-242.8 420,-242.8 420,4 -4,4"/>
<text text-anchor="middle" x="208" y="-8.2" font-family="sans-serif" font-size="14.00">dependencies</text>
<g id="clust1" class="cluster">
<title>cluster_UiContentLoaderModule</title>
<polygon fill="none" stroke="black" stroke-dasharray="1,5" points="8,-32.8 8,-230.8 408,-230.8 408,-32.8 8,-32.8"/>
</g>
<g id="clust2" class="cluster">
<title>cluster_UiContentLoaderModule_declarations</title>
<polygon fill="none" stroke="black" points="16,-40.8 16,-92.8 400,-92.8 400,-40.8 16,-40.8"/>
</g>
<g id="clust6" class="cluster">
<title>cluster_UiContentLoaderModule_exports</title>
<polygon fill="none" stroke="black" points="118,-170.8 118,-222.8 304,-222.8 304,-170.8 118,-170.8"/>
</g>
<!-- UiContentLoaderDirective -->
<g id="node1" class="node">
<title>UiContentLoaderDirective</title>
<polygon fill="#ffffb3" stroke="black" points="392.05,-84.8 225.95,-84.8 225.95,-48.8 392.05,-48.8 392.05,-84.8"/>
<text text-anchor="middle" x="309" y="-62.6" font-family="Times,serif" font-size="14.00">UiContentLoaderDirective</text>
</g>
<!-- UiContentLoaderModule -->
<g id="node3" class="node">
<title>UiContentLoaderModule</title>
<polygon fill="#8dd3c7" stroke="black" points="289.52,-149.8 286.52,-153.8 265.52,-153.8 262.52,-149.8 132.48,-149.8 132.48,-113.8 289.52,-113.8 289.52,-149.8"/>
<text text-anchor="middle" x="211" y="-127.6" font-family="Times,serif" font-size="14.00">UiContentLoaderModule</text>
</g>
<!-- UiContentLoaderDirective&#45;&gt;UiContentLoaderModule -->
<g id="edge1" class="edge">
<title>UiContentLoaderDirective&#45;&gt;UiContentLoaderModule</title>
<path fill="none" stroke="black" d="M257.87,-84.91C257.87,-84.91 257.87,-103.79 257.87,-103.79"/>
<polygon fill="black" stroke="black" points="254.37,-103.79 257.87,-113.79 261.37,-103.79 254.37,-103.79"/>
</g>
<!-- UiContentSpinnerComponent -->
<g id="node2" class="node">
<title>UiContentSpinnerComponent</title>
<polygon fill="#ffffb3" stroke="black" points="207.71,-84.8 24.29,-84.8 24.29,-48.8 207.71,-48.8 207.71,-84.8"/>
<text text-anchor="middle" x="116" y="-62.6" font-family="Times,serif" font-size="14.00">UiContentSpinnerComponent</text>
</g>
<!-- UiContentSpinnerComponent&#45;&gt;UiContentLoaderModule -->
<g id="edge2" class="edge">
<title>UiContentSpinnerComponent&#45;&gt;UiContentLoaderModule</title>
<path fill="none" stroke="black" d="M169.92,-84.91C169.92,-84.91 169.92,-103.79 169.92,-103.79"/>
<polygon fill="black" stroke="black" points="166.42,-103.79 169.92,-113.79 173.42,-103.79 166.42,-103.79"/>
</g>
<!-- UiContentLoaderDirective  -->
<g id="node4" class="node">
<title>UiContentLoaderDirective </title>
<polygon fill="#fb8072" stroke="black" points="295.56,-214.8 126.44,-214.8 126.44,-178.8 295.56,-178.8 295.56,-214.8"/>
<text text-anchor="middle" x="211" y="-192.6" font-family="Times,serif" font-size="14.00">UiContentLoaderDirective </text>
</g>
<!-- UiContentLoaderModule&#45;&gt;UiContentLoaderDirective  -->
<g id="edge3" class="edge">
<title>UiContentLoaderModule&#45;&gt;UiContentLoaderDirective </title>
<path fill="none" stroke="black" stroke-dasharray="5,2" d="M211,-149.91C211,-149.91 211,-168.79 211,-168.79"/>
<polygon fill="black" stroke="black" points="207.5,-168.79 211,-178.79 214.5,-168.79 207.5,-168.79"/>
</g>
</g>
</svg>
