<?xml version="1.0" encoding="UTF-8" standalone="no"?>
<!DOCTYPE svg PUBLIC "-//W3C//DTD SVG 1.1//EN"
 "http://www.w3.org/Graphics/SVG/1.1/DTD/svg11.dtd">
<!-- Generated by graphviz version 2.47.3 (20210619.1520)
 -->
<!-- Title: dependencies Pages: 1 -->
<svg width="390pt" height="247pt"
 viewBox="0.00 0.00 390.00 246.80" xmlns="http://www.w3.org/2000/svg" xmlns:xlink="http://www.w3.org/1999/xlink">
<g id="graph0" class="graph" transform="scale(1 1) rotate(0) translate(4 242.8)">
<title>dependencies</title>
<polygon fill="white" stroke="transparent" points="-4,4 -4,-242.8 386,-242.8 386,4 -4,4"/>
<text text-anchor="middle" x="191" y="-8.2" font-family="sans-serif" font-size="14.00">dependencies</text>
<g id="clust1" class="cluster">
<title>cluster_UiPasswordIndicatorModule</title>
<polygon fill="none" stroke="black" stroke-dasharray="1,5" points="8,-32.8 8,-230.8 374,-230.8 374,-32.8 8,-32.8"/>
</g>
<g id="clust2" class="cluster">
<title>cluster_UiPasswordIndicatorModule_declarations</title>
<polygon fill="none" stroke="black" points="150,-40.8 150,-92.8 366,-92.8 366,-40.8 150,-40.8"/>
</g>
<g id="clust4" class="cluster">
<title>cluster_UiPasswordIndicatorModule_imports</title>
<polygon fill="none" stroke="black" points="16,-40.8 16,-92.8 142,-92.8 142,-40.8 16,-40.8"/>
</g>
<g id="clust5" class="cluster">
<title>cluster_UiPasswordIndicatorModule_exports</title>
<polygon fill="none" stroke="black" points="81,-170.8 81,-222.8 301,-222.8 301,-170.8 81,-170.8"/>
</g>
<!-- UiPasswordIndicatorComponent -->
<g id="node1" class="node">
<title>UiPasswordIndicatorComponent</title>
<polygon fill="#ffffb3" stroke="black" points="357.52,-84.8 158.48,-84.8 158.48,-48.8 357.52,-48.8 357.52,-84.8"/>
<text text-anchor="middle" x="258" y="-62.6" font-family="Times,serif" font-size="14.00">UiPasswordIndicatorComponent</text>
</g>
<!-- UiPasswordIndicatorModule -->
<g id="node2" class="node">
<title>UiPasswordIndicatorModule</title>
<polygon fill="#8dd3c7" stroke="black" points="279.73,-149.8 276.73,-153.8 255.73,-153.8 252.73,-149.8 102.27,-149.8 102.27,-113.8 279.73,-113.8 279.73,-149.8"/>
<text text-anchor="middle" x="191" y="-127.6" font-family="Times,serif" font-size="14.00">UiPasswordIndicatorModule</text>
</g>
<!-- UiPasswordIndicatorComponent&#45;&gt;UiPasswordIndicatorModule -->
<g id="edge1" class="edge">
<title>UiPasswordIndicatorComponent&#45;&gt;UiPasswordIndicatorModule</title>
<path fill="none" stroke="black" d="M219.05,-84.91C219.05,-84.91 219.05,-103.79 219.05,-103.79"/>
<polygon fill="black" stroke="black" points="215.55,-103.79 219.05,-113.79 222.55,-103.79 215.55,-103.79"/>
</g>
<!-- UiPasswordIndicatorComponent  -->
<g id="node4" class="node">
<title>UiPasswordIndicatorComponent </title>
<polygon fill="#fb8072" stroke="black" points="292.51,-214.8 89.49,-214.8 89.49,-178.8 292.51,-178.8 292.51,-214.8"/>
<text text-anchor="middle" x="191" y="-192.6" font-family="Times,serif" font-size="14.00">UiPasswordIndicatorComponent </text>
</g>
<!-- UiPasswordIndicatorModule&#45;&gt;UiPasswordIndicatorComponent  -->
<g id="edge3" class="edge">
<title>UiPasswordIndicatorModule&#45;&gt;UiPasswordIndicatorComponent </title>
<path fill="none" stroke="black" stroke-dasharray="5,2" d="M191,-149.91C191,-149.91 191,-168.79 191,-168.79"/>
<polygon fill="black" stroke="black" points="187.5,-168.79 191,-178.79 194.5,-168.79 187.5,-168.79"/>
</g>
<!-- UiNgLetModule -->
<g id="node3" class="node">
<title>UiNgLetModule</title>
<polygon fill="#8dd3c7" stroke="black" points="133.81,-84.8 130.81,-88.8 109.81,-88.8 106.81,-84.8 24.19,-84.8 24.19,-48.8 133.81,-48.8 133.81,-84.8"/>
<text text-anchor="middle" x="79" y="-62.6" font-family="Times,serif" font-size="14.00">UiNgLetModule</text>
</g>
<!-- UiNgLetModule&#45;&gt;UiPasswordIndicatorModule -->
<g id="edge2" class="edge">
<title>UiNgLetModule&#45;&gt;UiPasswordIndicatorModule</title>
<path fill="none" stroke="black" d="M117.89,-84.91C117.89,-84.91 117.89,-103.79 117.89,-103.79"/>
<polygon fill="black" stroke="black" points="114.39,-103.79 117.89,-113.79 121.39,-103.79 114.39,-103.79"/>
</g>
</g>
</svg>
