<?xml version="1.0" encoding="UTF-8" standalone="no"?>
<!DOCTYPE svg PUBLIC "-//W3C//DTD SVG 1.1//EN"
 "http://www.w3.org/Graphics/SVG/1.1/DTD/svg11.dtd">
<!-- Generated by graphviz version 2.40.1 (20161225.0304)
 -->
<!-- Title: dependencies Pages: 1 -->
<svg width="504pt" height="284pt"
 viewBox="0.00 0.00 504.00 284.00" xmlns="http://www.w3.org/2000/svg" xmlns:xlink="http://www.w3.org/1999/xlink">
<g id="graph0" class="graph" transform="scale(1 1) rotate(0) translate(4 280)">
<title>dependencies</title>
<polygon fill="#ffffff" stroke="transparent" points="-4,4 -4,-280 500,-280 500,4 -4,4"/>
<text text-anchor="start" x="227.0091" y="-42.4" font-family="sans-serif" font-weight="bold" font-size="14.00" fill="#000000">Legend</text>
<polygon fill="#ffffb3" stroke="transparent" points="14,-10 14,-30 34,-30 34,-10 14,-10"/>
<text text-anchor="start" x="37.629" y="-15.4" font-family="sans-serif" font-size="14.00" fill="#000000"> &#160;Declarations</text>
<polygon fill="#8dd3c7" stroke="transparent" points="127,-10 127,-30 147,-30 147,-10 127,-10"/>
<text text-anchor="start" x="150.7251" y="-15.4" font-family="sans-serif" font-size="14.00" fill="#000000"> &#160;Module</text>
<polygon fill="#80b1d3" stroke="transparent" points="213,-10 213,-30 233,-30 233,-10 213,-10"/>
<text text-anchor="start" x="236.7812" y="-15.4" font-family="sans-serif" font-size="14.00" fill="#000000"> &#160;Bootstrap</text>
<polygon fill="#fdb462" stroke="transparent" points="310,-10 310,-30 330,-30 330,-10 310,-10"/>
<text text-anchor="start" x="333.6732" y="-15.4" font-family="sans-serif" font-size="14.00" fill="#000000"> &#160;Providers</text>
<polygon fill="#fb8072" stroke="transparent" points="406,-10 406,-30 426,-30 426,-10 406,-10"/>
<text text-anchor="start" x="429.7258" y="-15.4" font-family="sans-serif" font-size="14.00" fill="#000000"> &#160;Exports</text>
<g id="clust1" class="cluster">
<title>cluster_UiPasswordIndicatorModule</title>
<polygon fill="none" stroke="#000000" stroke-dasharray="1,5" points="65,-70 65,-268 431,-268 431,-70 65,-70"/>
</g>
<g id="clust2" class="cluster">
<title>cluster_UiPasswordIndicatorModule_declarations</title>
<polygon fill="none" stroke="#000000" points="207,-78 207,-130 423,-130 423,-78 207,-78"/>
</g>
<g id="clust4" class="cluster">
<title>cluster_UiPasswordIndicatorModule_imports</title>
<polygon fill="none" stroke="#000000" points="73,-78 73,-130 199,-130 199,-78 73,-78"/>
</g>
<g id="clust5" class="cluster">
<title>cluster_UiPasswordIndicatorModule_exports</title>
<polygon fill="none" stroke="#000000" points="138,-208 138,-260 358,-260 358,-208 138,-208"/>
</g>
<!-- UiPasswordIndicatorComponent -->
<g id="node1" class="node">
<title>UiPasswordIndicatorComponent</title>
<polygon fill="#ffffb3" stroke="#000000" points="414.5154,-122 215.4846,-122 215.4846,-86 414.5154,-86 414.5154,-122"/>
<text text-anchor="middle" x="315" y="-99.8" font-family="Times,serif" font-size="14.00" fill="#000000">UiPasswordIndicatorComponent</text>
</g>
<!-- UiPasswordIndicatorModule -->
<g id="node2" class="node">
<title>UiPasswordIndicatorModule</title>
<polygon fill="#8dd3c7" stroke="#000000" points="336.7324,-187 333.7324,-191 312.7324,-191 309.7324,-187 159.2676,-187 159.2676,-151 336.7324,-151 336.7324,-187"/>
<text text-anchor="middle" x="248" y="-164.8" font-family="Times,serif" font-size="14.00" fill="#000000">UiPasswordIndicatorModule</text>
</g>
<!-- UiPasswordIndicatorComponent&#45;&gt;UiPasswordIndicatorModule -->
<g id="edge1" class="edge">
<title>UiPasswordIndicatorComponent&#45;&gt;UiPasswordIndicatorModule</title>
<path fill="none" stroke="#000000" d="M276.0544,-122.1061C276.0544,-122.1061 276.0544,-140.991 276.0544,-140.991"/>
<polygon fill="#000000" stroke="#000000" points="272.5544,-140.9909 276.0544,-150.991 279.5544,-140.991 272.5544,-140.9909"/>
</g>
<!-- UiPasswordIndicatorComponent  -->
<g id="node4" class="node">
<title>UiPasswordIndicatorComponent </title>
<polygon fill="#fb8072" stroke="#000000" points="349.5148,-252 146.4852,-252 146.4852,-216 349.5148,-216 349.5148,-252"/>
<text text-anchor="middle" x="248" y="-229.8" font-family="Times,serif" font-size="14.00" fill="#000000">UiPasswordIndicatorComponent </text>
</g>
<!-- UiPasswordIndicatorModule&#45;&gt;UiPasswordIndicatorComponent  -->
<g id="edge3" class="edge">
<title>UiPasswordIndicatorModule&#45;&gt;UiPasswordIndicatorComponent </title>
<path fill="none" stroke="#000000" stroke-dasharray="5,2" d="M248,-187.1061C248,-187.1061 248,-205.991 248,-205.991"/>
<polygon fill="#000000" stroke="#000000" points="244.5001,-205.9909 248,-215.991 251.5001,-205.991 244.5001,-205.9909"/>
</g>
<!-- UiNgLetModule -->
<g id="node3" class="node">
<title>UiNgLetModule</title>
<polygon fill="#8dd3c7" stroke="#000000" points="190.8118,-122 187.8118,-126 166.8118,-126 163.8118,-122 81.1882,-122 81.1882,-86 190.8118,-86 190.8118,-122"/>
<text text-anchor="middle" x="136" y="-99.8" font-family="Times,serif" font-size="14.00" fill="#000000">UiNgLetModule</text>
</g>
<!-- UiNgLetModule&#45;&gt;UiPasswordIndicatorModule -->
<g id="edge2" class="edge">
<title>UiNgLetModule&#45;&gt;UiPasswordIndicatorModule</title>
<path fill="none" stroke="#000000" d="M174.8948,-122.1061C174.8948,-122.1061 174.8948,-140.991 174.8948,-140.991"/>
<polygon fill="#000000" stroke="#000000" points="171.3949,-140.9909 174.8948,-150.991 178.3949,-140.991 171.3949,-140.9909"/>
</g>
</g>
</svg>
