<?xml version="1.0" encoding="UTF-8" standalone="no"?>
<!DOCTYPE svg PUBLIC "-//W3C//DTD SVG 1.1//EN"
 "http://www.w3.org/Graphics/SVG/1.1/DTD/svg11.dtd">
<!-- Generated by graphviz version 2.47.3 (20210619.1520)
 -->
<!-- Title: dependencies Pages: 1 -->
<svg width="392pt" height="174pt"
 viewBox="0.00 0.00 392.00 173.80" xmlns="http://www.w3.org/2000/svg" xmlns:xlink="http://www.w3.org/1999/xlink">
<g id="graph0" class="graph" transform="scale(1 1) rotate(0) translate(4 169.8)">
<title>dependencies</title>
<polygon fill="white" stroke="transparent" points="-4,4 -4,-169.8 388,-169.8 388,4 -4,4"/>
<text text-anchor="middle" x="192" y="-8.2" font-family="sans-serif" font-size="14.00">dependencies</text>
<g id="clust1" class="cluster">
<title>cluster_UiSnackBarModule</title>
<polygon fill="none" stroke="black" stroke-dasharray="1,5" points="8,-32.8 8,-157.8 376,-157.8 376,-32.8 8,-32.8"/>
</g>
<g id="clust4" class="cluster">
<title>cluster_UiSnackBarModule_imports</title>
<polygon fill="none" stroke="black" points="190,-40.8 190,-92.8 368,-92.8 368,-40.8 190,-40.8"/>
</g>
<g id="clust2" class="cluster">
<title>cluster_UiSnackBarModule_declarations</title>
<polygon fill="none" stroke="black" points="16,-40.8 16,-92.8 182,-92.8 182,-40.8 16,-40.8"/>
</g>
<!-- UiSnackBarComponent -->
<g id="node1" class="node">
<title>UiSnackBarComponent</title>
<polygon fill="#ffffb3" stroke="black" points="173.75,-84.8 24.25,-84.8 24.25,-48.8 173.75,-48.8 173.75,-84.8"/>
<text text-anchor="middle" x="99" y="-62.6" font-family="Times,serif" font-size="14.00">UiSnackBarComponent</text>
</g>
<!-- UiSnackBarModule -->
<g id="node2" class="node">
<title>UiSnackBarModule</title>
<polygon fill="#8dd3c7" stroke="black" points="252.97,-149.8 249.97,-153.8 228.97,-153.8 225.97,-149.8 125.03,-149.8 125.03,-113.8 252.97,-113.8 252.97,-149.8"/>
<text text-anchor="middle" x="189" y="-127.6" font-family="Times,serif" font-size="14.00">UiSnackBarModule</text>
</g>
<!-- UiSnackBarComponent&#45;&gt;UiSnackBarModule -->
<g id="edge1" class="edge">
<title>UiSnackBarComponent&#45;&gt;UiSnackBarModule</title>
<path fill="none" stroke="black" d="M149.45,-84.91C149.45,-84.91 149.45,-103.79 149.45,-103.79"/>
<polygon fill="black" stroke="black" points="145.95,-103.79 149.45,-113.79 152.95,-103.79 145.95,-103.79"/>
</g>
<!-- KeyboardShortcutModule -->
<g id="node3" class="node">
<title>KeyboardShortcutModule</title>
<polygon fill="#8dd3c7" stroke="black" points="360.19,-84.8 357.19,-88.8 336.19,-88.8 333.19,-84.8 197.81,-84.8 197.81,-48.8 360.19,-48.8 360.19,-84.8"/>
<text text-anchor="middle" x="279" y="-62.6" font-family="Times,serif" font-size="14.00">KeyboardShortcutModule</text>
</g>
<!-- KeyboardShortcutModule&#45;&gt;UiSnackBarModule -->
<g id="edge2" class="edge">
<title>KeyboardShortcutModule&#45;&gt;UiSnackBarModule</title>
<path fill="none" stroke="black" d="M225.45,-84.91C225.45,-84.91 225.45,-103.79 225.45,-103.79"/>
<polygon fill="black" stroke="black" points="221.95,-103.79 225.45,-113.79 228.95,-103.79 221.95,-103.79"/>
</g>
</g>
</svg>
