<?xml version="1.0" encoding="UTF-8" standalone="no"?>
<!DOCTYPE svg PUBLIC "-//W3C//DTD SVG 1.1//EN"
 "http://www.w3.org/Graphics/SVG/1.1/DTD/svg11.dtd">
<!-- Generated by graphviz version 2.47.3 (20210619.1520)
 -->
<!-- Title: dependencies Pages: 1 -->
<svg width="392pt" height="174pt"
 viewBox="0.00 0.00 392.00 173.80" xmlns="http://www.w3.org/2000/svg" xmlns:xlink="http://www.w3.org/1999/xlink">
<g id="graph0" class="graph" transform="scale(1 1) rotate(0) translate(4 169.8)">
<title>dependencies</title>
<polygon fill="white" stroke="transparent" points="-4,4 -4,-169.8 388,-169.8 388,4 -4,4"/>
<text text-anchor="middle" x="192" y="-8.2" font-family="sans-serif" font-size="14.00">dependencies</text>
<g id="clust1" class="cluster">
<title>cluster_UiSnackBarModule</title>
<polygon fill="none" stroke="black" stroke-dasharray="1,5" points="8,-32.8 8,-157.8 376,-157.8 376,-32.8 8,-32.8"/>
</g>
<g id="clust2" class="cluster">
<title>cluster_UiSnackBarModule_declarations</title>
<polygon fill="none" stroke="black" points="202,-40.8 202,-92.8 368,-92.8 368,-40.8 202,-40.8"/>
</g>
<g id="clust4" class="cluster">
<title>cluster_UiSnackBarModule_imports</title>
<polygon fill="none" stroke="black" points="16,-40.8 16,-92.8 194,-92.8 194,-40.8 16,-40.8"/>
</g>
<!-- UiSnackBarComponent -->
<g id="node1" class="node">
<title>UiSnackBarComponent</title>
<polygon fill="#ffffb3" stroke="black" points="359.75,-84.8 210.25,-84.8 210.25,-48.8 359.75,-48.8 359.75,-84.8"/>
<text text-anchor="middle" x="285" y="-62.6" font-family="Times,serif" font-size="14.00">UiSnackBarComponent</text>
</g>
<!-- UiSnackBarModule -->
<g id="node2" class="node">
<title>UiSnackBarModule</title>
<polygon fill="#8dd3c7" stroke="black" points="258.97,-149.8 255.97,-153.8 234.97,-153.8 231.97,-149.8 131.03,-149.8 131.03,-113.8 258.97,-113.8 258.97,-149.8"/>
<text text-anchor="middle" x="195" y="-127.6" font-family="Times,serif" font-size="14.00">UiSnackBarModule</text>
</g>
<!-- UiSnackBarComponent&#45;&gt;UiSnackBarModule -->
<g id="edge1" class="edge">
<title>UiSnackBarComponent&#45;&gt;UiSnackBarModule</title>
<path fill="none" stroke="black" d="M234.55,-84.91C234.55,-84.91 234.55,-103.79 234.55,-103.79"/>
<polygon fill="black" stroke="black" points="231.05,-103.79 234.55,-113.79 238.05,-103.79 231.05,-103.79"/>
</g>
<!-- KeyboardShortcutModule -->
<g id="node3" class="node">
<title>KeyboardShortcutModule</title>
<polygon fill="#8dd3c7" stroke="black" points="186.19,-84.8 183.19,-88.8 162.19,-88.8 159.19,-84.8 23.81,-84.8 23.81,-48.8 186.19,-48.8 186.19,-84.8"/>
<text text-anchor="middle" x="105" y="-62.6" font-family="Times,serif" font-size="14.00">KeyboardShortcutModule</text>
</g>
<!-- KeyboardShortcutModule&#45;&gt;UiSnackBarModule -->
<g id="edge2" class="edge">
<title>KeyboardShortcutModule&#45;&gt;UiSnackBarModule</title>
<path fill="none" stroke="black" d="M158.55,-84.91C158.55,-84.91 158.55,-103.79 158.55,-103.79"/>
<polygon fill="black" stroke="black" points="155.05,-103.79 158.55,-113.79 162.05,-103.79 155.05,-103.79"/>
</g>
</g>
</svg>
